<svg width="200" height="200" viewBox="0 0 200 200" fill="none" xmlns="http://www.w3.org/2000/svg">
<g filter="url(#filter0_d)">
<ellipse cx="100.5" cy="100" rx="69.5" ry="70" fill="white"/>
<path d="M100.5 176.5C142.517 176.5 176.5 142.206 176.5 100C176.5 57.7942 142.517 23.5 100.5 23.5C58.4825 23.5 24.5 57.7942 24.5 100C24.5 142.206 58.4825 176.5 100.5 176.5Z" stroke="#ECECED" stroke-width="13"/>
</g>
<path d="M59.8271 40.7492C58.8971 39.9527 57.9008 39.2225 56.9709 38.4259C56.7716 38.2268 56.5059 38.094 56.2402 38.094C55.7088 38.1604 55.4431 38.957 54.9117 39.0233C54.5796 39.0897 54.3139 38.8242 54.0482 38.6251C53.5168 38.1604 53.0519 37.6958 52.7862 37.032C52.5205 36.3682 52.6533 35.5716 53.1847 35.1733C53.384 35.0406 53.6497 34.9078 53.9154 34.9742C54.3803 35.0406 54.8453 35.4388 55.3103 35.3061C55.1774 34.9742 55.0446 34.5759 54.9117 34.244C54.7789 33.9121 54.646 33.5138 54.3139 33.3147C54.0482 33.1155 53.6497 33.1155 53.384 32.85C53.1183 32.6509 53.0519 32.319 52.919 32.0535C52.7862 31.7216 52.7198 31.3897 52.5869 31.0578C52.5205 30.7923 52.454 30.5267 52.5205 30.2612C52.5869 29.9957 52.9854 29.7966 53.1847 29.9957C53.1183 29.6638 53.1183 29.3319 53.0518 29C53.2511 29 53.4504 29 53.5833 29C53.6497 29.1991 53.7825 29.3983 53.8489 29.5974C54.4467 29.7966 55.2438 28.9336 55.6424 29.3983C55.7752 29.531 55.7752 29.7302 55.9081 29.8629C56.0409 30.0621 56.3066 30.0621 56.5723 30.0621C57.6351 30.0621 58.6314 30.0621 59.6942 30.0621C60.0928 30.0621 60.5578 30.0621 60.9563 30.2612C61.1556 30.394 61.3548 30.5931 61.6205 30.6595C61.7534 30.6595 61.8862 30.6595 62.0191 30.7259C62.2183 30.7923 62.2183 31.0578 62.3512 31.1905C62.6169 31.6552 63.2811 31.6552 63.8125 31.4561C64.2775 31.2569 64.7425 30.925 65.2738 30.8586C65.2738 30.5931 65.3403 30.3276 65.3403 30.0621C65.6059 30.1285 65.9381 30.1948 66.2038 30.2612C66.2038 29.9293 66.2038 29.5974 66.2038 29.1991C66.5359 29 67.0009 29.2655 67.1337 29.6638C67.2666 29.9957 67.2001 30.4604 67.0673 30.7923C67.5987 30.925 67.9308 31.5224 67.6651 32.0535C67.5322 32.4518 67.1337 32.6509 66.8016 32.9164C65.606 33.713 64.7424 35.3061 65.3403 36.5673C65.4067 36.7001 65.4731 36.8328 65.5396 37.032C65.606 37.4302 65.2739 37.8949 65.4067 38.2932C65.4731 38.4259 65.6059 38.5587 65.6724 38.6915C65.8716 39.0233 65.5396 39.488 65.2074 39.6208C64.8089 39.7535 64.4103 39.6871 64.0118 39.6871C63.6132 39.6871 63.1483 39.7535 62.949 40.0854C62.6833 40.4837 62.8162 41.0811 63.0819 41.4794C63.3476 41.8777 63.6797 42.276 63.7461 42.807C63.0154 42.6742 62.2848 43.338 62.0855 44.0682C61.8862 44.7984 62.0191 45.5949 62.1519 46.3251C62.1519 46.4579 62.2183 46.657 62.3512 46.7898C62.484 46.9225 62.6833 46.9225 62.8826 46.9889C63.4804 47.1217 63.879 47.7855 64.0782 48.3829C64.2111 48.9803 64.211 49.6441 64.3439 50.3079C64.4767 51.1045 64.8753 51.8346 65.4067 52.4321C65.5395 52.5648 65.6724 52.6976 65.7388 52.8303C65.8052 52.9631 65.8716 53.1622 66.0045 53.295C66.3366 53.9588 67.0009 54.3571 67.7315 54.5562C68.4622 54.7554 69.1929 54.7554 69.9235 54.7554C70.5878 54.7554 71.3184 55.0873 71.717 55.6183C72.1155 56.1493 72.4476 56.7468 72.9126 57.145C73.0454 57.2778 73.1783 57.3442 73.3111 57.4769C73.444 57.7424 73.3775 58.008 73.3111 58.2735C73.1783 59.4683 73.8425 60.5968 73.9089 61.7916C73.9754 62.5882 73.7097 63.5175 74.2411 64.1813C74.4403 64.3804 74.706 64.5796 74.9053 64.7787C75.171 65.1106 75.3039 65.5753 75.3703 66.0399C75.7688 65.9735 76.2338 66.0399 76.6323 66.1063C76.6323 64.8451 75.9017 63.7166 75.3703 62.5882C74.8389 61.5925 74.5068 60.464 74.2411 59.4019C73.9089 57.9416 73.9754 56.2157 75.171 55.2864C75.5696 55.0209 76.1009 54.689 75.9681 54.2243C75.5031 54.2907 75.1046 54.5562 74.8389 54.8881C74.9053 54.4235 74.9717 53.8924 75.0382 53.4278C76.3666 53.2286 77.6287 52.4984 78.4258 51.4364C78.5586 51.3036 78.6251 51.1045 78.8243 50.9717C79.0236 50.7726 79.2893 50.7062 79.6214 50.7062C79.6878 50.9053 79.6878 51.1045 79.6878 51.2372C80.2192 51.37 80.6177 50.7726 80.9499 50.3079C81.282 49.8433 81.8134 49.5114 82.2783 49.1795C84.2046 47.8519 86.1309 46.5243 87.9908 45.263C88.5886 44.8648 88.1901 43.8691 87.9908 43.2053C87.7915 42.5415 87.4594 41.8777 87.1937 41.2139C86.7288 39.8863 86.7952 38.4259 86.3302 37.1647C86.0645 36.3682 85.5995 35.638 85.5995 34.775C85.5995 34.5759 85.666 34.3104 85.7988 34.1776C85.9317 34.1112 86.0645 34.0449 86.1974 34.0449C87.393 33.8457 88.655 33.5802 89.8507 33.3811C89.3193 33.3811 89.12 32.7837 89.0536 32.2526C88.9872 31.788 88.9208 31.1905 88.4558 30.925C88.7879 30.5931 89.1864 30.2612 89.585 29.9957C89.7842 29.8629 90.05 29.7302 90.3156 29.7302C90.847 29.7302 91.312 30.3276 91.9098 30.2612C91.9098 30.6595 91.8434 30.9914 91.8434 31.3897C92.9062 30.5931 94.1018 29.9293 95.2974 29.3983C95.2974 30.1948 95.3638 30.9914 95.3638 31.788C95.0317 32.1199 94.5003 31.788 94.1682 31.5224C93.7697 31.2569 93.1719 31.1242 93.039 31.5888C93.039 31.6552 93.039 31.788 93.039 31.8543C93.1054 32.5845 93.1054 33.3147 93.1719 34.0449C93.1719 34.1112 93.1718 34.244 93.2383 34.3104C93.3711 34.4431 93.5704 34.3104 93.7032 34.3104C94.0354 34.3104 94.3675 34.6423 94.3675 34.9742C94.4339 35.3061 94.3011 35.638 94.1682 35.9699C94.0354 36.3682 93.9025 36.7001 93.7697 37.0983C93.3047 37.2311 92.9062 37.6958 92.7733 38.1604C92.6405 38.6251 92.6405 39.1561 92.6405 39.6871C92.5741 41.1475 92.1755 42.6079 92.0427 44.0682C92.0427 44.201 92.0427 44.2674 92.1091 44.4001C92.1755 44.5993 92.4412 44.5992 92.6405 44.5992C93.039 44.5992 93.504 44.5993 93.9025 44.4001C94.3011 44.201 94.5668 43.7363 94.4339 43.338C94.3011 43.0061 93.9689 42.807 93.9025 42.4751C93.8361 41.9441 94.4339 41.6785 94.9653 41.5458C95.0317 41.8777 95.0317 42.276 95.0982 42.6079C95.8953 42.0768 97.0245 41.8777 97.9544 42.1432C97.8215 42.4751 98.0208 42.807 98.2865 43.0725C98.5522 43.2717 98.8179 43.4708 99.0172 43.7363C99.2164 44.0018 99.2164 44.4665 98.8843 44.5992C99.15 44.732 99.4821 44.732 99.7478 44.5992C99.7478 44.7984 99.7478 44.9975 99.7478 45.1967C100.346 45.3294 100.943 45.4622 101.541 45.5286C101.475 45.2631 101.608 44.9975 101.807 44.8648C102.272 45.2631 102.471 45.8605 102.405 46.4579C103.003 46.3915 103.534 46.7234 104.065 46.9889C104.597 47.1881 105.394 47.2544 105.66 46.7234C105.593 47.1881 105.992 47.6527 106.457 47.8519C106.922 48.051 107.387 48.051 107.918 48.1174C108.715 48.1838 109.512 48.3165 110.243 48.582C110.973 48.7812 111.837 49.1131 112.435 48.6484C112.634 48.5157 112.767 48.3165 112.966 48.3165C113.232 48.3165 113.365 48.582 113.498 48.7812C113.763 48.9803 114.095 49.0467 114.427 49.0467C115.424 49.1131 116.487 49.1795 117.483 49.2458C118.878 49.3122 120.14 50.3079 121.003 51.4364C121.336 51.8346 121.668 52.3657 122.199 52.3657C122.398 52.3657 122.664 52.2993 122.863 52.2993C123.461 52.4321 123.461 53.295 123.328 53.8924C124.258 54.4235 125.055 55.0873 125.786 55.8174C129.041 58.8045 132.362 61.7252 135.617 64.7123C136.281 65.3761 137.012 65.9735 137.676 66.6373C138.141 67.102 138.539 67.633 139.071 68.0977C139.536 68.496 140.001 68.7615 140.466 69.1598C142.06 70.4874 142.724 72.6779 143.123 74.7357C143.455 76.5943 143.388 78.5193 143.189 80.378C142.923 82.303 142.857 84.3607 143.787 85.9538C143.986 86.2857 144.252 86.6176 144.119 87.0159C144.053 87.1487 143.986 87.2814 143.853 87.4806C143.455 88.2771 144.518 89.2728 144.119 90.0694C144.053 90.2685 143.92 90.4013 143.787 90.5341C143.654 90.7332 143.654 90.9987 143.654 91.2642C143.588 93.0565 143.521 94.8487 143.521 96.5746C143.521 96.9729 144.119 97.0393 144.518 97.0393C145.912 97.0393 147.307 96.8401 148.569 96.4419C149.632 96.11 150.695 95.7117 151.691 95.9772C151.758 96.641 151.758 97.3712 151.824 98.035C151.359 98.3005 150.761 97.9686 150.695 97.4376C149.831 97.5703 149.499 98.6324 148.835 99.0307C148.437 99.2298 147.972 99.2962 147.639 99.5617C147.241 99.8272 147.108 100.425 147.507 100.69C147.639 100.757 147.839 100.757 147.972 100.823C148.37 100.956 148.569 101.487 148.569 101.951C148.569 102.416 148.437 102.881 148.569 103.279C148.702 103.677 149.3 104.009 149.632 103.744C149.433 104.208 149.765 104.806 150.23 105.005C150.695 105.204 151.293 105.071 151.758 104.872C151.758 104.673 151.824 104.474 151.824 104.341C151.625 104.208 151.359 104.076 151.16 103.943C151.891 103.345 153.219 104.341 153.883 103.611C154.016 103.478 154.083 103.279 154.282 103.146C154.415 103.08 154.614 103.08 154.747 103.08C155.81 103.08 156.806 103.146 157.802 103.279C157.869 103.013 157.537 102.814 157.204 102.682C156.872 102.549 156.607 102.283 156.74 102.018C156.806 101.885 156.939 101.885 157.138 101.819C157.603 101.752 158.002 101.752 158.467 101.752C158.467 102.084 158.931 102.084 159.264 102.084C160.127 102.151 160.592 103.013 160.991 103.744C161.19 104.142 161.522 104.54 161.987 104.474C162.053 104.739 161.854 105.005 161.655 105.204C160.791 106.001 159.662 106.399 158.467 106.332C158.334 107.262 158.068 108.324 157.204 108.722C156.872 108.921 156.474 108.921 156.142 108.921C154.149 109.054 152.09 109.253 150.429 110.448C149.632 111.045 149.034 111.842 148.636 112.771C147.905 111.842 147.042 110.846 145.846 110.846C145.58 111.776 147.241 112.439 147.042 113.369C146.975 113.634 146.776 113.833 146.709 114.099C146.643 114.364 146.709 114.696 146.975 114.696C147.174 116.289 146.444 117.883 145.912 119.409C144.916 118.148 143.588 117.152 142.126 116.555C141.993 116.489 141.794 116.422 141.728 116.489C141.528 116.555 141.595 116.82 141.595 117.02C141.861 118.679 142.06 120.272 142.326 121.932C142.458 122.662 142.525 123.326 142.79 123.989C142.857 124.255 142.99 124.521 143.056 124.786C143.189 125.516 142.658 126.18 142.259 126.711C141.528 127.574 140.864 128.437 140.134 129.366C140.067 129.698 140.134 129.897 140.134 130.296C140.134 130.428 140.067 130.561 140.001 130.627C139.868 130.76 139.669 130.694 139.469 130.694C139.27 130.694 139.071 130.827 138.871 130.959C137.875 131.756 137.078 132.752 136.215 133.681C135.218 134.809 134.222 136.004 133.159 137.133C133.358 137.398 133.558 137.664 133.757 137.929C133.159 137.929 132.495 137.929 131.897 137.996C130.635 139.589 129.174 141.115 127.579 142.377C124.59 144.766 121.402 147.023 118.147 149.015C117.749 149.28 117.284 149.546 117.018 149.944C116.487 150.674 116.487 151.603 116.155 152.466C115.889 152.002 115.357 151.736 114.826 151.736C114.427 151.736 114.095 151.803 113.697 151.935C109.911 152.798 105.992 151.471 102.073 151.338C101.94 152.666 101.475 154.126 100.346 154.856C99.9471 155.055 99.5486 155.188 99.15 155.387C98.685 155.653 98.2201 155.985 97.9544 156.449C97.6223 157.047 97.4894 157.644 97.3566 158.308C96.8916 160.83 96.3602 163.353 96.1609 165.941C96.6259 165.875 97.1573 166.34 97.0244 166.871C96.5595 166.804 96.0945 166.871 95.696 167.07C95.231 167.8 95.7624 168.663 96.4267 169.194C97.0909 169.725 97.888 170.123 98.1537 170.92C98.4193 171.517 98.2865 172.181 98.4194 172.779C98.5522 173.376 99.0836 174.04 99.6814 173.907C100.279 175.036 99.6814 176.429 99.0836 177.558C99.0172 177.691 98.8843 177.89 98.7515 177.956C98.4858 178.089 98.2201 177.89 98.0208 177.757C97.6223 177.492 97.2237 177.226 96.8252 177.027C96.1609 176.629 95.4967 176.164 95.1646 175.434C94.766 174.637 94.9653 173.708 95.0982 172.911C95.2974 171.849 95.4967 170.787 95.6296 169.725C94.766 169.792 93.8361 169.725 92.9726 169.592C92.5076 170.588 91.4448 171.185 90.3821 171.119C90.2492 171.451 90.5149 171.849 90.847 171.982C91.1791 172.115 91.5777 172.115 91.9098 172.248C92.0426 172.248 92.1091 172.314 92.1755 172.38C92.3748 172.646 92.0427 172.978 91.7105 173.044C91.1791 173.243 90.6478 173.442 90.0499 173.509C89.5185 173.642 88.9207 173.708 88.3893 173.509C87.8579 173.31 87.4594 172.779 87.5258 172.181C88.1237 171.982 88.6551 171.517 88.9872 170.986C88.2565 169.659 87.1273 168.53 85.7324 167.867C85.5331 167.734 85.3339 167.667 85.1346 167.535C85.0017 167.402 84.8689 167.269 84.6696 167.136C83.7397 166.34 82.2784 166.871 81.2156 166.34C80.817 166.141 80.5513 165.809 80.1528 165.61C79.7543 165.41 79.2893 165.278 78.9571 165.61C78.8243 165.742 78.7579 165.875 78.625 166.008C78.2929 166.406 77.7615 166.539 77.2301 166.406C77.4294 165.344 77.4294 164.216 77.1637 163.087C78.0272 162.622 78.9572 162.291 79.8871 162.158C80.3521 162.091 80.7506 162.025 81.2156 161.892C82.6769 161.494 83.8061 160.299 84.8025 159.237C84.9353 159.104 85.0681 158.972 85.0681 158.772C85.0681 158.573 84.8689 158.441 84.736 158.573C84.9353 157.91 85.7988 157.578 86.4631 157.644C87.1273 157.71 87.858 158.042 88.5222 158.175C88.9207 158.308 89.3857 158.374 89.8507 158.374C90.0499 158.374 90.3157 158.374 90.4485 158.241C90.5814 158.175 90.6478 157.976 90.7142 157.843C90.847 157.511 90.9799 157.246 91.1791 156.914C91.3784 156.516 91.5113 156.184 91.5113 155.785C91.5113 155.387 91.312 154.922 90.9799 154.79C91.6441 154.458 92.1755 153.86 92.4412 153.197C92.1755 153.064 91.8434 152.931 91.5113 152.931C91.1791 152.931 90.847 153.263 90.9134 153.528C90.6477 153.329 90.4485 152.931 90.3821 152.599C89.9171 152.732 89.3857 152.798 88.8543 152.666C88.3893 152.466 87.9908 151.935 88.1901 151.471C88.7879 151.272 89.4521 151.139 90.0499 150.94C89.4521 150.807 88.9207 150.674 88.3893 150.409C88.3893 150.209 88.3893 150.01 88.3893 149.811C89.2528 149.678 90.1164 149.612 91.0463 149.479C90.5813 149.081 90.2492 148.484 90.1164 147.886C90.05 147.687 90.0499 147.488 89.9171 147.355C89.7842 147.222 89.6514 147.156 89.5186 147.023C89.1864 146.824 88.8543 146.691 88.5222 146.492C88.2565 146.359 87.9244 146.227 87.6587 146.16C87.3266 146.16 86.9944 146.293 86.928 146.625C86.2638 145.098 84.0718 145.098 83.009 143.837C82.3448 142.974 81.9462 141.978 81.4148 141.049C81.2156 140.717 81.0163 140.319 80.6177 140.12C80.2856 139.921 79.7542 139.921 79.555 140.253C79.9535 139.456 79.4221 138.527 78.9571 137.73C77.8944 136.137 76.8316 134.544 75.7688 132.884C75.636 132.685 75.5031 132.42 75.3703 132.221C75.3039 132.021 75.2374 131.756 75.1046 131.623C74.8389 131.358 74.4403 131.358 74.2411 131.092C74.1082 130.893 74.1082 130.694 74.1082 130.495C74.0418 129.897 73.7097 129.433 73.3776 128.902C72.6469 127.773 71.9162 126.645 71.1191 125.583C70.7206 124.985 70.2556 124.321 69.5914 123.989C68.9272 123.658 68.1301 123.724 67.3994 123.79C67.6651 125.052 67.9972 126.446 67.5323 127.64C67.4658 127.839 67.3994 128.039 67.3994 128.171C67.4658 128.636 67.9972 128.902 68.2629 129.3C68.595 129.897 68.1301 130.694 67.5987 131.092C67.0009 131.49 66.3366 131.756 65.9381 132.353C65.6724 132.752 65.5395 133.283 65.141 133.482C64.7424 133.747 64.2775 133.615 63.879 133.747C63.414 133.88 63.0819 134.278 62.5505 134.411C61.6205 134.61 60.757 133.747 59.8935 133.814C59.6943 134.146 59.495 134.544 59.2957 134.876C58.8972 135.141 58.4322 134.809 58.1665 134.477C57.9008 134.146 57.6351 133.681 57.2366 133.548C57.1037 133.482 56.9709 133.482 56.838 133.415C56.7052 133.283 56.7052 133.083 56.6387 132.884C56.5059 132.088 55.3767 131.822 54.5796 132.021C53.7825 132.221 52.9854 132.685 52.1219 132.619C51.5241 132.552 50.8599 132.221 50.3949 132.619C50.3949 132.42 50.3949 132.221 50.3949 132.021C51.192 132.088 51.9891 131.49 52.0555 130.694C51.5905 130.827 51.2584 130.163 51.4577 129.698C51.7898 128.702 53.1183 127.906 52.7197 126.91C52.6533 126.711 52.5205 126.512 52.6533 126.379C52.7197 126.246 52.919 126.246 53.0518 126.18C53.6497 125.981 53.7161 125.184 53.5833 124.52C53.4504 123.857 53.1847 123.259 53.5168 122.662C53.9154 121.932 55.2439 122.064 55.4431 122.861C55.2439 123.06 55.111 123.392 55.0446 123.658C55.3103 123.79 55.5095 123.989 55.7752 124.122C55.576 123.193 56.3066 122.197 57.2366 122.197C58.1665 122.197 58.8971 123.326 58.4986 124.122C59.03 124.255 59.7607 124.189 59.8935 123.658C59.96 123.392 59.8271 123.127 59.8935 122.927C60.0264 122.529 60.5578 122.396 60.9563 122.529C61.3548 122.662 61.6205 122.994 62.0191 123.193C62.8826 123.658 63.9454 123.326 64.8753 122.994C65.2739 122.861 65.6724 122.728 66.0709 122.595C66.4031 122.264 66.0709 121.666 65.7388 121.334C65.4067 121.002 64.9417 120.737 64.8089 120.272C64.8089 120.139 64.8089 119.94 64.8089 119.808C64.9417 118.945 65.5395 118.214 66.2702 117.816C66.4695 117.75 66.6023 117.683 66.7352 117.551C67.0009 117.285 66.9345 116.82 66.868 116.489C66.7352 115.958 66.6688 115.426 66.5359 114.829C66.0045 111.908 62.949 109.983 61.2884 107.461C60.8899 106.863 60.4913 106.2 60.4249 105.47C60.2921 105.337 60.0928 105.204 59.9599 105.071C60.3585 105.071 60.4249 104.407 60.0928 104.142C59.7607 103.876 59.3621 103.81 59.03 103.544C58.4986 103.08 58.565 102.217 58.6979 101.487C59.03 101.42 59.3621 101.354 59.6278 101.354C59.1629 100.093 58.6979 98.8315 58.2329 97.5039C58.1001 97.1057 57.9672 96.7074 57.9008 96.3091C57.768 95.6453 57.9008 94.9151 58.0336 94.2513C58.2993 92.5918 58.3658 90.866 58.1665 89.1401C57.2366 88.078 56.2402 86.9495 55.2439 85.9538C55.3103 86.4849 55.1774 87.0159 54.9781 87.4806C54.8453 87.9452 54.646 88.4099 54.3803 88.7418C54.0482 89.0737 53.5833 89.3392 53.1183 89.1401C52.7862 89.0073 52.5205 88.6754 52.2548 88.4099C51.9891 88.1444 51.5241 88.0116 51.2584 88.2771C51.3913 88.6754 51.4577 89.1401 51.4577 89.6047C50.5942 89.8039 49.7307 89.6047 49 89.2065C49.3321 88.609 50.4613 88.9409 50.727 88.3435C50.7934 88.1444 50.7934 87.9452 50.8599 87.7461C51.0591 87.0159 51.9226 86.8168 52.3876 86.2194C52.7861 85.7547 52.7862 85.0909 53.1847 84.6263C53.5832 84.1616 54.2475 83.9625 54.5132 83.4314C54.646 83.1659 54.7124 82.9004 54.7124 82.5685C54.8453 81.7055 54.9117 80.909 55.0446 80.0461C55.7088 80.7099 56.5059 81.1081 57.3694 81.3736C58.1665 81.5728 59.1628 81.5064 59.495 80.7762C59.6942 80.3779 59.6278 79.8469 59.8935 79.515C60.0928 79.2495 60.4249 79.0504 60.3585 78.7848C60.292 78.5857 60.0928 78.4529 59.8935 78.3866C59.2293 78.0547 58.6979 77.3245 58.6979 76.5279C58.6979 75.9969 58.9636 75.3331 59.5614 75.3331C60.1592 75.3331 60.5577 76.196 61.1556 76.1296C61.5541 76.1296 61.8862 75.7314 61.9527 75.2667C62.0191 74.8684 61.9527 74.4038 61.9527 74.0055C62.0191 72.5451 63.1483 71.1512 62.7497 69.7572C61.9527 70.0891 61.0227 69.0934 60.1592 69.2925C59.8935 69.3589 59.6942 69.4253 59.495 69.558C58.0336 70.3546 56.5723 71.2839 55.1774 72.2132C55.2438 71.5494 54.1811 71.2839 54.1811 70.6865C54.1811 70.2218 54.7789 69.8236 54.646 69.4253C54.2475 69.027 53.5833 69.027 53.2511 68.5623C53.1183 68.4296 53.0519 68.2304 52.9854 68.0313C52.7862 67.4339 52.5205 66.8365 52.3212 66.2391C52.9854 66.2391 53.5833 65.8408 53.7825 65.177C54.0482 65.177 54.3139 65.177 54.5796 65.177C54.2475 64.7123 53.6497 64.7123 53.0518 64.6459C52.5204 64.5796 51.8562 64.1813 51.9891 63.6502C52.0555 63.3184 52.3876 63.1192 52.5205 62.8537C52.7197 62.5218 52.7197 62.1235 52.7862 61.7916C52.8526 61.1278 52.9854 60.464 53.2511 59.8002C53.3176 59.6011 53.384 59.4019 53.5833 59.3356C53.7825 59.2028 54.0482 59.2692 54.1146 59.4683C53.9818 59.07 54.3803 58.7381 54.7789 58.6054C55.1774 58.4726 55.576 58.539 55.9745 58.3399C56.2402 58.2071 56.4395 57.9416 56.7052 57.7424C57.1037 57.4105 57.6351 57.2778 58.1665 57.145C58.6315 57.0123 59.0964 56.8795 59.5614 57.0123C60.0264 57.145 60.4249 57.6761 60.2256 58.0743C60.1592 58.2735 60.0264 58.4062 59.9599 58.539C59.7607 59.07 60.2921 59.6011 60.0928 60.1321C59.8935 60.6632 58.9636 60.9287 59.0964 61.4597C59.0964 61.5925 59.2293 61.6589 59.2957 61.7916C59.6942 62.2563 60.2256 62.7209 60.757 62.5218C60.8235 62.1899 60.8899 61.7916 60.8899 61.4597C61.2884 61.5261 61.687 61.5925 62.0855 61.6589C62.2848 60.6632 62.4841 59.6675 62.4176 58.7381C62.3512 58.4062 62.2848 58.008 62.4176 57.6761C62.6169 57.2778 63.0154 57.0786 63.3475 56.8131C63.9454 56.4149 64.4768 55.8174 64.8089 55.1536C63.4804 54.2243 61.7534 54.0916 60.2256 53.5605C59.6278 53.3614 59.03 53.0295 58.8307 52.4321C58.6315 51.901 58.8971 51.3036 59.1628 50.7726C59.03 50.7062 58.8972 50.6398 58.7643 50.5734C58.565 50.1088 59.495 49.9096 59.5614 49.3786C59.6278 48.9803 59.1629 48.7812 58.7643 48.7148C58.3658 48.6484 57.9008 48.6484 57.7015 48.3165C57.5687 48.1174 57.5687 47.8519 57.5687 47.5863C57.5687 47.3208 57.3694 47.0553 57.1037 47.0553C56.9709 46.7898 57.2366 46.3251 57.1701 46.0596C57.1701 45.9269 57.1037 45.8605 57.0373 45.7941C56.9044 45.5286 56.838 45.263 56.9045 44.9311C57.1037 44.8648 57.303 44.7984 57.5022 44.6656C57.6351 44.5993 57.768 44.5329 57.9008 44.4665C58.1665 44.201 58.1665 43.8027 58.1665 43.4708C58.1001 42.7406 58.0336 41.9441 58.0336 41.2139C58.0336 41.1475 58.0337 41.0147 58.1001 40.9484C58.1665 40.882 58.1665 40.882 58.2329 40.8156C58.8307 41.1475 59.3621 40.9484 59.8271 40.7492Z" fill="url(#paint0_linear)"/>
<defs>
<filter id="filter0_d" x="14" y="17" width="173" height="174" filterUnits="userSpaceOnUse" color-interpolation-filters="sRGB">
<feFlood flood-opacity="0" result="BackgroundImageFix"/>
<feColorMatrix in="SourceAlpha" type="matrix" values="0 0 0 0 0 0 0 0 0 0 0 0 0 0 0 0 0 0 127 0"/>
<feOffset dy="4"/>
<feGaussianBlur stdDeviation="2"/>
<feColorMatrix type="matrix" values="0 0 0 0 0 0 0 0 0 0 0 0 0 0 0 0 0 0 0.25 0"/>
<feBlend mode="normal" in2="BackgroundImageFix" result="effect1_dropShadow"/>
<feBlend mode="normal" in="SourceGraphic" in2="effect1_dropShadow" result="shape"/>
</filter>
<linearGradient id="paint0_linear" x1="105.5" y1="29" x2="105.5" y2="178" gradientUnits="userSpaceOnUse">
<stop stop-color="#23844A"/>
<stop offset="1" stop-color="#B4E3AD"/>
</linearGradient>
</defs>
</svg>
