<svg width="200" height="200" viewBox="0 0 200 200" fill="none" xmlns="http://www.w3.org/2000/svg">
<g filter="url(#filter0_d)">
<ellipse cx="99.5" cy="100" rx="69.5" ry="70" fill="white"/>
<path d="M99.5 176.5C141.517 176.5 175.5 142.206 175.5 100C175.5 57.7942 141.517 23.5 99.5 23.5C57.4825 23.5 23.5 57.7942 23.5 100C23.5 142.206 57.4825 176.5 99.5 176.5Z" stroke="#ECECED" stroke-width="13"/>
</g>
<path d="M166.597 71.4006H167.393L166.756 70.526L167.552 70.2079L166.438 69.8899L166.159 69.3333L164.925 69.4128L164.965 68.8165L164.527 68.2997L164.209 67.6239L163.811 67.1468L163.294 67.0673L163.453 66.9878L163.095 66.7493L162.776 67.1071L162.577 67.1468L162.657 66.5903L161.941 66.3915L161.821 66.471H161.423L161.304 67.0673L161.622 67.2263L161.901 67.0673L162.1 67.2263L162.14 67.4251L161.344 67.5841L161.105 67.2263L160.389 67.6239L159.831 67.5046L159.314 67.8227L158.399 68.1009L158.319 67.9022L157.842 67.9419L157.762 68.419L157.842 68.578L157.165 68.7768L156.847 68.6575L156.767 68.2202L156.807 68.0612L155.812 68.1009L154.777 67.6239L154.578 67.3059L154.777 66.5505L155.016 65.7952L155.454 65.0796L156.25 64.7616L157.125 63.887L158.24 64.046L157.921 62.6943L158.24 62.4955L157.961 62.0185L157.722 62.3763L155.295 63.2509L153.305 63.5292L152.947 63.3304L152.708 62.5751L152.787 57.2479L153.146 56.6118L152.668 56.3733L152.589 55.3795L152.35 51.1655L152.23 49.5753L152.628 49.0187L152.23 48.7802L152.031 47.8261L151.872 47.19L151.514 46.5142L151.196 46.1166L151.156 45.7588H150.798L140.053 35.9792L140.013 35.9394L139.456 35.4624V34.7865H138.779L138.341 34.389L137.466 33.6337L136.75 33.1566L136.073 32.8386L135.675 32.7591L135.556 32.5603L135.118 32.2025L134.919 32.6L134.362 32.5603L133.606 32.5205L133.088 32.0435H132.889L132.531 32.4808L130.701 32.2422L129.109 31.9242L126.84 31.2086L125.646 30.6918L123.458 29.6582L123.219 29.3004L123.1 29.4992L121.667 29.2209L119.558 29.6184L120.075 27.2332L120.234 24.6889L120.951 24.6491L120.831 23.854L121.229 23.7745V22.8204L120.513 22.8601L120.433 20.9122L122.503 21.1904C122.503 21.1904 122.503 20.7134 122.463 20.5146C122.423 20.3158 122.224 19.8785 122.224 19.8785L121.786 20.0376L121.388 19.6798L119.438 20.8724L118.762 19.64L117.568 20.3954L118.125 22.065L115.379 22.7011L117.249 30.016H117.21L116.095 30.334L115.538 30.6521L112.514 33.0771L111.837 33.6337L111.2 33.9517L111.121 33.7132L110.882 33.9119V34.1107L109.927 34.5083L109.25 34.7865L108.176 34.9456L107.101 35.0251L106.266 34.8263L106.067 35.3829L105.669 35.6611L105.868 36.178L107.022 37.1718L107.579 37.4501L107.619 38.3645C107.977 39.4378 108.295 40.3919 108.654 41.3858L108.932 42.1014L109.489 43.3735L109.648 43.7313L109.489 43.4133L108.932 42.1412L108.494 40.9883L107.619 38.3645L107.579 37.4501L107.022 37.1718L105.868 36.178L105.669 35.6611H105.629L104.117 36.4562L103.918 36.0984L103.599 35.8997L102.167 35.5021L102.207 35.3829H102.167L102.366 34.548L102.525 34.6275L102.087 34.389L101.888 33.9119V33.8324V33.7927V33.2759L101.251 31.4074L100.575 31.2484L100.296 31.0894V30.9701L100.058 28.7438L100.097 29.1811V29.0221L101.331 28.1475L100.774 27.4717L100.694 26.8356L101.371 25.0069L102.246 25.484L102.445 25.4044L102.565 25.1262L102.445 25.0864L102.127 23.8938L101.848 23.6155L102.485 22.1048L103.599 22.065L103.759 21.5482L103.719 21.2302L103.878 21.0314L103.679 20.8724L103.599 20.4351L103.241 20.3954L103.122 20.0773L102.565 20.3954V20.1966L102.207 20.3158L102.286 20.5146L102.167 20.7929L100.535 21.5085L100.376 21.27L100.535 20.7929L100.177 20.7134L100.018 20.5146L99.381 20.5941L99.4208 20.9519L99.1024 20.9122L98.4657 20.3556L98.6249 20.0376L96.6351 19.9183L96.4759 19.9978L96.5555 20.1966L96.3565 20.2363L95.9585 20.9519L95.5208 20.5544L95.3218 20.6736L95.0432 20.1966L95.1228 20.0376L95.0432 19.8388H94.6055L94.5657 19.7195L93.9687 20.3556L94.0483 20.5941L93.9289 20.8724L94.8442 22.3433L95.9983 23.4167L95.6004 23.854L94.7646 23.3372L94.0483 24.013L93.1728 24.4901L93.8891 24.6889L94.4463 25.5237L94.8044 26.12L94.8442 26.5971L95.3616 26.7959L95.6004 26.5573L95.5208 26.0405L96.3565 25.3647L98.7443 27.2332L98.0279 27.5114L97.4708 28.2668L97.1922 28.4258L97.7096 29.1414L97.829 29.6184C97.8688 29.6184 97.8688 29.6582 97.9086 29.6582L97.8687 29.6979L97.9086 29.7775L97.5106 30.0557L97.8687 30.6123L97.829 30.6521L97.8687 30.7316L97.7494 30.8508L96.9137 31.2086L97.4708 31.7254L97.431 31.8049L97.4708 31.8447L97.3116 32.3218L97.431 32.5603L98.3065 32.3615L98.6647 32.9181L98.6249 32.9578L98.6647 33.0373L98.1075 33.3554L98.1473 33.4349V33.5144L98.1871 33.5541L98.1075 33.8722L98.3065 34.1107L98.2667 34.1505L98.3065 34.1902L97.9086 34.8263L98.1473 35.2636L98.5055 35.2238L99.0228 35.7009L99.2616 36.1382L100.575 36.9333L100.933 37.0526L102.047 37.9272L102.008 38.0067L102.047 38.0464L101.132 39.4776L100.654 40.9485L100.376 40.7895L100.058 40.9485L99.6994 40.5907L99.4606 40.869L99.0626 40.9485L98.8239 41.0678L98.5453 40.8292L98.3861 40.869V40.7497L98.3463 40.4715L98.7045 39.7956L98.8636 39.6764L98.7045 39.3583V39.3186L98.6647 39.2391L98.8239 38.921L98.6249 38.6427V38.603L98.5851 38.5632L98.7443 38.1657L98.4657 38.1259L97.9881 38.3247L97.3912 38.2054L96.7147 38.2849L95.4412 39.1993L94.5657 39.7956L94.3667 40.0739L94.1677 40.7895L94.2473 41.6243L93.8891 42.2207L93.3718 42.5785L93.4116 42.6977L95.282 43.135L95.2422 43.2145H95.282L95.0034 43.8904L94.2473 43.9301L94.2871 44.1686L94.7646 44.6059L94.7249 44.6457L94.8044 44.6855L94.5657 44.9637L95.1626 45.7588L95.1228 45.8383L95.1626 45.8781L95.0034 46.3949L95.4412 47.9056L96.1177 47.5478L95.8391 46.9912H95.8789L95.8391 46.872H96.2769L96.3565 47.349L96.7545 47.6273L96.8341 47.3093L97.3116 46.4744L98.5851 45.8383L99.8984 45.9178L100.495 46.1166V46.1961H100.535L99.9779 50.1318L99.6198 50.0523L99.58 50.2511H99.5402H99.4208L99.2616 50.2113L99.3014 50.0126H99.1422L99.182 49.9331L99.2218 49.8933L99.1422 49.8536L99.1024 49.8138L99.0626 49.7343L99.0228 49.6945L98.9432 49.615L98.8239 49.7343L98.6647 49.6548L98.5453 49.615L98.2667 50.3306L98.4259 50.4499V50.5691L98.4657 50.6486V50.8474L98.4259 51.0064L98.3861 51.4835H98.4259V51.5233L98.5453 51.563H98.5851L98.6249 51.4437L98.6647 51.404L98.784 51.2847L98.8636 51.3245L98.9035 51.2847L98.8239 51.245L98.9035 51.1257V51.086V51.0462H98.9432H99.0228H99.0626H99.1024H99.1422H99.182L99.2616 50.8474L99.1024 50.7679L99.1422 50.6089L99.2616 50.3704V50.3306H99.3014H99.381V50.2511H99.4208L99.6994 50.2909H99.779V50.4101L99.8984 50.6486L100.018 50.8077L99.1422 52.4774L98.5851 53.4712L98.3065 53.9483H98.2269L97.9086 54.0278L97.8687 53.988L97.7096 54.1868H97.6698L97.4708 54.1073L97.1524 53.988L97.033 53.9483L96.8341 53.8688L96.7147 53.829L96.5157 53.7098L96.3963 53.6302L96.3167 53.5507L96.2371 53.511L96.1973 53.4712L95.9983 53.3122L95.7198 53.0737L95.8391 52.9544H95.9187H96.0779H96.1177L96.2769 52.6364L96.3167 52.5966L96.7545 52.3581L96.9932 52.1196L96.9534 51.881L96.9137 51.8015C96.9137 51.8015 96.7942 51.7618 96.7942 51.6823L96.7545 51.6425L96.7147 51.6028L95.7993 51.0462L95.6004 51.0064L94.9636 51.3642L94.6453 51.6028L94.2075 51.9606L94.0881 52.1593L94.0483 52.3979V52.4376C93.8891 52.3979 93.9687 52.4376 94.0483 52.4376L93.7697 52.3979L93.5708 52.3581L93.3718 52.3183H93.2922L93.133 52.2786L92.7748 52.2388H92.6156L92.5361 52.2786H92.4565V52.3183H92.4167H92.3371L92.2177 52.3979L92.0187 52.5171H91.8595H91.8197L91.7799 52.7556L91.581 52.7954H91.5014H91.4616H91.4218H91.382H91.3422H91.3024H91.2626L91.183 52.8352H91.1432L91.0636 52.8749V52.9147H91.1034L91.2228 52.8749V53.0339V53.1532L91.2626 53.1134L91.3024 53.0737H91.3422H91.382H91.4218L91.382 52.9942H91.4218L91.4616 53.0737V53.1134L91.5014 53.2327L91.6207 53.1532V53.1134V53.0737H91.6605L91.7799 52.9942L91.8197 52.9544V52.9942V53.0339L91.7799 53.1134H91.8197H91.8595H91.8993L91.9391 53.1532V53.2327H91.9789H92.0187H92.0585H92.0983L92.1381 53.1929L92.1779 53.1532H92.2177H92.2575H92.2973L92.2575 53.1134V53.0737L92.3371 53.0339L92.3769 52.9942H92.4167L92.4565 52.9544H92.4963H92.5361L92.5759 52.9942L92.6156 53.0339H92.6554L92.735 53.0737H92.8146L92.8942 53.1134L92.934 53.1532V53.1929V53.2327L92.8942 53.2725H92.8544L92.8942 53.2327L92.8544 53.1929H92.8146L92.7748 53.1532H92.735V53.1929L92.6952 53.1532L92.4963 53.3122V53.352L92.3371 53.4712L92.1381 53.5905H92.0187V53.6302L91.7003 53.8688L91.7401 53.9085L91.7799 53.9483L91.8197 53.988H91.8595L91.8993 54.0278H91.8197H91.7799H91.7003H91.6605H91.5014H91.4616H91.3422L91.2228 54.0676L91.183 54.1073V54.1471L91.2228 54.2266L91.3024 54.3061L91.4218 54.3458L91.4616 54.3856V54.4253L91.5014 54.5049L91.5412 54.5446L91.581 54.6241L91.6207 54.6639L91.6605 54.8229L91.7003 54.9024V54.9422H91.581V54.9819H91.5014L91.382 55.0217L91.3422 55.1807L91.3024 55.2602V55.2999V55.3397L91.2626 55.459V55.4987V55.5385V55.5782V55.618L91.2228 55.6577V55.6975L91.3422 55.777L91.382 56.6118L91.5014 56.6914L91.5412 56.7311V56.6118L91.5014 56.095V55.936V55.8168V55.5782V55.4987V55.3795L91.581 55.4192L91.6207 55.459L91.6605 55.4987L91.7799 55.5782L92.0585 55.7372L92.5759 56.0155L92.8544 56.2143L93.2126 56.4528L93.2524 56.4926L93.133 56.8106L93.0534 56.8504L92.8942 56.8901L92.8146 56.9696V57.0094L92.7748 57.0492V57.0889V57.1287L92.735 57.1684L92.8146 57.2082L92.7748 57.2479L92.735 57.2877L92.6952 57.3274L92.6554 57.2877L92.2973 57.4865L91.8197 57.7647L91.581 57.6852L91.3422 57.6057H91.2626L91.1432 58.3213L91.1034 58.4803L90.984 58.5598L91.1432 58.6791L91.3422 58.7984L91.4616 58.8779H91.8993L92.2575 58.7984L92.2973 58.9176L92.4565 59.3549L92.735 59.3152H92.8544H93.0136H93.2126H93.2524H93.3718L93.4912 59.2754L93.6105 59.1959L93.8095 59.1561V59.1164H93.8493V59.0369H93.8095V58.9971V58.7586V58.4803V58.4406L93.8493 58.3611L94.3667 58.5201L94.5657 58.4803L94.7249 58.5996L94.6851 58.6393L94.8044 58.6791L94.5657 58.9176L94.7249 58.9574L95.282 59.0369V58.8381V58.7984H95.3218L95.4014 58.8381H95.481H95.5606L95.6004 58.7984L95.6402 58.7188H95.68L95.7198 58.6791L95.7595 58.5598L95.9585 58.202L95.9983 58.1225L96.0779 58.043L96.1973 57.9238V57.8442V57.8045L96.1575 57.3672V57.1684L96.1177 57.1287L96.1575 57.0889L96.1177 57.0492L96.3565 56.7709L96.5157 56.6118L96.6351 56.4528L96.7147 56.3733L96.7545 56.3336L96.8341 56.2541V56.2938V56.3336V56.3733L96.8738 56.3336L96.9932 56.1745L97.1126 56.0553V56.0155L96.9534 55.8565L97.232 55.6577L97.5902 55.459L97.7891 55.3397L97.8687 55.2999L97.9483 55.2602L98.1075 55.1409L98.2269 55.1012L98.1473 55.2999H98.1871L98.3861 54.9024L98.0677 55.5385L97.9881 55.8565L97.8687 58.1623V58.2815H97.6698L97.3514 58.0033L97.2718 58.3611L97.5902 58.5598L97.5106 58.8381L97.829 59.0766L97.8687 59.3549L97.5106 59.673L97.5504 60.0705L97.7096 60.3885V63.6087L98.4657 66.5108L98.3463 66.9878L98.6249 67.2263L99.5004 69.7309C99.6596 70.2477 99.6994 70.4465 99.6994 70.4862C99.6994 70.526 99.7392 70.6452 99.8188 70.9633L100.615 72.0764C100.456 72.1559 100.853 71.9571 100.455 72.1559L99.9381 72.474L99.9779 72.5535L99.9381 72.5932L100.177 72.7125L100.137 72.7522L100.177 72.792L100.137 72.8715L100.058 72.951L99.9779 73.0305L100.257 73.3088L100.376 73.4678L100.336 73.5076L100.257 73.5473L100.217 73.5871L100.097 73.6666L100.058 73.6268L99.8984 73.4678L99.7392 73.5871L99.58 73.7064L99.182 73.4281L98.983 73.5473L98.8239 73.6666L98.8636 73.7461L98.8239 73.7859L98.784 73.7064L98.7443 73.7461V73.7064V73.3486V73.1895V72.7522V72.5137V72.3944V72.1559V72.0367V71.9571V71.7584V71.6789V71.6391V71.5994V71.5198L98.7045 71.4006L98.6647 71.2813H98.5851L98.5055 71.1223V71.0825H98.4657H98.3861H98.3463L98.2269 71.1223H98.1871H98.1473H98.1075H98.0677H97.9881L97.8687 71.162L97.6698 71.2416L97.4708 71.3211L97.2718 71.4006L97.3116 71.4801L97.3514 71.5596L97.3912 71.5198H97.431H97.4708H97.5902V71.4801H97.6698V71.4403H97.7891L97.7494 71.6391H97.63L97.5106 71.6789H97.3514L97.3116 71.7186L97.3514 71.7981L97.3912 71.8379L97.4708 71.9571V71.9969L97.5106 72.0367L97.5504 72.0764L97.5902 72.1162L97.6698 72.2354V72.2752L97.9086 72.1957L97.9483 72.2354V72.2752L97.7096 72.3547V72.3149L97.63 72.3547L97.6698 72.474H97.7891V72.5137L97.5106 72.5932L97.4708 72.4342L97.431 72.474V72.5535L97.3912 72.5932L97.3514 72.633H97.2718L97.3116 72.6727L97.3514 72.7125H97.3912V72.7522V72.792H97.2718L97.1922 72.7125V72.6727H97.1524V72.8715H96.9534L96.9932 73.1895L96.5555 73.2293L96.5157 73.0703H96.4361H96.3963H96.3167V72.9113V72.8715H96.0381L95.9983 72.633L96.1177 72.5535V72.5137V72.4342L96.3963 72.1559L96.3565 72.1162L95.9983 72.3944L95.8789 72.474L95.7993 72.5137V72.5932V72.9113L95.282 73.3486L95.2024 73.3088L95.083 73.2691V73.2293V73.1895L95.0432 73.2293L94.9636 73.3486L94.8442 73.7064L94.8044 73.9051L94.7646 74.0244V74.1834V74.3027L94.9238 74.6207V74.7797V74.8195V74.8592H94.8442H94.8044H94.7646V74.899H94.7249H94.6851L94.4861 74.9387V74.9785H94.4463L94.4065 75.0183V75.0978H94.3667V75.058V75.0183V74.8592L94.2871 74.7002V74.6207L94.3667 74.3822V73.9846L94.2871 73.8256H94.2473L94.1279 74.0244L93.9687 74.2232L93.7697 74.5014L93.6504 74.7002L93.5708 74.8195L93.4912 74.899L93.4514 74.9387L93.332 75.1375L93.2922 75.1773L93.7697 75.4158L93.73 75.5351L93.8891 75.6543L93.8095 75.7338L93.6105 75.5748L93.4116 75.8134L93.0534 75.6146L92.9738 75.5748L93.1728 75.3363L93.2126 75.2965V75.2568L93.332 75.0978L93.2922 75.058L93.0136 75.4556L92.934 75.5351H92.9738L93.2922 75.6941H93.332L93.3718 75.7338L93.4514 75.7736L93.531 75.8134L93.6504 75.8531H93.6901L93.8095 75.8929L93.8493 75.9326H93.8891L94.2075 76.0916L95.3218 76.6482H95.3616L95.5606 76.4097L95.68 76.2506L95.7595 76.2904L96.2769 76.6084L96.4361 76.4097L96.6749 76.0916L96.7545 76.1314L96.9137 75.9326L97.1126 75.6146L97.033 75.5351L96.9534 75.4556L96.8738 75.376L96.7942 75.2965L96.6351 75.1375L96.5555 75.058L96.4759 74.9785V74.9387V74.899V74.8592V74.8195L96.5157 74.7797L96.5555 74.6605L96.5953 74.581H96.5555H96.5157H96.4759L96.5157 74.5014L96.5555 74.4219V74.3822L96.5953 74.2629V74.1437L96.6351 74.1039L96.6749 74.0641L96.7545 73.8256H96.7942L96.9137 73.8654V73.9449L97.1524 74.1039L96.9932 74.3027L97.5106 74.5412L97.5504 74.4617L97.5106 74.4219L97.3912 74.3424L97.4708 74.1437L97.5902 74.0244L97.7096 74.1039L97.7891 74.1437L97.8687 74.0244L97.9881 73.8654L98.5851 73.9846V74.0244L98.4657 74.1834L98.6647 74.2629L98.8636 74.3424L98.9035 74.3027L99.1422 74.0244L99.6198 73.6666L99.6596 73.7064L99.8188 73.5871H99.8586V73.5473V73.5076V73.4678V73.4281L99.8984 73.3883L99.9381 73.3486L100.018 73.3088H100.058L100.137 73.2691L100.575 72.951L100.933 73.2691L100.973 73.2293V73.11L101.013 73.0305L101.052 72.9908H101.132H101.291L101.251 72.792L101.212 72.7125L101.172 72.6727L101.132 72.5932H101.172L101.251 72.6727L101.291 72.7125L101.331 72.7522L101.371 72.9113V72.9908V73.0305H101.411L101.49 72.9113L101.769 72.8317H101.809L101.848 72.792L101.928 72.6727L101.968 72.7125H102.008L103.162 74.4219L103.639 76.0916L103.48 76.1314L103.759 76.4494V76.4892L102.644 77.165L102.684 77.6421L102.326 77.8408L101.729 78.7552L102.167 79.0335L102.445 79.3913L102.843 79.5503L103.042 80.0273L102.087 80.5044L101.052 80.8224L100.097 80.5839L99.7392 79.8286H98.784L98.7045 80.9417L98.6249 81.1802L97.829 81.1405L97.6698 81.061L97.7096 79.6695L97.5902 79.5105L96.8341 79.5503L95.7198 80.9417L95.3616 80.7032L95.4412 80.6237C95.3616 80.5839 95.3616 80.5044 95.5208 80.4249C95.5606 80.3056 95.7993 80.2261 95.8391 80.1069L95.7595 79.9478L95.3616 79.7491L95.1228 79.7888L94.8044 79.431L93.9687 79.272L92.0983 78.954L91.8993 79.6298L92.6554 80.2261L92.5361 81.7766L91.4616 81.697L91.382 82.6511L90.5463 82.8897L89.6309 82.3331H89.034H88.9942V81.6175H89.1534L89.2728 81.5778V81.2597L89.3126 81.1802L89.2728 81.061L89.1932 81.1007L89.0738 80.9417L88.7952 81.0212L88.9146 81.6175H88.9544V82.3331H88.5564L88.1983 82.2138L87.4024 81.9356L86.7258 81.9753L86.3677 82.1343H85.3728L84.537 82.6909L83.8207 83.2872L83.1044 83.9631L82.587 84.8377L82.8656 85.434L82.9452 85.7918L82.4676 86.5471L81.2737 87.7L80.5972 87.3422L80.1992 87.9385L79.6023 87.3422L78.3288 87.6205L77.6921 87.7397L76.8961 88.177L77.0156 89.4492L76.3788 89.807L76.0207 90.3636L75.9411 90.5623L73.5533 90.8406L73.0359 89.8467L72.5186 89.4492L71.8421 89.8865L71.1655 90.6021L71.2053 91.2382L71.1655 92.2718H70.4492L69.4543 90.9201L67.1063 91.914L67.2655 93.1464L66.4298 92.8681L66.6287 93.7427L65.793 94.0607L67.4247 97.3206L69.2951 99.6264L69.3747 100.223L69.6135 101.733L69.7328 102.409L68.7777 103.006L68.5788 104.596L69.6533 105.192L69.5339 106.106L69.0165 106.424L69.1757 110.241H71.2451L70.8073 113.063L69.7726 113.461L69.892 115.528L70.9665 116.443L70.7676 118.192L67.8226 118.788L65.7134 118.589L65.5145 119.424L72.7971 125.467L72.24 126.023L70.9665 125.069L70.489 124.712L69.6135 124.791L68.6981 125.268L67.8624 125.308L67.8226 124.751L67.7828 124.155L68.0614 123.479L67.3053 123.519L65.3951 124.871L65.1961 123.996L64.3206 123.161L64.2808 122.565L62.1318 121.929L62.2114 120.458L59.5052 120.06L59.5848 121.054L58.9481 121.69H57.7144L57.595 124.036L55.7246 123.32L55.6052 122.326L54.7695 121.65L54.5705 120.975L53.9338 120.855L53.8144 121.134L53.3766 121.094L53.098 121.531L52.2623 121.491L53.0184 113.898L48.2429 113.103L48.6807 109.684L46.5317 108.81L46.4919 110.877L34.8316 110.281L34.6326 118.828H33.1204L32.8418 124.155L34.354 125.228L35.4285 127.971L37.1398 128.608L36.2643 129.721L39.3684 132.543L37.7765 134.213L39.2092 135.763L38.453 136.558L43.9449 141.886L45.0592 142.124L45.1388 142.522L46.9296 144.668L47.646 145.543L48.2031 147.133L49.795 148.763L50.2327 148.286L52.6205 150.393L52.8593 151.188L52.5409 152.858L52.9389 153.096L52.3419 153.892L53.894 155.323L55.247 155.402L56.2817 155.601L56.1226 156.436L57.0379 156.555L57.0777 156.992L52.5011 158.026L51.9837 159.974L51.7052 159.855L51.1878 160.212L49.7552 159.735L48.2827 160.252L48.6011 161.127L47.7654 163.035L48.3225 163.671L48.0041 164.307L47.2082 163.83L46.4123 165.102L47.3674 165.381L47.248 166.812L47.4072 169.793L48.6807 170.628L48.4817 171.543L49.6358 173.57L51.1082 177.625L52.1031 177.068L52.6205 177.625L53.098 177.347L53.8542 177.426L54.2123 177.227L54.9287 177.188L55.1277 176.949L54.8491 178.341L55.1277 178.142L55.247 181.243L54.3715 181.919L54.5307 182.714L54.8889 182.833L55.3266 182.555L55.5654 182.873L55.7644 183.668L56.6001 184.145L56.8787 185.099L58.0328 185.139L60.3807 185.178L60.4603 184.224L65.8328 183.986L65.793 182.952L69.4941 182.475L69.6533 180.885L70.7277 180.726L71.0461 181.561L71.8022 180.607L72.9165 180.925L72.7574 176.432L73.5533 175.001L73.6727 174.325L72.5584 174.564L72.9165 171.225L73.0359 171.145L72.5584 170.429L72.638 167.567L73.4737 167.845L74.9859 166.613L75.9411 166.891L77.5727 165.381V164.466L78.0105 163.91L79.0054 163.313L80.438 164.347L80.4778 165.142L81.8309 165.937L82.1493 165.5L82.7064 165.579L84.8156 165.5L85.6911 163.592L84.736 162.518L85.0146 162.081L87.1238 163.87L87.4024 165.659L88.3973 165.341L88.5166 167.011L87.8401 167.488L87.8799 168.959L90.4268 169.833L90.6258 168.124L92.5361 168.004L92.6156 166.573L95.2422 165.897L101.132 163.472L102.565 155.959L103.201 155.72V155.084L102.127 154.846L102.366 154.488L102.286 154.011H101.53L101.57 153.812L101.331 153.693L101.411 153.136L100.217 153.255L99.6596 152.977L99.779 152.46L100.217 151.824L99.58 150.791L99.8984 150.234L100.575 150.353L100.814 150.711L102.207 151.466L102.684 150.91H104.196L104.793 149.916L104.475 148.644L103.48 147.213L102.087 145.98L103.321 145.305L104.157 144.311L104.196 143.078L106.823 142.363L104.714 140.216L105.908 138.546L107.181 138.109L107.659 137.155L108.096 137.393L108.136 138.546L108.892 139.659L109.847 138.665L109.489 137.552L110.086 136.837L109.449 135.207L110.206 134.77L109.529 133.537L110.365 133.14L109.25 132.384L109.887 131.351L109.648 129.88L108.932 129.681L108.455 130.158L107.818 129.721L107.698 129.204L106.942 129.403L106.186 129.522L106.107 128.21L105.669 128.369L105.271 127.852L105.908 127.216L105.191 126.54L104.475 127.216L104.554 126.262L100.137 125.825L101.291 124.672L101.49 123.519L100.973 123.638L98.9432 123.439L98.784 123.161L99.6596 122.525L100.296 122.326L100.416 121.809L100.455 121.73L100.734 121.054V120.378L101.132 119.464L102.923 120.458L103.361 119.504L105.072 118.828L105.151 117.516L105.908 117.238L106.425 116.761L106.743 116.602L107.34 116.999L107.3 117.516L107.261 117.914L107.579 118.192L107.897 118.271L108.136 118.47L108.057 119.066L107.818 119.305L108.295 119.981L109.927 120.378L111.439 120.975L112.355 121.094L112.633 122.167L112.355 122.485L111.996 122.803L111.598 123.002V123.439L112.554 124.354L113.389 124.672L114.742 125.387L117.608 125.507L118.125 124.592L117.727 121.849L119.478 121.014L118.802 118.55L120.791 117.675L121.07 116.005H121.15L121.627 116.085L121.826 116.125L121.985 116.164H122.025L122.463 116.204V116.284V116.323L122.383 116.761V116.8H122.622L122.781 116.602L122.821 116.522L122.901 116.443H122.94L123.1 116.244L123.497 116.164V116.125L123.298 116.045H123.259L123.139 116.005L123.1 115.966L123.139 115.926L123.179 115.846L123.298 115.727L123.378 115.648L123.06 115.329L123.219 115.21L123.179 115.17L122.94 115.051L122.901 115.011V114.972V114.932L123.02 114.693L123.816 115.29V115.25L123.935 115.329L124.373 115.648L124.492 115.568L124.572 115.528H124.612L124.89 115.568L124.93 115.608H124.97L125.01 115.568L125.05 115.528H125.129L125.209 115.449L125.328 115.29V115.091H125.368L125.447 115.011L125.567 115.21L125.607 115.608L125.646 115.727L126.204 115.449L126.164 115.091L126.005 115.131L125.726 114.972L125.806 114.773L126.084 114.693L126.005 114.057L125.925 113.143L125.527 112.904V112.825H125.885L125.806 111.314L125.129 111.195L125.249 111.036L125.288 110.996L125.328 110.956L125.368 110.917L125.408 110.877L125.527 110.718L125.408 110.638L125.089 111.076L124.89 110.718V110.678L124.851 110.599L124.731 110.281L124.094 110.678L123.696 110.36L123.497 109.804L122.463 108.73L122.503 107.577L122.94 107.697L123.219 105.55L122.861 105.51L123.298 103.602L123.497 101.574L124.015 100.938L125.408 100.064L125.209 99.4276L125.169 98.7915V98.394V98.2747H125.209V98.1952L125.646 97.8772L130.502 98.4735L130.9 98.6325L131.019 98.5133L132.133 98.5928H133.088L134.004 98.3145L134.8 97.9567H135.357L135.556 97.4399L139.137 95.0148L139.456 94.7763L140.013 95.0148L140.212 94.2595L142.759 92.3513L145.664 89.4492H146.261L146.46 89.2107L146.34 88.9324L146.301 88.8529L147.136 87.9385L146.659 87.382L147.176 87.9385L149.922 84.8377L150.121 84.7184L150.4 84.6389L150.519 84.4401V84.2811V84.1618L151.594 83.0089L151.912 82.6511L152.509 81.6175L152.668 81.2995L152.907 81.1405L152.986 81.0212L152.827 80.8622V80.7429V80.0671V79.7888L152.071 77.006L151.832 75.8929L151.554 74.7797L154.499 77.0855L154.737 76.7277L155.374 74.5412V74.5014L154.817 73.9449L154.857 73.9051L154.817 73.8654L155.295 73.4281L154.3 72.4342L154.379 72.3547L154.737 71.9969L156.17 73.2691L157.085 72.1559L157.444 71.7584L157.364 71.6789L157.921 71.003L159.155 71.0428L160.03 70.7645L160.468 72.1162L160.826 72.0764H161.304L161.582 72.6727L161.503 73.4678L162.498 72.9908L162.378 73.3088L162.259 73.6268L162.14 73.9449L162.02 74.2629L161.383 74.5412L161.184 75.0183L160.866 75.5351L160.826 76.0519L161.503 76.2109L161.622 77.2048L165.204 77.324L165.562 77.5626L167.035 77.7613L166.836 77.5228L166.637 77.2843L166.676 76.7675L166.995 76.3302L166.716 75.8531L166.836 74.8592L166.318 74.2232L164.567 73.3088C164.567 73.3088 165.482 72.9908 166.04 72.8715C166.278 72.792 166.915 72.9908 166.955 72.7522C166.995 72.633 166.676 72.5535 166.836 72.3149C166.915 72.1559 166.637 72.0764 166.637 72.0764L166.358 71.7584L165.642 71.6789L165.005 70.844L166 71.003L166.597 71.4006ZM113.349 53.7495L113.548 55.1807L113.708 56.5323L114.663 58.7188L115.1 59.4742L115.459 59.9115L115.538 59.8717L115.737 60.2693L116.613 59.6332L117.448 58.202L118.483 57.5262L119.2 57.4069L121.866 56.9696L122.503 56.4131L122.622 56.2541L122.741 56.0155L123.139 53.6302H123.179L122.781 56.0155L122.622 56.2541L122.542 56.4131L122.503 56.4528L122.383 56.6516L121.866 57.0094L119.2 57.4467L118.483 57.5262L117.448 58.202L116.613 59.6332L115.737 60.2693L115.538 59.8717L115.459 59.9115L115.1 59.4742L114.663 58.7188L113.708 56.5323L113.548 55.1807L113.389 53.8688L113.349 53.7495ZM126.283 68.4985L126.243 68.3395L125.686 68.2202L125.607 68.6178L124.492 68.1805L124.413 68.4587L124.214 68.3395L124.055 68.5382L123.617 69.1346L123.338 69.4924L123.617 69.0948L124.015 68.5382L124.174 68.2997L124.373 68.419L124.492 68.1805L125.607 68.6178L125.686 68.2202L126.243 68.3395L126.283 68.4985L126.602 68.419L126.761 68.3792C126.602 68.3792 126.442 68.4587 126.283 68.4985ZM132.372 72.3944L132.452 71.3608L131.974 68.6973V67.4251L131.815 67.0673L131.178 67.1071L130.78 66.6698L130.502 66.8686L129.825 66.5505L129.706 66.8288L129.586 67.9817L129.308 68.0214L128.711 67.7432L128.631 68.0612L128.273 67.9419C128.193 67.9419 128.114 67.9817 128.034 67.9817L128.273 67.9419L128.631 68.0612L128.711 67.7432L129.308 68.0214L129.586 67.9817L129.706 66.8288L129.825 66.5505L130.502 66.8686L130.78 66.6698L131.178 67.1071L131.815 67.0673L131.457 66.153L131.735 66.0337L131.974 65.9144L132.531 67.1866H132.571L133.486 66.6698L133.685 66.8288L133.765 66.5108L134.004 66.63L134.083 66.2722H134.123V66.2325H134.322L134.282 65.6362V65.5964L135.277 66.5108L134.282 65.6362L134.322 66.2325L134.123 66.2722L134.043 66.63L133.805 66.5505L133.725 66.8686L133.526 66.7095L132.651 67.2263H132.611L132.054 65.9542L131.815 66.0337L131.536 66.153L131.934 67.0673L132.054 67.4251V68.6973L132.531 71.3608L132.372 72.3944L132.969 72.5535L133.367 72.951L134.362 73.0703L134.72 73.1498C135.436 73.3088 136.153 73.6268 136.789 74.0244C137.108 74.2232 137.386 74.5809 137.546 74.9387C137.585 75.0978 137.625 75.217 137.665 75.376C137.784 76.1711 137.386 76.847 136.67 77.2445C137.426 76.847 137.784 76.1314 137.665 75.376C137.625 75.217 137.625 75.0978 137.546 74.9387C137.426 74.5809 137.108 74.2232 136.789 74.0244C136.153 73.6268 135.476 73.3088 134.72 73.1498L134.402 73.0703L133.407 72.951L133.009 72.5535L132.372 72.3944ZM145.465 82.8102C145.107 82.9692 141.565 84.6389 141.565 84.6389L139.774 84.4799H139.177H139.137C139.058 84.5196 138.222 84.7979 137.665 84.7184C137.108 84.6786 135.596 84.0028 135.516 83.9233L135.476 83.8835L133.447 82.3729L132.889 81.8561V81.8163C132.929 81.538 133.088 79.8683 133.128 79.3913C133.208 79.2323 133.327 79.0732 133.447 78.954L133.486 78.9142L133.526 78.8745C133.566 78.8347 133.606 78.8347 133.606 78.795C133.725 78.6757 133.845 78.5962 133.884 78.5962H133.924C134.123 78.4769 134.322 78.3974 134.521 78.2781C134.322 78.3974 134.123 78.4769 133.884 78.5962L133.486 78.8745C133.447 78.8745 133.447 78.9142 133.407 78.954L133.088 79.3913L132.81 81.8163C132.81 81.8561 132.81 81.8561 132.81 81.8561L133.367 82.3331L135.397 83.8835L135.436 83.9233C135.556 83.9631 137.028 84.5594 137.585 84.6389C138.142 84.6786 139.018 84.4799 139.058 84.4799H139.098L139.854 84.4401L141.525 84.5991L144.987 82.9294C144.987 82.9294 145.346 82.7704 145.465 82.7307C145.584 82.6909 145.783 82.6909 145.783 82.6909C145.783 82.6909 145.982 82.7704 146.022 82.8499C146.062 82.8897 146.062 83.0885 146.102 83.1282C146.102 83.0885 146.062 82.9692 146.022 82.8499C145.943 82.7704 145.783 82.6511 145.465 82.8102Z" fill="url(#paint0_linear)"/>
<path d="M43.8652 65.1195L43.905 65.199L43.9448 65.2388L44.2632 65.1195H44.6611L44.9795 65.199L45.2979 65.2786L45.5765 65.3183L45.6959 65.2786L45.9744 65.2388L46.1336 65.2786H46.1734L46.2132 65.2388H46.253L46.3724 65.1593H46.4122L46.6112 65.0798H46.6908L46.9295 65.1195L47.0489 65.1593L47.1285 65.199L47.2479 65.3581L47.2877 65.3978L47.3275 65.3581L47.2081 65.199L47.1683 65.1195L47.1285 65.04V64.9605L47.4867 65.04V65.0003L47.5663 64.8413V64.8015V64.7617L47.7255 64.2449V64.2052H47.6061L47.2877 64.2449H47.2081H47.0887H46.9295H46.8898L46.7306 64.2847L46.5316 64.3642L46.4122 64.4039L46.3326 64.4437H46.2928L46.253 64.4039L46.2132 64.3642V64.3244V64.2847V64.1257V63.9667L46.1734 63.9269L45.855 63.9667H45.7755V63.9269L45.7357 63.8474V63.7679L45.6959 63.7281L45.6561 63.6884L45.6163 63.6486V63.6089L45.5765 63.5691H45.5367V63.5293H45.4969V63.4896V63.4498V63.4101H45.6561H45.6959H45.7357L45.7755 63.3703H45.8152H45.855V63.4101L45.9346 63.5293L45.9744 63.5691V63.6089L46.0142 63.6486V63.7281L46.054 63.7679V63.8076V63.8474H46.0938L46.1336 63.8871L46.1734 63.9269H46.2132V63.9667V64.1257V64.2847V64.3244V64.3642L46.253 64.4039H46.2928V64.4437L46.3326 64.4039H46.4122L46.5316 64.3642L46.7306 64.2847L46.8898 64.2449H46.9295L47.0887 64.2052H47.2081H47.2877H47.6061H47.7255H47.7653L47.8051 64.1257V64.0859H47.8448L48.004 63.8871L48.0438 63.8076L48.203 63.6089L48.2826 63.4896L48.3622 63.4101L48.402 63.3306V63.2908L48.4418 63.2511L48.5214 63.1716L48.6408 63.0125L48.6806 62.933L48.7602 62.774V62.6945L48.8 62.615V62.4957V62.456V62.3765V62.2572L48.8398 62.0982V61.9392V61.8199L48.8796 61.6609V61.5814V61.3826L48.9193 61.1838V61.0248V60.9851V60.9055V60.7863L48.9592 60.5875V60.5477H48.9989L49.1581 60.5875L49.3173 60.5477V60.4285L49.5959 60.349L49.6755 60.5477L49.7949 60.8658L49.8347 60.9453L49.9143 61.0646L49.9541 61.0248L50.153 60.9055L50.1928 60.9453V60.9055L50.2326 60.9851V61.0248L50.1928 61.1441H50.2326V61.1838L50.1928 61.2236L50.2326 61.2633L50.153 61.3826L50.0734 61.4621L50.0336 61.5019H49.9939L49.9541 61.5416L49.9143 61.5814L49.8745 61.6211L49.8347 61.7006H49.8745V61.7404L49.9939 61.8199L49.9143 61.9392L49.9541 62.1379L49.9939 62.2174L49.7949 62.6945L49.8745 62.7343L49.7551 62.9728L49.5959 62.933V63.0125V63.6089V63.6486H49.5561H49.4765L49.1979 63.6089L49.1183 63.5691H49.0387L48.9989 64.0462H49.5163H49.7949H49.9143H49.9939H50.2326V64.0859H50.2724L50.3122 64.1654L50.352 64.2052V64.2449V64.3244L50.3918 64.4039L50.352 64.4437V64.4835L50.3918 64.6027L50.4316 64.6425V64.8015L50.5112 65.04L50.6306 65.0003H50.75L50.9888 64.9605L51.148 64.9208L51.4265 64.8413L51.6653 64.8015L51.8643 64.7617L52.0633 64.722H52.103V64.6425L52.1429 64.5232V64.4835L52.1826 64.4039V64.3642L52.2224 64.2449H52.2622L52.2224 64.1654V64.0462V64.0064L52.302 63.9667L52.4612 63.8871L52.6602 63.8076L52.7 63.7679L52.8194 63.7281L52.9388 63.6486L53.098 63.6089L53.1775 63.5691H53.2173L53.2571 63.5293H53.2969H53.3367L53.5357 63.4896H53.5755H53.6153L53.5755 63.4101V63.4498L53.5357 63.4101V63.3703H53.4959V63.3306L53.4561 63.2908H53.4959L53.4561 63.2113L53.4163 63.2511V63.2113V63.1716H53.4561L53.4959 63.1318L53.4561 63.092L53.3765 62.9728L53.3367 62.933L53.3765 62.8933H53.4163V62.8535L53.6551 62.6945L53.9337 63.0125L53.9735 63.1318L54.0531 63.1716V63.2113L54.1327 63.2908L54.1725 63.4101L54.2521 63.3703V63.3306L54.2918 63.2908L54.3316 63.2511L54.3714 63.3306L54.5704 63.2511L54.7296 63.2113L54.7694 63.1716L54.849 63.1318H54.8888L54.9286 63.092H54.9684H55.0082H55.048H55.0878L55.1276 63.0523H55.1674L54.9684 62.7343L55.0878 62.6547L55.3663 62.6945L55.5255 62.8933L55.3663 63.0523L55.2071 63.092H55.1674H55.1276L55.0878 63.1716H55.048L55.0082 63.1318L54.9684 63.1716H54.9286H54.8888L54.7694 63.2113V63.2511L54.5704 63.2908L54.4908 63.3703H54.451L54.4908 63.4101V63.4498H54.5306V63.4896L54.6102 63.5293V63.5691L54.65 63.6884L54.7694 63.7679V63.7281L55.1674 64.1257V64.0859L55.2071 64.0462L55.2867 64.1257L55.3663 64.0462L55.4061 63.9667L55.4459 63.9269L55.3663 63.8474L55.4459 63.7281L55.4857 63.6486L55.5255 63.5691L55.5653 63.5293L55.6449 63.4101L55.7245 63.3306L55.8041 63.2908L56.5204 62.9728L56.5602 62.933H56.6398H56.7194L56.8786 62.9728L56.8388 63.3306L56.799 63.4498V63.5293L56.6796 63.9269H56.6L56.1623 63.2908L55.9235 63.6486L55.8439 63.6089L55.7643 63.6884L55.7245 63.6089L55.6449 63.6884V63.7281L55.8041 63.8076L55.7643 63.8474L55.7245 63.8871L55.6847 63.9269L55.5255 64.1257L55.3663 64.3244L55.3266 64.3642L55.3663 64.4039L55.4061 64.4437L55.4459 64.4835L55.4857 64.5232L55.5255 64.563L55.5653 64.6027L55.6051 64.6425L55.6449 64.6822L55.6847 64.722L55.5255 64.9208L55.048 65.3978L54.8888 65.6761H54.8092L54.7296 65.3978L54.65 65.2388L54.4908 65.1195L54.2122 64.722L54.1725 64.6027L54.2122 64.4835L54.1327 64.3244L54.0531 64.1654L53.7745 64.0462L53.3367 63.9269H53.0184H52.9786L52.6204 64.0064L52.3816 64.1654L52.3418 64.2449L52.2224 64.5232L52.1826 64.722L52.2224 65.04L52.1429 65.3183L52.2224 65.3581L52.3418 65.3978L52.2224 65.7159L52.2622 65.7556H52.3418L52.6204 65.7159V65.6761H52.6602H52.7H52.7398L52.899 65.7159V65.7556L52.9786 65.7954H53.0184L53.098 65.9146H53.1378H53.1775L53.2173 65.9544L53.2571 65.9941L53.2969 66.0339L53.3765 66.0736H53.4163V66.1134H53.4561L53.6551 66.1929H53.7347L53.8939 66.3917L53.9337 66.3519L54.0133 66.3917V66.4712V66.5109L54.0929 66.5507V66.5109L54.1725 66.5507L54.5306 66.67L54.7694 66.9085L54.8888 66.988L54.9684 66.9085L55.6449 67.3458H55.6847H55.8041H55.8837H56.1225L56.2021 67.306L56.2816 67.2265L56.401 67.147L56.4408 67.1073V67.0278L56.4806 66.9483L56.5204 66.8687V66.7892L56.5602 66.4712L56.6 66.3917L57.0776 66.0339L57.2368 65.9146L58.9878 64.2052V64.1257L59.0674 64.0462L59.1868 64.0064L59.3062 63.9667H59.3857L59.4653 64.0064H59.5449V63.9667H59.4653H59.3857H59.2664L59.1868 63.9269H59.1072V63.8871L58.7888 63.8076L58.8684 63.6486V63.5691H58.8286L58.8684 63.5293L58.948 62.933V62.6547L58.8286 62.1777L58.3908 61.6609V61.7801L57.9133 61.5416L57.4755 61.5019H57.4358H57.3959H57.3562V61.5416H57.3164H57.2766V61.5814V61.5416H57.2368V61.5814H57.197V61.6211H57.1572V61.5814L57.0776 61.6211L56.998 61.7006L56.9582 61.7404L56.8786 61.7801H56.8388V61.8199L56.799 61.8597L56.7592 61.8994L56.7194 61.9392V61.9789L56.6796 62.0187L56.6398 62.0584V62.0982L56.6 62.1379L56.5602 62.1777V62.2174V62.2572V62.297L56.5204 62.3367V62.3765H56.4806L56.4408 62.456V62.5355H56.401L56.3612 62.5752V62.615V62.5752L56.3215 62.615V62.5752L56.2021 62.5355H56.1623L56.0827 62.4957V62.456V62.4162V62.297L56.1623 62.3367V62.297L56.0827 62.2174L56.1225 62.1777V62.2174L56.2021 62.1777L56.2816 62.0584L56.2021 62.0187V61.9789V61.8994L56.2816 61.8199L56.3215 61.7801L56.401 61.8199H56.4408V61.7801L56.7194 61.5019L56.9582 61.3031L56.8388 61.1441L56.6796 60.9055L56.5602 61.1441L56.2021 61.2236L55.9235 61.3826L55.8837 61.3428L55.6051 61.4621L55.4857 61.2633H55.4459H55.3663L55.2071 61.1043L55.1276 61.1838H55.0878V61.2236L55.1276 61.1838L55.2071 61.1441L55.247 61.1838L55.2867 61.2236L55.3266 61.2633L55.3663 61.3031H55.4061L55.4459 61.3428L55.5255 61.3826L55.4061 61.5019L55.3663 61.5416L55.3266 61.5814V61.7006V61.7404L55.2867 61.8199V61.9392H55.247L55.2071 62.0584H55.1674H55.0082L54.9286 62.0187H54.849H54.8092H54.7694L54.6898 62.0584L54.6102 62.0982L54.5704 62.1379L54.4112 61.9392L54.4908 61.8597L54.6102 61.7801L54.65 61.7006H54.6898V61.6609V61.5814L54.7296 61.5416L54.8888 61.3826H54.9286L55.048 61.2633L55.0082 61.2236L54.8888 61.1043V61.1441L54.849 61.2236L54.7694 61.2633L54.5704 61.1838L54.2521 60.9453L54.2918 60.9055L54.3316 60.8658L54.3714 60.826L54.4112 60.7863V60.7465L54.451 60.7068L54.4908 60.667L54.5306 60.6273V60.5875L54.451 60.3887V60.0309L54.3714 59.9912L54.3316 59.9514V59.9117L54.2918 59.8719L54.2521 59.8322L54.2122 59.7924L54.1725 59.7527V59.7129H54.1327L54.0929 59.6731V59.6334H54.0531L54.0133 59.5936V59.5539L53.9735 59.5141H53.9337V59.4744L53.8939 59.4346L53.9337 59.3949L53.9735 59.4346L54.0133 59.3551H54.0531L53.9337 59.2358H53.9735L53.8939 59.1961L53.8541 59.1563H53.8143L53.7745 59.0768L53.6153 58.9973L53.3765 58.8781L53.2571 59.0768L53.2173 59.1166L53.1775 59.1961L53.1378 59.2756L53.098 59.3551L53.0582 59.4346V59.5141V59.5539L53.0184 59.5936L53.2173 59.6334L53.7745 59.7924V59.8322V59.9514V60.0309L53.7347 60.0707V60.1502L53.6949 60.2297L53.6551 60.349L53.5755 60.508L53.5357 60.6273L53.4959 60.7068V60.7465L53.5755 60.826H53.5357H53.4959H53.4561H53.4163L53.3367 60.7863H53.2969L53.2571 60.7465H53.1775L53.098 60.7068L52.9786 60.667H52.9388H52.8194L52.8592 60.508V60.3887L52.8194 60.2695V60.3092V60.3887V60.4285V60.508V60.6273V60.667L52.7796 60.7465H52.7398V60.7863V61.0248V61.1441V61.2236H52.7H52.6602H52.6204H52.5806H52.4612V61.3826L52.3816 61.5814L52.3418 61.6211V61.6609H52.302H52.2622L52.0633 61.6211H52.0234L51.9439 61.5416L51.7051 61.3428H51.6653V61.3031L51.5459 61.2633L51.4265 61.2236H51.3867L51.4265 61.1838L51.4663 61.1043L51.5459 61.0646L51.4663 61.0248L51.3469 60.9851H51.3071L51.2673 60.9453L51.2275 60.9055L51.1877 60.8658V60.826L51.148 60.7863L51.1081 60.667L51.0684 60.5477L50.9888 60.4285V60.3887L51.0285 60.349L51.0684 60.3092H51.1081V60.2695L51.148 60.0309L51.0684 59.7527V59.7129L51.0285 59.6334L50.9888 59.5539V59.5141L51.0684 59.7129H51.148L51.2673 59.9514L51.3071 60.1104L51.9041 60.0309L52.5806 59.9117L52.6602 59.4744L52.501 59.3949L52.1826 59.0768L51.1081 59.4744H51.0684L50.9888 59.5141H50.949L50.6306 59.6334L50.2724 59.7924L49.9939 59.8719L49.7153 59.9912L49.5959 60.0309L49.5163 60.0707L49.3969 60.1104L49.3571 60.1502L49.1183 60.2297H49.0785L49.0387 60.2695L48.9592 60.3092H48.9193H48.8796L48.8398 60.349H48.7602L48.6806 60.3887H48.6408L48.601 60.4285H48.5214L48.4816 60.4682L48.402 60.508V60.8658H48.3622H48.3224H48.2826L48.1632 60.9453L48.0438 61.0646L47.9244 61.1838L47.8448 61.2633V61.3031L47.6857 61.5019L47.5265 61.7006L47.4469 61.8199L47.2877 62.0584L47.1683 62.1777L46.7306 62.2174H46.6112L46.2928 62.0982L46.1336 62.0187L45.8152 61.8994L45.6561 61.8597V61.9392V62.0187V62.1379L45.5765 62.1777L45.4969 62.2174L45.4571 62.2572L45.4173 62.5355L45.3775 62.5752L45.2979 62.615H45.2581L45.1785 62.6945L45.0193 62.6547L44.8203 62.615V62.6945V62.7343L44.7806 62.8138V62.8535V62.9728V63.0523V63.1716L44.7407 63.2113V63.2908V63.3703L44.6214 63.2511L44.5816 63.2113L44.5418 63.2908L44.5816 63.3306L44.7806 63.4498L44.8203 63.4896H44.8601V63.5293V63.5691V63.6089L44.9397 63.8871L44.9795 63.9667V64.0064V64.0462V64.1654L45.0193 64.2052L45.0591 64.4039V64.4437L45.0989 64.563L45.1387 64.722H45.0591V64.8015V64.8413V65.0003H45.0193L45.0591 65.04L44.8999 65.1195L44.7806 65.0798V65.1195H44.7407L44.6611 65.0798H44.5816L44.5418 65.04H44.502H44.3826H44.2234H44.1836H44.1438L44.104 65.0798H44.0642L44.0244 65.1195L43.9846 65.04L43.9448 64.9605L43.8652 65.04L43.8254 65.0003V64.9605L43.7857 64.8413L43.7061 64.9605L43.7857 65.0003L43.8652 65.1195Z" fill="url(#paint1_linear)"/>
<path d="M59.0279 64.4038L58.9881 64.2051L57.2371 65.9145L57.3167 66.0338V66.2723L57.3565 66.3121L57.3963 66.3518H57.5953L57.6351 66.3916V66.4313V66.5506V66.6301L57.5953 66.7096V66.9481V67.0277H57.6351L57.7544 67.0674L57.834 67.0277L57.8738 66.9084L57.9136 66.8686H57.9932V66.9084L58.033 67.0277L58.0728 67.1072L58.1126 67.2662L58.0728 67.624V67.7035V67.8227L58.3912 67.7432L58.7096 67.8227L58.6698 68.26L58.5504 68.6973L58.5106 68.7769V68.9359H59.0677V69.0154H59.1871H59.3463L59.4259 69.1346L59.2667 69.3334L59.1871 69.3732V69.4527V69.5719H59.0677H58.7096V69.6912H58.6698H58.4708L58.431 69.5719H58.0728H57.9932V69.4527L58.1126 68.9359H58.3116V68.5781L58.1126 68.0613L57.9932 67.9818L57.6748 68.0613L57.6351 68.101L57.5953 67.9818L57.5555 67.942L57.4759 67.8625L57.3167 67.9818V68.0215L57.2371 68.1408H57.1973L57.2371 68.1805V68.2203L57.1973 68.2998H57.1575L57.1177 68.26L57.0381 68.2998L56.7198 68.4191L56.6799 68.4588L56.7198 68.5781V68.6178L56.7595 68.6576L56.8391 68.8166H56.8789L56.9187 68.7371L57.0779 68.6973V68.7769L57.0381 68.8166L56.9983 68.8564V68.8961H57.0779L57.2371 68.9359V68.9756L57.1973 69.0949V69.1346L57.1177 69.1744L57.0779 69.2142L57.1177 69.2937V69.4527L57.1575 69.4924L56.9585 69.5719L56.9187 69.4527L56.8789 69.4129V69.3732L56.7993 69.2539L56.6799 69.0949V69.0551L56.6402 69.0154L56.6003 68.9756L56.5606 68.9359L56.6003 68.8564V68.7371V68.6576L56.5606 68.6178L56.4014 68.7371L56.3616 68.6973L56.1626 68.7769L56.1228 68.6973L56.0432 68.7371L56.0034 68.6973L55.9238 68.7371L56.6003 69.3334L56.9585 69.6515L57.0381 69.6912L57.0779 69.731H57.2769L57.1973 69.89H57.3167L57.3565 69.9297L57.4361 70.049L58.3912 70.0093L58.9085 69.9297V69.731V69.6912H59.0677H59.1871V69.6117H59.2269V69.6912H59.5453H59.5851H59.8636L60.182 69.6515L60.2218 69.6912L60.6596 69.6515H60.8585V69.6117H60.8188V69.5322H60.7392V69.4527H60.7789H60.8188H60.8585H60.8984V69.3732L60.6994 69.1744L60.6596 69.0551L60.6198 69.0154H60.5402L60.381 68.8166L60.1024 68.5383L60.0228 68.5781V68.6576L60.0626 68.6973L59.9432 68.8166L59.8636 68.7371L59.8239 68.8564L59.9035 68.9359L59.8636 69.0154H59.8239L59.6647 68.9756L59.7045 68.8166L59.8239 68.5383L59.9035 68.4191L60.0228 68.3793L60.0626 68.3396L60.4606 68.101L60.58 68.0613L60.8188 68.6178L61.0177 68.8961L61.1769 69.0154L61.4157 69.0551L62.2116 68.9359L62.7688 68.8564L63.0076 68.7769L63.2463 68.5383L63.4055 68.26L63.4453 67.9818V67.465L63.4055 67.1072L63.4453 66.8289L63.6045 66.5108L63.7637 66.3518L64.0025 66.1928L64.2412 65.994L64.281 66.0338H64.3208L64.48 66.2326L65.0371 66.8289L65.2759 67.1072L65.3555 67.1867L65.5943 67.4252L65.6341 67.465H65.6739H65.7137L65.7933 67.4252H65.8331H65.8729H65.9127L66.1514 67.3854H66.3106H66.3902L66.629 67.3457H66.7882H66.828H67.0668V67.3059H67.3055H67.5841V67.1469H68.0617L68.1015 67.1072L68.4596 67.0674L68.6188 67.1072L68.6586 67.1469V67.1867H68.7382L68.8576 67.1072V67.1469V67.1867L68.977 67.1469L69.2954 67.1072L69.3749 67.0674H69.4147H69.4545L69.4147 66.9879L69.3749 66.9481L69.3351 66.8686L69.6137 66.5108L69.6535 66.4313L69.7729 66.2723L69.8127 66.2326L70.0117 66.0338L70.0913 66.1928L70.1709 66.153H70.2107L70.4096 65.994L70.4494 65.9543L70.4892 65.9145L70.4096 65.835L70.2505 65.7157L70.2107 65.676L70.1709 65.5965L70.1311 65.5567L70.0515 65.4772L70.0117 65.3977L70.0913 65.3182L70.2505 65.1194L70.3699 65.0002L70.6086 64.8014L70.728 64.6821L70.8872 64.4436L70.2107 63.4895L70.0515 63.2907V63.251L70.0913 63.0919L69.4545 62.7341L69.3749 62.5751H69.3351L68.977 62.5354H68.8974L68.8576 62.4956V62.4161V62.2968L68.6586 62.1378L68.4596 61.9391L68.3004 61.8198L68.2208 61.7403H68.1015L67.7433 61.621L67.5045 61.5415L67.2259 61.462L67.1066 61.4222L66.9076 61.462L66.7882 61.5018H66.6688H66.5892L66.3106 61.9788V62.0186L66.1514 61.9788L65.8729 61.9391L65.8331 62.1776L65.7933 62.2571V62.2968L65.7535 62.4161V62.4956L65.5943 62.8534L65.5147 63.1317H65.4749L65.3157 63.251H65.3555V63.2907H65.3953L65.3555 63.3702L65.2759 63.2907L65.3953 63.4895L65.4749 63.6087L65.5545 63.728L65.6341 63.8473H65.6739L65.9525 63.9665L66.0719 64.0461L66.2708 64.1653L66.3106 64.2051L66.43 64.2448H66.6688L66.7484 64.2846L66.9076 64.4038L67.1066 64.5629V64.5231V64.4834L67.1862 64.3641L67.2259 64.2051V64.1653H67.3055L67.3453 64.0858H67.2658V63.9268H67.3453L67.6637 63.887H67.7433L67.7831 63.8473L67.8229 63.8075L67.8627 63.7678L68.0219 63.6883H68.0617L68.2208 63.728V63.6883L67.9423 63.41V63.3702H67.9821L68.0219 63.41H68.0617H68.1015H68.1412H68.1811H68.2208L68.2607 63.3702H68.3004L68.3402 63.3305L68.4198 63.251L68.4596 63.2112L68.4994 63.251L68.5392 63.2907L68.778 63.4895L68.8178 63.5292L68.8576 63.6087V63.6485L68.8974 63.6883L69.0566 63.4895L69.0964 63.41L69.2158 63.1715V63.1317L69.3749 62.8534L69.8127 63.1317L69.9719 63.5292V63.728L69.8923 63.8473L69.8525 63.887L69.5739 64.3243L69.5341 64.3641L69.4545 64.4436V64.4834V64.5231L69.3749 64.5629L69.3351 64.6026L69.2556 64.6821L69.176 64.7616L69.0964 64.8411H69.0566L68.9372 64.8809L68.8178 64.9207L68.6984 64.9604H68.6586H68.38H68.2607L68.2208 65.0399L68.1811 65.0797H68.1412L67.9821 65.1194V65.1592L67.7035 65.1194L67.4647 65.0797L67.3453 65.0399V65.0002L67.1862 64.6821H67.1066H67.027L66.9872 64.7616L66.5892 64.8014H66.4698V64.8411V64.9207L66.0719 64.8014H65.5943L65.3953 64.7616L64.9576 64.4436L64.7586 64.4038L64.5596 64.4834L64.3606 64.6821L64.3208 64.9207V65.3182L64.3606 65.6362V65.835L64.281 65.9543L64.2412 65.9145L64.2014 65.9543L63.9626 66.1133L63.8433 65.9543H62.7688L62.4504 66.2326L62.2514 66.3121L62.132 66.3518V66.4711L62.7688 66.6301L62.6892 66.9879L62.6096 67.0674H62.4106L61.9728 66.9879L61.8933 67.0277L61.7341 67.0674L61.6545 67.0277L61.5351 66.9879L61.4157 66.9084V66.9879L61.3361 66.9481H61.2963L61.2565 66.9084H61.2963H61.3361H61.4157L61.4555 66.7494V66.6699V66.5903L61.6943 66.6301L61.8535 66.5108L61.933 66.3916L61.9728 66.2723V66.0338L61.933 65.9145L61.8933 65.7157L61.7341 65.358L61.4555 65.0797L61.2963 65.0399L61.0177 64.6424L60.8984 64.5231L60.8585 64.4834L60.6994 64.4038L60.5004 64.3243H60.381L60.2218 64.3641L60.0626 64.4038L59.8636 64.3243L59.6647 64.3641L59.3463 64.0858L59.0279 64.4038Z" fill="url(#paint2_linear)"/>
<path d="M72.3992 11.1327L72.8768 12.3253L72.5186 12.2855L72.2401 12.5638L72.3992 12.6831L72.0013 12.8421L71.9615 14.1938L72.2003 15.2671L71.9217 17.7717L72.2003 18.05L71.9615 18.527L72.3992 18.9643L72.5982 18.7656L73.235 18.5668L73.1156 18.9246L73.7523 18.9643L73.9513 19.3619L74.0707 19.3221L74.2697 19.4414L74.6278 19.4016L74.7074 18.9643L75.1452 19.2824L75.0258 19.4811L75.2646 19.6004L75.7819 19.4414L76.1401 19.3619L76.4187 19.6004L76.2993 20.1172H76.4584L76.3391 20.3557L76.8166 20.5545L76.8564 19.8787L78.6075 20.5148L78.4085 21.2701L78.6075 21.5881L79.0452 21.4689L79.3636 21.6676L80.0003 21.4689L80.3585 21.6279L80.5177 21.1508L80.3983 20.8726L80.6768 20.2762L80.3983 20.157L80.5177 19.6799H80.2391L80.1595 19.8389L79.8411 19.9184L79.5228 19.8389L79.3636 19.2824L79.0054 18.9643L78.886 18.527L79.2442 18.2885L79.3238 17.5332H79.2442L79.4034 17.1754L79.7217 17.2946L79.7615 17.0561L79.483 16.9368L79.6819 15.784L79.9207 15.8635L80.0799 15.784L80.2789 15.9032L80.5575 15.5852L80.3187 15.4262L80.5575 14.7901H81.1942L81.5126 14.9889H81.632L81.9901 15.2671L82.6666 15.1081L82.9054 14.9889L83.184 15.3467L83.2238 15.7442H83.4626L84.4575 17.1356L84.2983 17.3741L85.3728 17.6524L85.8902 17.4934V17.3741L85.3728 17.4139V16.7381L85.6116 16.6188L85.8503 14.7901L86.1687 14.5913L85.8106 14.3528L85.731 13.7962L85.532 13.2397L84.6565 13.5179L84.4177 13.3192L85.0544 12.7228L85.333 12.4048L83.781 11.1327L83.9799 10.7749L83.3432 10.3376L83.1044 10.6158L79.5625 8.15106L79.483 7.674L79.1646 7.27646L78.687 7.47523L77.7717 6.99818V6.95842L77.0156 6.40186L76.8166 6.64038H76.5778L76.4584 6.75965L76.538 6.95842L75.8217 7.5945L74.588 7.87278H73.9911L73.7921 7.95229L73.8319 7.674L73.3941 7.03793L72.8768 7.07768L72.5584 7.35597L72.1605 7.15719L71.3645 7.47523L70.887 7.15719L70.29 7.51499L72.5584 11.0929L72.3992 11.1327Z" fill="url(#paint3_linear)"/>
<path d="M153.384 50.0524L153.543 50.2512V50.2115L153.583 50.2512L153.663 50.1717H153.742L154.18 50.6488H154.22L154.26 50.768L154.499 50.609L154.698 50.45H154.737L154.658 50.2512H154.698L154.857 50.2115L154.976 50.4897L155.056 50.45L155.334 51.1258H155.414L155.971 50.6885L155.852 50.4102L156.25 50.2115V49.7742L156.608 49.6549L156.767 49.6151L156.847 49.4164L156.926 49.2573V49.2176L156.966 49.0586L157.085 49.0188V48.9791L157.165 48.8996L157.205 48.8598L157.245 48.7803L157.443 48.5418H157.603L157.682 48.661L157.802 48.5815L157.921 48.7008V48.7405L158.001 48.7803L158.08 48.8598H158.319L158.399 48.9393L158.518 49.0586L158.677 49.0983L158.797 49.1381H158.836L158.916 49.1778H158.996L159.075 49.1381L159.234 48.9791L159.314 48.8598L159.274 48.661V48.5418L159.195 48.3827L159.115 48.3032L158.996 48.2237L158.399 48.0647V48.0249L158.16 47.9454H158.12L158.001 47.9057L157.921 47.7864L157.881 47.7069L157.563 47.7467L157.483 47.8659L157.443 47.7864L157.205 47.9057L157.046 47.9852L156.926 47.9454L156.847 47.9057L156.767 47.7467L156.568 47.7864L156.329 47.8659H156.25L156.21 47.8262L156.051 47.3491L155.852 47.4286H155.812H155.732L155.653 47.4684V47.5479L155.613 47.5876L155.374 47.6672V47.7069H155.334L154.936 47.8659V47.9057L154.658 48.0249V47.9852H154.578V47.8659L154.379 47.9454V47.9852V48.0249L154.419 48.1045V48.1442L154.339 48.2237V48.3032L153.822 48.5418L152.986 49.1778V49.2573L153.464 49.8537L153.384 50.0524Z" fill="url(#paint4_linear)"/>
<path d="M155.613 47.349L155.653 47.4285L155.732 47.3888L155.692 47.2695L156.17 47.0707L156.369 46.9515L156.488 46.8322V46.7527L156.369 46.7924H156.329H156.21L156.051 46.872L155.971 46.9515L155.812 47.031H155.772L155.533 47.1105L155.573 47.349H155.613Z" fill="url(#paint5_linear)"/>
<path d="M89.1133 52.3581V52.4376V52.6364V52.7556L89.2327 52.7159H89.2725L89.7102 52.5171L90.1878 52.3183L90.2674 51.563V51.4835V51.404L90.3072 51.3642V51.3245H90.347H90.2276H90.1082H89.9888H89.9092H89.8296H89.75H89.7102L89.5908 51.3642H89.5112L89.2725 51.4437L88.7949 51.6425L88.8745 51.8015L89.1133 52.3581Z" fill="url(#paint6_linear)"/>
<defs>
<filter id="filter0_d" x="13" y="17" width="173" height="174" filterUnits="userSpaceOnUse" color-interpolation-filters="sRGB">
<feFlood flood-opacity="0" result="BackgroundImageFix"/>
<feColorMatrix in="SourceAlpha" type="matrix" values="0 0 0 0 0 0 0 0 0 0 0 0 0 0 0 0 0 0 127 0"/>
<feOffset dy="4"/>
<feGaussianBlur stdDeviation="2"/>
<feColorMatrix type="matrix" values="0 0 0 0 0 0 0 0 0 0 0 0 0 0 0 0 0 0 0.25 0"/>
<feBlend mode="normal" in2="BackgroundImageFix" result="effect1_dropShadow"/>
<feBlend mode="normal" in="SourceGraphic" in2="effect1_dropShadow" result="shape"/>
</filter>
<linearGradient id="paint0_linear" x1="100.197" y1="19.64" x2="100.197" y2="185.178" gradientUnits="userSpaceOnUse">
<stop stop-color="#23844A"/>
<stop offset="1" stop-color="#B4E3AD"/>
</linearGradient>
<linearGradient id="paint1_linear" x1="51.6255" y1="58.8781" x2="51.6255" y2="67.3458" gradientUnits="userSpaceOnUse">
<stop stop-color="#23844A"/>
<stop offset="1" stop-color="#B4E3AD"/>
</linearGradient>
<linearGradient id="paint2_linear" x1="63.4055" y1="61.4222" x2="63.4055" y2="70.049" gradientUnits="userSpaceOnUse">
<stop stop-color="#23844A"/>
<stop offset="1" stop-color="#B4E3AD"/>
</linearGradient>
<linearGradient id="paint3_linear" x1="78.2294" y1="6.40186" x2="78.2294" y2="21.6676" gradientUnits="userSpaceOnUse">
<stop stop-color="#23844A"/>
<stop offset="1" stop-color="#B4E3AD"/>
</linearGradient>
<linearGradient id="paint4_linear" x1="156.15" y1="47.3491" x2="156.15" y2="51.1258" gradientUnits="userSpaceOnUse">
<stop stop-color="#23844A"/>
<stop offset="1" stop-color="#B4E3AD"/>
</linearGradient>
<linearGradient id="paint5_linear" x1="156.011" y1="46.7527" x2="156.011" y2="47.4285" gradientUnits="userSpaceOnUse">
<stop stop-color="#23844A"/>
<stop offset="1" stop-color="#B4E3AD"/>
</linearGradient>
<linearGradient id="paint6_linear" x1="89.5709" y1="51.3245" x2="89.5709" y2="52.7556" gradientUnits="userSpaceOnUse">
<stop stop-color="#23844A"/>
<stop offset="1" stop-color="#B4E3AD"/>
</linearGradient>
</defs>
</svg>
