<svg width="200" height="200" viewBox="0 0 200 200" fill="none" xmlns="http://www.w3.org/2000/svg">
<g filter="url(#filter0_d)">
<ellipse cx="99.5" cy="100" rx="69.5" ry="70" fill="white"/>
<path d="M99.5 176.5C141.517 176.5 175.5 142.206 175.5 100C175.5 57.7942 141.517 23.5 99.5 23.5C57.4825 23.5 23.5 57.7942 23.5 100C23.5 142.206 57.4825 176.5 99.5 176.5Z" stroke="#ECECED" stroke-width="13"/>
</g>
<path d="M182.091 115.872L183 115.156L182.13 112.132L181.103 110.979L181.419 108.433L182.723 108.672L182.802 106.285L182.012 105.967L181.814 104.694L178.06 104.853L177.941 101.432L178.218 101.512L178.85 101.75L179.245 100.199L177.783 98.4089L178.139 97.2155L176.913 95.4652L176.281 95.4255L174.898 93.3172L174.226 93.5161L172.605 91.0499L173.435 88.7427L172.763 86.7935L170.115 86.5549L169.522 87.2311L169.483 86.356L167.625 86.3162L166.953 87.9869L166.44 88.0267L166.558 89.4189L165.333 89.578L164.463 88.5438L162.961 89.3394L160.59 89.4189L160.63 92.0045H159.523L158.93 91.8454L159.009 90.2145L157.507 90.2543L157.744 89.7769L155.531 90.6123L155.412 90.6521L154.227 90.4134L154.108 88.5836L153.08 86.7935L154.661 85.3615L154.266 85.0433L152.053 86.4753L147.112 85.9184L144.622 82.3781L145.61 80.9461L145.413 80.5483L144.899 81.7019L143.95 81.1848V80.5881L145.215 80.3892L144.03 79.9517L141.816 81.0257L140.077 80.1903L138.22 82.0997L137.39 80.7075L134.623 78.2412L133.595 77.8434L131.5 78.2412L130.433 78.5196L129.524 77.1274L131.066 76.2125L130.987 76.1329L130.038 75.7351L130.117 73.8656L128.852 73.4678L128.457 72.4733L128.141 71.3595L128.26 70.2855L127.667 69.7684L127.864 68.1375L127.074 66.6657L128.022 64.637L125.73 65.2336L125.256 63.9607L124.189 62.8469L124.307 62.1309L123.754 61.574L124.386 60.8978L124.268 60.7784L124.821 60.2215L125.098 58.8293L124.189 58.352L124.781 56.0846L124.11 55.4084L125.572 55.1299L125.295 54.0559L123.2 53.6979L124.228 51.4305L123.754 50.2372L121.896 50.5156L122.015 49.0438L120.552 48.288L122.054 46.9355L120.473 47.0549L119.762 46.3389L120.157 45.424L122.726 43.5146L122.568 42.3212L121.501 41.6848L122.094 40.3323L121.264 39.7754L120.75 36.5136L121.343 35.1611L120.631 33.7689L120.869 32.5357L118.813 30.8651V32.6153L117.628 32.0584H115.217L114.426 32.6551L113.122 32.5755L112.924 33.2518L112.41 33.1722L112.49 32.1777H110.632L110.158 26.4894L108.221 25.2165L107.154 25.853L106.205 24.1027L105.375 24.3016L105.059 23.8243L104.19 23.9834L103.676 22.6707H102.648L102.806 21.5967L101.107 21L100.237 22.1536L99.3281 21.8353L99.2095 22.432L95.8895 23.7447L95.3362 25.2563L96.9567 26.3303L95.5338 26.8077L96.1267 28.1999L94.9014 28.9955L93.3995 31.9391L92.6486 30.5468L89.3681 31.5811L89.0914 32.6153L87.2338 31.8595L86.1271 33.4507H85.8505L85.2971 32.138L85.5343 31.9391H85.7714L85.9295 31.1435L84.981 31.2628L84.8624 32.0584L83.6371 32.0982L83.321 31.4617L81.2262 32.2175L81.3843 32.6551L80.159 33.0529L83.6767 36.3545L83.0048 36.7125L83.0838 37.3887L82.1352 37.7069L83.2814 38.5821L83.1233 39.0992L81.74 39.7356L82.5305 41.2075L82.0562 42.003L82.9257 42.7588L81.1471 45.6229L80.831 45.3842L80.3567 45.066L80.159 45.782L76.8391 45.2251L77.4319 44.2306L74.7443 43.5942L74.27 42.7986L74.0329 43.3953L71.4638 42.2815L71.8195 43.5146L66.5629 46.5378L67.0371 48.1289L65.219 46.8162L64.5471 47.93L62.9662 47.8902L62.9267 49.4814L59.8438 49.362L59.409 48.6062L56.9981 50.8338L54.7057 51.5498L54.0338 52.9421L52.9667 52.783V52.9023V53.499L49.8838 52.7432L49.2119 54.6526L48.4214 54.4139L48.1052 57.4371L47.2357 57.3973L47.1962 56.363L47.631 56.1641L46.8405 55.2095L43.8367 55.0106L43.6786 55.4481L40.9119 55.3686L40.7143 54.5332L40.0029 54.8515L39.7657 54.3741L40.6748 54.0161L39.1333 53.7774V53.4194L38.6986 53.3797L37.5129 54.3343L36.3667 54.2946L36.2876 52.9421L35.8133 53.1012L34.7462 51.7885L35.0229 50.9532L33.8371 50.7543L33.9952 50.1576L32.9281 50.5554L32.691 49.1631H32.0981L29.529 51.9079H28.62L27.869 51.3907L28.2643 50.9532L27.711 50.2769H26.5252L26.3276 51.0725L27.3948 52.0272L26.5252 52.067L26.13 54.7719L28.1852 54.6923L28.699 53.7377L29.3314 53.9763L29.6081 54.0559L28.7386 55.8061L28.3038 55.2095L28.0271 58.1928L28.8176 58.6304L27.6319 59.0282L28.5014 60.3409L27.7505 60.3807L28.9362 62.0116L27.5133 63.1254L25.7743 62.5685L25.6952 62.8867L22.6914 63.7618L22.9681 65.0347L24.2724 65.6712L23.7586 66.3474L24.2329 66.7452L22.059 68.6546L22.731 69.291L21.6243 69.8877L21.7824 71.1208L22.8495 70.9617L23.561 71.638L22.7705 72.2346L23.0076 72.5529L22.5333 73.786L21.7824 73.3484L21.3871 74.1838L21.1105 74.7805L20.0038 74.3429L20.2014 75.2578L19.49 76.5307L18.7786 76.3716L17 79.5539L18.8181 81.5428L19.0552 82.7759L19.8457 82.3384L19.1738 83.2533L20.32 85.0035L20.4386 85.8786L21.8614 87.788L21.6243 88.8223L23.1657 89.1007L23.2843 89.5383L23.4819 90.4134L23.1262 90.7714L23.719 92.2432L22.5333 91.9647L22.3752 92.7205L22.9681 94.3515L23.4819 94.7095L22.889 96.6586L23.719 97.0166L23.8771 98.4089L24.9443 98.8464L25.221 100.994L24.3514 101.074L24.5095 101.909L23.7586 102.228L23.561 101.551L22.1776 101.671L21.98 103.262L23.7981 104.773L22.6519 105.37L23.0076 106.325L22.731 106.842L22.9286 107.12L21.98 107.637L21.901 108.513L22.6914 109.109L22.3752 110.104L23.2052 110.502L22.1381 111.456L22.3752 112.53L21.7429 112.729L21.8614 115.036L21.3476 116.23L20.7152 116.349L22.2567 117.662L21.7824 118.298L22.6519 119.69L23.9562 119.849L24.0352 120.367L24.1933 121.281L24.7071 121.321L25.3395 121.878L25.7348 121.679L26.9995 122.196L27.5529 121.719L29.1733 121.48L28.699 120.923L29.9638 120.446L30.7938 120.923L31.3867 119.929L30.9914 119.531L31.3076 118.577L33.1652 118.656L34.0743 119.332L35.6157 118.497L35.9319 119.173L36.7619 118.139L38.4614 120.367H39.2914L39.0938 121.162L40.0424 121.838L41.3862 121.52L41.7814 120.963L42.3348 121.043L42.8486 122.157L43.7576 121.401L44.4295 121.639L44.9829 122.793L46.0105 123.111L45.8524 122.713L46.6033 122.236L46.6429 122.952L48.6586 123.509L49.2119 125.1L49.8048 125.379L50.9114 124.146L53.2433 124.384L53.7571 125.657L55.2986 124.623L54.8243 124.424L55.2986 123.35L56.1681 122.515L56.01 122.196L56.4052 120.565L57.5514 120.884L57.67 120.247L57.5514 120.048L57.2352 119.133L57.7886 119.173L58.0257 118.099L58.8557 117.542L59.409 118.537L60.239 118.378L60.1995 117.94L61.6224 117.741H61.6619L62.0571 118.298L62.8476 117.383L62.6105 116.786L64.4681 115.832L64.7843 115.076L65.5748 115.354L64.9819 116.11L65.6143 116.985L65.8119 117.264L65.1005 117.423L65.2981 118.457L64.8633 119.094L65.6143 120.168L66.5629 119.213L68.1438 120.287L70.2781 119.849L71.3452 121.361L71.1476 122.236L71.8591 123.032L71.4638 123.986L72.2543 124.185L72.2938 124.225L73.7167 122.753L73.2424 122.196L76.009 121.52L76.2857 121.6L76.2067 122.753L76.6414 122.992H76.681L76.8391 123.788L77.3924 124.981L78.5781 125.18L78.6571 126.055L79.3686 126.771L81.1076 126.612L81.1471 126.97L79.7243 127.129L79.6848 129.078L80.3567 128.959L81.0681 129.237L81.1471 129.834L81.8586 129.714L81.5424 130.868L81.8586 131.823L80.5543 132.221L81.1471 132.976L81.0681 133.613L81.6214 134.17L81.8586 134.05L82.9257 135.641L82.3329 136.159L83.7162 137.551L83.5976 137.949L83.1233 137.79L83.5186 138.466L83.6371 139.102L84.3881 139.977L83.8743 140.693L83.479 141.648L83.7162 141.926L83.4395 142.483L83.7162 142.682L83.4 143.279L84.6252 144.273L85.2971 144.154L85.6924 144.671L86.3643 144.234L87.0362 144.512L86.4829 145.228L87.7081 145.705L87.7476 144.87L87.7871 144.353L88.5776 145.069L88.8938 144.512L89.6052 145.268L89.7238 144.313L90.1981 144.234L90.3957 145.109L90.9095 144.791L91.5814 145.029L92.5695 144.751L92.6486 145.109L92.9252 145.069L93.439 146.183L93.9529 146.024L94.4271 146.899L94.2295 147.655L94.8224 147.893L94.7038 148.291L95.85 148.41L96.2452 149.604L96.0871 150.041L95.929 150.36V150.956L96.5219 151.274L96.7195 150.399L98.5376 150.757L100.395 152.15L100.83 151.752L101.62 151.792L103.043 150.28L102.806 149.922L102.925 149.007L103.478 148.927L103.557 148.052H103.162L103.122 146.978L103.636 146.7L103.122 145.705L102.49 145.387L106.166 144.751L107.747 144.273L108.577 144.234L109.328 144.791L109.92 144.91L109.96 145.387L110.434 145.745L110.118 147.615L111.304 148.331L111.225 148.649L112.134 149.405L112.292 151.115L111.66 151.036L111.739 151.672L113.32 152.706L114.663 152.229L115.335 154.138L116.363 153.303L117.786 153.343L117.944 154.377L119.169 155.332L120.276 154.377L121.343 156.008L122.291 155.65L122.529 155.849L123.556 156.764L124.584 155.928H125.928L126.441 157.082L127.627 159.548L125.651 160.861L125.69 162.015L125.058 161.657L125.532 162.691L124.465 162.213L123.121 163.208L124.03 164.799L123.556 166.748L124.623 167.345L124.94 168.22L125.611 168.26L126.046 168.976L126.244 169.334L125.572 169.771L126.679 170.845L128.101 170.806L127.39 173.908L127.746 176.772L131.461 177.846L131.896 178.722L132.489 179L134.188 178.165L134.386 177.13L133.832 177.011L134.07 173.55L136.283 172.755L136.125 172.079L137.587 172.118L138.101 170.965L139.287 172.397L139.405 171.243L139.445 171.084L141.658 170.09L141.302 168.22L140.551 168.26L139.682 168.339L138.457 167.226L136.955 167.424L136.639 165.157L137.231 164.839L136.955 163.805L137.469 163.128L138.773 162.89L138.575 162.174L137.073 162.571L136.915 161.378L138.18 160.781L137.627 159.906L138.299 159.668L138.061 158.991L137.903 158.355L138.733 157.361L139.129 158.156L141.737 156.963L142.053 158.275L142.725 158.832L143.871 156.724L146.085 156.883L146.717 156.167L147.508 157.241L147.784 156.326L148.456 156.446L148.772 155.372L149.642 156.684L151.302 156.525L152.013 154.417L151.144 153.9L151.5 153.462L151.262 152.388L151.539 151.314L153.476 151.036L153.515 151.553L154.78 151.951L154.464 151.354L155.887 150.161L153.95 149.922L154.543 149.365L154.464 148.768L155.412 148.211L155.215 147.893L155.847 146.581L156.321 145.586L157.191 144.91L156.282 143.876L158.416 141.926L158.377 139.699L160.392 137.511L160.59 136.676H163.238L163.396 136.278L162.843 135.244L163.673 135.801L163.791 133.851L164.187 133.891L165.254 134.011L165.926 135.124L168.613 135.045L168.495 133.573L170.076 135.045L171.894 128.76L170.985 128.601L170.629 127.964L170.273 127.328L168.416 128.72H167.309L169.641 124.305L169.68 124.185L174.621 122.952L176.123 123.39L178.139 121.043L181.459 119.849L182.289 117.343L183 116.985L182.96 116.946L182.091 115.872Z" fill="url(#paint0_linear)"/>
<defs>
<filter id="filter0_d" x="13" y="17" width="173" height="174" filterUnits="userSpaceOnUse" color-interpolation-filters="sRGB">
<feFlood flood-opacity="0" result="BackgroundImageFix"/>
<feColorMatrix in="SourceAlpha" type="matrix" values="0 0 0 0 0 0 0 0 0 0 0 0 0 0 0 0 0 0 127 0"/>
<feOffset dy="4"/>
<feGaussianBlur stdDeviation="2"/>
<feColorMatrix type="matrix" values="0 0 0 0 0 0 0 0 0 0 0 0 0 0 0 0 0 0 0.25 0"/>
<feBlend mode="normal" in2="BackgroundImageFix" result="effect1_dropShadow"/>
<feBlend mode="normal" in="SourceGraphic" in2="effect1_dropShadow" result="shape"/>
</filter>
<linearGradient id="paint0_linear" x1="100" y1="21" x2="100" y2="179" gradientUnits="userSpaceOnUse">
<stop stop-color="#23844A"/>
<stop offset="1" stop-color="#B4E3AD"/>
</linearGradient>
</defs>
</svg>
