<svg width="44" height="45" viewBox="0 0 44 45" fill="none" xmlns="http://www.w3.org/2000/svg">
<g clip-path="url(#clip0)">
<path d="M14.4313 17.1445H29.9C30.0866 17.1445 30.2653 17.0704 30.3972 16.9386C30.529 16.8067 30.6031 16.6279 30.6031 16.4413V8.00391C30.6031 7.81743 30.529 7.63858 30.3972 7.50672C30.2653 7.37485 30.0866 7.30078 29.9 7.30078H14.4313C14.2448 7.30078 14.0659 7.37485 13.9341 7.50672C13.8022 7.63858 13.7281 7.81743 13.7281 8.00391V16.4413C13.7281 16.6279 13.8022 16.8067 13.9341 16.9386C14.0659 17.0704 14.2448 17.1445 14.4313 17.1445ZM15.1344 8.70703H29.1969V15.7383H15.1344V8.70703Z" fill="#23844A" stroke="#23844A" stroke-width="0.2"/>
<path d="M14.4313 26.9883C14.8485 26.9883 15.2564 26.8646 15.6032 26.6328C15.9501 26.4011 16.2204 26.0715 16.3802 25.6862C16.5398 25.3007 16.5815 24.8766 16.5002 24.4674C16.4187 24.0582 16.2179 23.6823 15.9228 23.3874C15.6278 23.0924 15.252 22.8915 14.8428 22.8101C14.4336 22.7286 14.0095 22.7705 13.6241 22.9301C13.2386 23.0898 12.9092 23.3601 12.6774 23.7071C12.4456 24.0539 12.3219 24.4617 12.3219 24.8789C12.3219 25.4384 12.5441 25.9749 12.9397 26.3705C13.3353 26.766 13.8718 26.9883 14.4313 26.9883ZM14.4313 24.1758C14.5703 24.1758 14.7063 24.2171 14.8219 24.2943C14.9375 24.3716 15.0276 24.4814 15.0809 24.6099C15.1341 24.7383 15.1481 24.8798 15.1209 25.0161C15.0938 25.1525 15.0269 25.2777 14.9285 25.3761C14.8301 25.4745 14.7048 25.5414 14.5685 25.5686C14.4321 25.5957 14.2907 25.5818 14.1622 25.5285C14.0337 25.4753 13.9239 25.3853 13.8467 25.2696C13.7694 25.154 13.7281 25.0181 13.7281 24.8789C13.7281 24.6924 13.8022 24.5136 13.9341 24.3818C14.0659 24.2499 14.2448 24.1758 14.4313 24.1758Z" fill="#23844A" stroke="#23844A" stroke-width="0.2"/>
<path d="M40.4469 43.1602V39.6446C40.4469 39.458 40.3728 39.2792 40.2409 39.1474C40.1091 39.0155 39.9303 38.9414 39.7437 38.9414L37.5928 38.9413V1.73585C37.5928 1.54937 37.5188 1.37052 37.3869 1.23865C37.2551 1.10679 37.0762 1.03271 36.8896 1.03271L7.28676 1.03285C7.10028 1.03285 6.92143 1.10693 6.78957 1.23879C6.65772 1.37065 6.58363 1.5495 6.58363 1.73598V38.9414H4.58752C4.40104 38.9414 4.2222 39.0155 4.09033 39.1474C3.95848 39.2792 3.8844 39.458 3.8844 39.6446V43.1602H1.0719V44.5664H43.2594V43.1602H40.4469ZM7.98988 2.43911L36.1866 2.43897V38.9413L34.8219 38.9414V4.48835C34.8219 4.30187 34.7478 4.12302 34.6159 3.99116C34.4841 3.85929 34.3053 3.78522 34.1187 3.78522H10.2125C10.026 3.78522 9.8472 3.85929 9.71533 3.99116C9.58348 4.12302 9.5094 4.30187 9.5094 4.48835V38.9414H7.98988V2.43911ZM33.4156 5.19147V38.9414H10.9156V5.19147H33.4156ZM39.0406 43.1602H5.29065V40.3477H39.0406V43.1602Z" fill="#23844A" stroke="#23844A" stroke-width="0.2"/>
</g>
<defs>
<clipPath id="clip0">
<rect width="43.5" height="45" fill="white"/>
</clipPath>
</defs>
</svg>
