<svg width="44" height="45" viewBox="0 0 44 45" fill="none" xmlns="http://www.w3.org/2000/svg">
<g clip-path="url(#clip0)">
<path d="M41.4023 10.3498L41.8397 6.79649H41.9195C42.67 6.79649 43.2803 6.17638 43.2803 5.41387V4.03124C43.2803 3.26872 42.67 2.64862 41.9195 2.64862H39.878V1.26599H38.5172V2.64862H36.4759C35.7254 2.64862 35.1149 3.26872 35.1149 4.03124V5.41387C35.1149 6.17638 35.7254 6.79649 36.4759 6.79649H36.5555L36.9923 10.3498C37.1012 11.2375 37.7156 11.9468 38.5165 12.2101V13.7096H37.1557C36.0302 13.7096 35.1144 14.6401 35.1144 15.7835C35.1144 16.6837 35.6851 17.444 36.4752 17.7302V17.8575C35.7199 17.8575 34.3761 17.0694 33.3009 16.2482C33.9705 15.9073 34.4346 15.2112 34.4346 14.4009C34.4346 11.8811 33.0988 10.253 31.0323 10.253C29.7851 10.253 28.9658 10.8773 28.2426 11.4283C27.6098 11.9101 27.0633 12.327 26.2692 12.327C24.3932 12.327 22.867 10.7764 22.867 8.87042C22.867 7.70279 23.9639 6.79649 24.9084 6.79649C26.0338 6.79649 26.9497 7.727 26.9497 8.87042C26.9497 9.25203 26.6448 9.56173 26.2692 9.56173C25.8936 9.56173 25.5888 9.25203 25.5888 8.87042V8.17912H24.2279V8.87042C24.2279 10.0139 25.1438 10.9444 26.2692 10.9444C27.3946 10.9444 28.3105 10.0139 28.3105 8.87042C28.3105 6.96447 26.7843 5.41387 24.9084 5.41387C23.8196 5.41387 22.818 6.00286 22.1866 6.86769C21.5551 6.00286 20.5535 5.41387 19.4648 5.41387C17.5888 5.41387 16.0626 6.96447 16.0626 8.87042C16.0626 10.0139 16.9785 10.9444 18.1039 10.9444C19.2294 10.9444 20.1452 10.0139 20.1452 8.87042V8.17912H18.7843V8.87042C18.7843 9.25203 18.4795 9.56173 18.1039 9.56173C17.7283 9.56173 17.4234 9.25203 17.4234 8.87042C17.4234 7.727 18.3393 6.79649 19.4648 6.79649C20.4092 6.79649 21.5061 7.70279 21.5061 8.87042C21.5061 10.7764 19.9799 12.327 18.1039 12.327C17.3098 12.327 16.7634 11.9101 16.1305 11.4283C15.4073 10.8773 14.588 10.253 13.3408 10.253C11.2743 10.253 9.93857 11.8811 9.93857 14.4009C9.93857 15.2112 10.4026 15.9073 11.0715 16.2482C9.99641 17.0694 8.65254 17.8575 7.89724 17.8575V17.7302C8.68723 17.444 9.25812 16.6837 9.25812 15.7835C9.25812 14.6401 8.34225 13.7096 7.2168 13.7096H5.85591V12.2101C6.65679 11.9461 7.27123 11.2375 7.38011 10.3498L7.81763 6.79649H7.89724C8.64777 6.79649 9.25812 6.17638 9.25812 5.41387V4.03124C9.25812 3.26872 8.64777 2.64862 7.89724 2.64862H5.85591V1.26599H4.49501V2.64862H2.45369C1.70316 2.64862 1.0928 3.26872 1.0928 4.03124V5.41387C1.0928 6.17638 1.70316 6.79649 2.45369 6.79649H2.5333L2.97015 10.3498C3.07902 11.2375 3.69345 11.9468 4.49434 12.2101V13.7096H3.13413C2.00868 13.7096 1.0928 14.6401 1.0928 15.7835C1.0928 16.6837 1.6637 17.444 2.45369 17.7302V44.1274H7.2168H7.89724H36.4759H37.1564H41.9195V17.7302C42.7094 17.444 43.2803 16.6837 43.2803 15.7835C43.2803 14.6401 42.3644 13.7096 41.239 13.7096H39.878V12.2101C40.679 11.9461 41.2934 11.2375 41.4023 10.3498ZM2.45369 4.03124H7.89724L7.8986 5.41387H2.45369V4.03124ZM6.44585 6.79649L6.27574 8.17912H4.07519L3.90508 6.79649H6.44585ZM4.24529 9.56173H6.10631L6.03078 10.1784C5.97634 10.6146 5.60891 10.9444 5.17547 10.9444C4.74202 10.9444 4.37458 10.6146 4.32082 10.1784L4.24529 9.56173ZM36.4759 20.6227C34.774 20.6227 31.8393 18.8454 30.2695 17.2498C29.125 16.0877 26.3652 15.0922 24.9084 15.0922H22.867V13.7096H25.5888C27.4552 13.7096 30.0137 15.0349 31.2317 16.2724C32.2502 17.3072 34.8339 19.2401 36.4759 19.2401V20.6227ZM36.4759 37.2142H35.1149V21.7986C35.5892 21.9293 36.0485 22.0054 36.4759 22.0054V37.2142ZM7.89724 22.0054C8.32456 22.0054 8.78385 21.9293 9.25812 21.7986V37.2142H7.89724V22.0054ZM10.619 21.2946C11.5703 20.864 12.5168 20.2847 13.3408 19.6846V37.2142H10.619V21.2946ZM14.7016 28.2272V18.5772C14.8316 18.4575 14.9548 18.34 15.0657 18.2273C15.5202 17.7655 16.4634 17.2733 17.4234 16.927V22.3662C15.7625 23.762 14.7016 25.8711 14.7016 28.2272C14.7016 30.5832 15.7625 32.6923 17.4234 34.0888V37.2142H14.7016V28.2272ZM22.867 34.4082V30.9924H24.2279C24.9784 30.9924 25.5888 30.3723 25.5888 29.6098V26.8445C25.5888 26.0821 24.9784 25.4619 24.2279 25.4619H22.867V22.0461C25.9242 22.3911 28.3105 25.0298 28.3105 28.2272C28.3105 31.4244 25.9242 34.0632 22.867 34.4082ZM16.0626 28.2272C16.0626 25.0298 18.4489 22.3911 21.5061 22.0461V25.4619H20.1452C19.3947 25.4619 18.7843 26.0821 18.7843 26.8445V29.6098C18.7843 30.3723 19.3947 30.9924 20.1452 30.9924H21.5061V34.4082C18.4489 34.0632 16.0626 31.4244 16.0626 28.2272ZM21.5061 29.6098H20.1452V26.8445H21.5061V29.6098ZM22.867 26.8445H24.2279V29.6098H22.867V26.8445ZM22.867 20.658V16.4749H24.9084C25.1083 16.4749 25.3432 16.5059 25.5888 16.5495V21.462C24.7579 21.0293 23.84 20.7472 22.867 20.658ZM21.5061 20.658C20.5331 20.7479 19.6152 21.0293 18.7843 21.4627V16.5502C19.0299 16.5059 19.2648 16.4749 19.4648 16.4749H21.5061V20.658ZM18.7843 34.9924C19.6152 35.4251 20.5331 35.7072 21.5061 35.797V37.2142H18.7843V34.9924ZM22.867 35.7963C23.84 35.7064 24.7579 35.4251 25.5888 34.9917V37.2142H22.867V35.7963ZM26.9497 34.0888C28.6106 32.693 29.6715 30.5839 29.6715 28.2272C29.6715 25.8704 28.6106 23.762 26.9497 22.3655V16.9263C27.9091 17.2733 28.8529 17.7655 29.3074 18.2266C29.4183 18.3393 29.5421 18.4568 29.6715 18.5765V28.2272V37.2142H26.9497V34.0888ZM31.0323 19.6846C31.8564 20.2847 32.8029 20.864 33.7541 21.2946V37.2142H31.0323V19.6846ZM32.3933 15.0922C32.0176 15.0922 31.7128 14.7826 31.7128 14.4009C31.7128 14.0193 32.0176 13.7096 32.3933 13.7096C32.7689 13.7096 33.0736 14.0193 33.0736 14.4009C33.0736 14.7826 32.7689 15.0922 32.3933 15.0922ZM31.0323 11.6357C31.7516 11.6357 32.2176 11.9316 32.5218 12.3401C32.4789 12.3374 32.4374 12.327 32.3933 12.327C31.4304 12.327 30.6262 13.0093 30.4124 13.9225C29.815 13.5534 29.1631 13.2208 28.4868 12.9547C28.6868 12.8171 28.8759 12.6733 29.059 12.5344C29.6919 12.0525 30.2382 11.6357 31.0323 11.6357ZM22.1866 11.3502C22.3982 11.7076 22.6506 12.0373 22.9426 12.327H21.4313C21.7225 12.0366 21.9749 11.7076 22.1866 11.3502ZM13.3408 11.6357C14.1349 11.6357 14.6813 12.0525 15.3141 12.5344C15.4972 12.6733 15.6856 12.8171 15.8863 12.9547C15.21 13.2202 14.5588 13.5534 13.9607 13.9225C13.747 13.0093 12.9427 12.327 11.9799 12.327C11.9357 12.327 11.8942 12.3374 11.8513 12.3401C12.1554 11.9316 12.6216 11.6357 13.3408 11.6357ZM11.9799 13.7096C12.3555 13.7096 12.6603 14.0193 12.6603 14.4009C12.6603 14.7826 12.3555 15.0922 11.9799 15.0922C11.6043 15.0922 11.2995 14.7826 11.2995 14.4009C11.2995 14.0193 11.6043 13.7096 11.9799 13.7096ZM13.1414 16.2724C14.3594 15.0349 16.9179 13.7096 18.7843 13.7096H21.5061V15.0922H19.4648C18.0079 15.0922 15.2481 16.0877 14.1036 17.2498C12.5338 18.8454 9.59903 20.6227 7.89724 20.6227V19.2401C9.53915 19.2401 12.1228 17.3072 13.1414 16.2724ZM3.13413 15.0922H7.2168C7.59239 15.0922 7.89724 15.4019 7.89724 15.7835C7.89724 16.1652 7.59239 16.4749 7.2168 16.4749H3.13413C2.75854 16.4749 2.45369 16.1652 2.45369 15.7835C2.45369 15.4019 2.75854 15.0922 3.13413 15.0922ZM3.81457 42.7447V17.8575H6.53636V42.7447H3.81457ZM7.89724 38.5969H21.5061V42.7447H7.89724V38.5969ZM22.867 42.7447V38.5969H36.4759V42.7447H22.867ZM37.8367 42.7447V17.8575H40.5585V42.7447H37.8367ZM41.9195 15.7835C41.9195 16.1652 41.6146 16.4749 41.239 16.4749H37.1564C36.7808 16.4749 36.4759 16.1652 36.4759 15.7835C36.4759 15.4019 36.7808 15.0922 37.1564 15.0922H41.239C41.6146 15.0922 41.9195 15.4019 41.9195 15.7835ZM36.4759 4.03124H41.9195V5.41387H36.4759V4.03124ZM40.4681 6.79649L40.2979 8.17912H38.0967L37.9266 6.79649H40.4681ZM38.2674 9.56173H40.1285L40.053 10.1784C39.9985 10.6146 39.6311 10.9444 39.1977 10.9444C38.7641 10.9444 38.3968 10.6146 38.343 10.1784L38.2674 9.56173Z" fill="#23844A"/>
</g>
<defs>
<clipPath id="clip0">
<rect width="43.5938" height="45" fill="white"/>
</clipPath>
</defs>
</svg>
