<svg width="44" height="45" viewBox="0 0 44 45" fill="none" xmlns="http://www.w3.org/2000/svg">
<g clip-path="url(#clip0)">
<path d="M42.587 9.14147H42.1581V6.01245C42.1581 5.82507 42.085 5.64535 41.9551 5.51285C41.825 5.38034 41.6488 5.30589 41.4648 5.30589H41.0026V3.79185C41.0026 3.60447 40.9295 3.42475 40.7995 3.29226C40.6695 3.15975 40.4933 3.0853 40.3093 3.0853C40.1255 3.0853 39.9492 3.15975 39.8192 3.29226C39.6892 3.42475 39.6162 3.60447 39.6162 3.79185V5.30589H39.1538C38.97 5.30589 38.7937 5.38034 38.6637 5.51285C38.5336 5.64535 38.4607 5.82507 38.4607 6.01245V9.14147H38.0316C37.8478 9.14147 37.6715 9.21592 37.5414 9.34841C37.4115 9.48092 37.3383 9.66064 37.3383 9.84802V16.6108H36.2161V15.366C36.226 13.4818 35.8704 11.6142 35.1698 9.87057C34.469 8.12692 33.4373 6.54158 32.1335 5.2057C30.8298 3.86982 29.2798 2.80973 27.5729 2.08635C25.8659 1.36299 24.0355 0.990601 22.1867 0.990601C20.338 0.990601 18.5077 1.36299 16.8006 2.08635C15.0936 2.80973 13.5437 3.86982 12.24 5.2057C10.9363 6.54158 9.90442 8.12692 9.20377 9.87057C8.50314 11.6142 8.14751 13.4818 8.15733 15.366V16.6108H7.0347V9.84802C7.0347 9.66064 6.96168 9.48092 6.83167 9.34841C6.70166 9.21592 6.52533 9.14147 6.34148 9.14147H5.91247V6.01245C5.91247 5.82507 5.83945 5.64535 5.70944 5.51285C5.57943 5.38034 5.40311 5.30589 5.21926 5.30589H4.75697V3.79185C4.75697 3.60447 4.68394 3.42475 4.55394 3.29226C4.42393 3.15975 4.24761 3.0853 4.06376 3.0853C3.87991 3.0853 3.70358 3.15975 3.57357 3.29226C3.44356 3.42475 3.37054 3.60447 3.37054 3.79185V5.30589H2.90826C2.72441 5.30589 2.54808 5.38034 2.41807 5.51285C2.28806 5.64535 2.21503 5.82507 2.21503 6.01245V9.14147H1.78603C1.60218 9.14147 1.42585 9.21592 1.29584 9.34841C1.16584 9.48092 1.0928 9.66064 1.0928 9.84802V43.3588C1.0928 43.5462 1.16584 43.726 1.29584 43.8584C1.42585 43.9909 1.60218 44.0654 1.78603 44.0654H6.34148C6.52533 44.0654 6.70166 43.9909 6.83167 43.8584C6.96168 43.726 7.0347 43.5462 7.0347 43.3588V39.4171H8.15693V41.1382C8.15693 41.3256 8.22997 41.5054 8.35997 41.6378C8.48997 41.7703 8.6663 41.8448 8.85016 41.8448H35.523C35.7068 41.8448 35.8831 41.7703 36.0131 41.6378C36.1432 41.5054 36.2161 41.3256 36.2161 41.1382V39.4171H37.3383V43.3588C37.3383 43.5462 37.4115 43.726 37.5414 43.8584C37.6715 43.9909 37.8478 44.0654 38.0316 44.0654H42.587C42.771 44.0654 42.9473 43.9909 43.0772 43.8584C43.2073 43.726 43.2803 43.5462 43.2803 43.3588V9.84802C43.2803 9.66064 43.2073 9.48092 43.0772 9.34841C42.9473 9.21592 42.771 9.14147 42.587 9.14147ZM39.8471 6.71901H40.772V9.14147H39.8471V6.71901ZM9.54338 38.0039V37.3386H34.8297V38.0039H9.54338ZM7.0347 23.2725H8.15693V32.7552H7.0347V23.2725ZM22.1826 16.4993H34.8297V17.1651H9.54338V16.4993H22.1826ZM27.6829 35.9255V18.5781H30.1915V35.9255H27.6829ZM22.8798 35.9255V18.5781H26.2963V35.9255H22.8798ZM14.1816 35.9255V18.5781H16.6902V35.9255H14.1816ZM9.54378 35.9255V18.5781H12.7952V35.9255H9.54378ZM18.0768 18.5781H21.4933V35.9255H18.0768V18.5781ZM31.5779 18.5781H34.8293V35.9255H31.5779V18.5781ZM36.2161 23.2725H37.3383V32.7552H36.2161V23.2725ZM37.3383 21.8595H36.2161V18.0238H37.3383V21.8595ZM34.823 15.0863H22.8798V2.49988C26.0588 2.68197 29.0538 4.07866 31.2674 6.41146C33.481 8.74425 34.7506 11.8417 34.823 15.0863ZM21.4933 2.49988V15.0863H9.5501C9.62253 11.8417 10.8921 8.74425 13.1057 6.41146C15.3193 4.07866 18.3143 2.68197 21.4933 2.49988ZM8.15693 18.0238V21.8595H7.0347V18.0238H8.15693ZM3.60147 6.71901H4.52643V9.14147H3.60147V6.71901ZM5.64827 42.6523H2.47925V10.5546H5.64827V42.6523ZM7.0347 34.1684H8.15693V38.0039H7.0347V34.1684ZM9.54338 39.4171H21.4933V40.4317H9.54338V39.4171ZM22.8798 40.4317V39.4171H34.8297V40.4317H22.8798ZM36.2161 38.0039V34.1684H37.3383V38.0039H36.2161ZM41.8939 42.6523H38.7249V10.5546H41.8939V42.6523Z" fill="#23844A"/>
</g>
<defs>
<clipPath id="clip0">
<rect width="43.5938" height="45" fill="white"/>
</clipPath>
</defs>
</svg>
