<svg width="31" height="45" viewBox="0 0 31 45" fill="none" xmlns="http://www.w3.org/2000/svg">
<path d="M27.3729 1.34998H23.247C22.9075 1.34998 22.6329 1.62505 22.6329 1.96408C22.6329 2.30312 22.9075 2.57819 23.247 2.57819H27.3729C27.9375 2.57819 28.3965 3.03717 28.3965 3.6017V7.09539H27.205C26.415 7.09539 25.7722 7.73827 25.7722 8.5283V9.51502C25.7722 10.305 26.415 10.9479 27.205 10.9479H28.3965V12.4448H27.205C26.415 12.4448 25.7722 13.0877 25.7722 13.8777V14.8644C25.7722 15.6544 26.415 16.2974 27.205 16.2974H28.3965V41.0212C28.3965 41.5857 27.9375 42.0447 27.3729 42.0447H2.93732C2.3728 42.0447 1.91381 41.5857 1.91381 41.0212V22.2229C1.91381 21.8838 1.63907 21.6088 1.29971 21.6088C0.960355 21.6088 0.685608 21.8838 0.685608 22.2229V41.0212C0.685608 42.2628 1.69568 43.2729 2.93732 43.2729H27.3729C28.6146 43.2729 29.6246 42.2628 29.6246 41.0212V3.6017C29.6246 2.36005 28.6146 1.34998 27.3729 1.34998ZM27.205 9.71971C27.0921 9.71971 27.0003 9.62793 27.0003 9.51502V8.5283C27.0003 8.41539 27.0921 8.32359 27.205 8.32359H28.3965V9.71971H27.205ZM27.205 15.0691C27.0921 15.0691 27.0003 14.9773 27.0003 14.8644V13.8777C27.0003 13.7648 27.0921 13.673 27.205 13.673H28.3965V15.0691H27.205Z" fill="#23844A" stroke="#23844A" stroke-width="0.2"/>
<path d="M1.29971 23.9187C1.63907 23.9187 1.91381 23.6439 1.91381 23.3046V20.2059H3.10525C3.89526 20.2059 4.53816 19.563 4.53816 18.773V17.7863C4.53816 16.9963 3.89526 16.3534 3.10525 16.3534H1.91381V14.8566H3.10525C3.89526 14.8566 4.53816 14.2136 4.53816 13.4236V12.4369C4.53816 11.6468 3.89526 11.0039 3.10525 11.0039H1.91381V7.51026C1.91381 6.94574 2.3728 6.48676 2.93732 6.48676H28.8181C29.1576 6.48676 29.4322 6.21169 29.4322 5.87265C29.4322 5.53361 29.1576 5.25854 28.8181 5.25854H2.93732C1.69568 5.25854 0.685608 6.26863 0.685608 7.51026V23.3046C0.685608 23.6439 0.960355 23.9187 1.29971 23.9187ZM3.10525 17.5816C3.21815 17.5816 3.30995 17.6734 3.30995 17.7863V18.773C3.30995 18.8859 3.21815 18.9777 3.10525 18.9777H1.91381V17.5816H3.10525ZM3.10525 12.2322C3.21815 12.2322 3.30995 12.324 3.30995 12.4369V13.4236C3.30995 13.5365 3.21815 13.6283 3.10525 13.6283H1.91381V12.2322H3.10525Z" fill="#23844A" stroke="#23844A" stroke-width="0.2"/>
<path d="M24.7884 26.5559H5.51989C4.57282 26.5559 3.80231 27.3264 3.80231 28.2732C3.80231 29.2199 4.57282 29.9904 5.51989 29.9904H24.7881C25.7351 29.9904 26.5057 29.2199 26.5057 28.2732C26.5057 27.3264 25.7351 26.5559 24.7884 26.5559ZM24.7884 28.7622H5.51989C5.24993 28.7622 5.03051 28.5428 5.03051 28.2732C5.03051 28.0035 5.24993 27.7841 5.51989 27.7841H24.7881C25.058 27.7841 25.2775 28.0035 25.2775 28.2732C25.2775 28.5428 25.058 28.7622 24.7884 28.7622Z" fill="#23844A" stroke="#23844A" stroke-width="0.2"/>
<path d="M24.7884 31.0714H5.51989C4.57282 31.0714 3.80231 31.8419 3.80231 32.7887C3.80231 33.7354 4.57282 34.5059 5.51989 34.5059H24.7881C25.7351 34.5059 26.5057 33.7354 26.5057 32.7887C26.5057 31.8419 25.7351 31.0714 24.7884 31.0714ZM24.7884 33.2777H5.51989C5.24993 33.2777 5.03051 33.0583 5.03051 32.7887C5.03051 32.519 5.24993 32.2996 5.51989 32.2996H24.7881C25.058 32.2996 25.2775 32.519 25.2775 32.7887C25.2775 33.0583 25.058 33.2777 24.7884 33.2777Z" fill="#23844A" stroke="#23844A" stroke-width="0.2"/>
<path d="M24.7884 35.5873H5.51989C4.57282 35.5873 3.80231 36.3573 3.80231 37.3045C3.80231 38.2513 4.57282 39.0218 5.51989 39.0218H24.7881C25.7351 39.0218 26.5057 38.2513 26.5057 37.3045C26.5057 36.3573 25.7351 35.5873 24.7884 35.5873ZM24.7884 37.7935H5.51989C5.24993 37.7935 5.03051 37.5742 5.03051 37.3045C5.03051 37.0349 5.24993 36.8155 5.51989 36.8155H24.7881C25.058 36.8155 25.2775 37.0349 25.2775 37.3045C25.2775 37.5742 25.058 37.7935 24.7884 37.7935Z" fill="#23844A" stroke="#23844A" stroke-width="0.2"/>
<path d="M24.7884 40.1027H5.51989C4.57282 40.1027 3.80231 40.8731 3.80231 41.82C3.80231 42.7667 4.57282 43.5371 5.51989 43.5371H24.7881C25.7351 43.5371 26.5057 42.7667 26.5057 41.82C26.5057 40.8731 25.7351 40.1027 24.7884 40.1027ZM24.7884 42.3089H5.51989C5.24993 42.3089 5.03051 42.0896 5.03051 41.82C5.03051 41.5503 5.24993 41.3309 5.51989 41.3309H24.7881C25.058 41.3309 25.2775 41.5503 25.2775 41.82C25.2775 42.0896 25.058 42.3089 24.7884 42.3089Z" fill="#23844A" stroke="#23844A" stroke-width="0.2"/>
<path d="M23.0099 9.72046H7.30099C6.51097 9.72046 5.86807 10.3634 5.86807 11.1534V20.2421C5.86807 21.0321 6.51097 21.6751 7.30099 21.6751H20.6681C21.007 21.6751 21.2822 21.4 21.2822 21.061C21.2822 20.7219 21.007 20.4468 20.6681 20.4468H7.30099C7.18808 20.4468 7.09629 20.355 7.09629 20.2421V11.1534C7.09629 11.0405 7.18808 10.9487 7.30099 10.9487H23.0099C23.1228 10.9487 23.2147 11.0405 23.2147 11.1534V20.2421C23.2147 20.355 23.1228 20.4468 23.0099 20.4468H20.6681C20.329 20.4468 20.054 20.7219 20.054 21.061C20.054 21.4 20.329 21.6751 20.6681 21.6751H23.0099C23.7999 21.6751 24.4429 21.0321 24.4429 20.2421V11.1534C24.4429 10.3634 23.7999 9.72046 23.0099 9.72046Z" fill="#23844A"/>
<path d="M20.6681 21.6751H7.30099C6.51097 21.6751 5.86807 21.0321 5.86807 20.2421V11.1534C5.86807 10.3634 6.51097 9.72046 7.30099 9.72046H23.0099C23.7999 9.72046 24.4429 10.3634 24.4429 11.1534V20.2421C24.4429 21.0321 23.7999 21.6751 23.0099 21.6751H20.6681ZM20.6681 21.6751C21.007 21.6751 21.2822 21.4 21.2822 21.061C21.2822 20.7219 21.007 20.4468 20.6681 20.4468V21.6751ZM20.6681 21.6751C20.329 21.6751 20.054 21.4 20.054 21.061C20.054 20.7219 20.329 20.4468 20.6681 20.4468V21.6751ZM20.6681 20.4468H7.30099C7.18808 20.4468 7.09629 20.355 7.09629 20.2421V11.1534C7.09629 11.0405 7.18808 10.9487 7.30099 10.9487H23.0099C23.1228 10.9487 23.2147 11.0405 23.2147 11.1534V20.2421C23.2147 20.355 23.1228 20.4468 23.0099 20.4468H20.6681Z" stroke="#23844A" stroke-width="0.2"/>
<path d="M13.1816 24.5009C13.521 24.499 13.7944 24.2226 13.7925 23.8836C13.7909 23.5455 13.5162 23.2727 13.1787 23.2727C13.1774 23.2727 13.1765 23.2727 13.1752 23.2727H13.1675C12.8285 23.2743 12.5589 23.5507 12.5605 23.8901C12.5624 24.2281 12.8406 24.5006 13.1784 24.5006C13.1797 24.5009 13.1806 24.5009 13.1816 24.5009Z" fill="#23844A" stroke="#23844A" stroke-width="0.2"/>
<path d="M15.1626 24.4952C15.5017 24.4932 15.775 24.2169 15.7735 23.8776C15.7715 23.5398 15.4972 23.267 15.1594 23.267C15.1581 23.267 15.1571 23.267 15.1562 23.267H15.1486C14.8092 23.2685 14.5395 23.545 14.5415 23.8843C14.543 24.2224 14.8216 24.4949 15.1594 24.4949C15.1604 24.4952 15.1616 24.4952 15.1626 24.4952Z" fill="#23844A" stroke="#23844A" stroke-width="0.2"/>
<path d="M17.7538 23.8766C17.7538 23.5375 17.4787 23.2625 17.1397 23.2625H17.1319C16.7926 23.2625 16.5218 23.5375 16.5218 23.8766C16.5218 24.2159 16.8003 24.4907 17.1397 24.4907C17.4787 24.4907 17.7538 24.2159 17.7538 23.8766Z" fill="#23844A" stroke="#23844A" stroke-width="0.2"/>
<path d="M19.4307 18.3624C19.77 18.3624 20.0448 18.0876 20.0448 17.7483C20.0448 15.0526 17.8519 12.8597 15.1563 12.8597C12.4606 12.8597 10.2674 15.0526 10.2674 17.7483C10.2674 18.0876 10.5421 18.3624 10.8815 18.3624C11.2205 18.3624 11.4956 18.0876 11.4956 17.7483C11.4956 15.73 13.1377 14.0879 15.1563 14.0879C17.1745 14.0879 18.8166 15.73 18.8166 17.7483C18.8166 18.0876 19.0917 18.3624 19.4307 18.3624Z" fill="#23844A" stroke="#23844A" stroke-width="0.2"/>
<path d="M16.6067 17.7481C16.6067 18.0875 16.8818 18.3623 17.2208 18.3623C17.5601 18.3623 17.8349 18.0875 17.8349 17.7481C17.8349 16.2705 16.6327 15.0681 15.155 15.0681C13.6773 15.0681 12.4746 16.2705 12.4746 17.7481C12.4746 18.0875 12.7497 18.3623 13.0888 18.3623C13.4281 18.3623 13.7028 18.0875 13.7028 17.7481C13.7028 16.9476 14.3544 16.2963 15.155 16.2963C15.9556 16.2963 16.6067 16.9476 16.6067 17.7481Z" fill="#23844A" stroke="#23844A" stroke-width="0.2"/>
<path d="M15.1521 17.1344C14.8127 17.1344 14.5417 17.4095 14.5417 17.7485C14.5417 18.0878 14.8203 18.3626 15.1597 18.3626C15.4987 18.3626 15.7738 18.0878 15.7738 17.7485C15.7738 17.4095 15.4987 17.1344 15.1597 17.1344H15.1521Z" fill="#23844A" stroke="#23844A" stroke-width="0.2"/>
</svg>
