<svg width="44" height="45" viewBox="0 0 44 45" fill="none" xmlns="http://www.w3.org/2000/svg">
<g clip-path="url(#clip0)">
<path d="M28.7557 1.06543C20.8188 1.06543 14.3616 7.52265 14.3616 15.4595C14.3616 17.224 14.6751 18.9387 15.2941 20.567L1.53087 34.3312C1.33415 34.528 1.2236 34.7947 1.2236 35.0729V42.6043C1.2236 43.1837 1.69324 43.6532 2.27258 43.6532H8.4791C8.757 43.6532 9.0235 43.5431 9.22022 43.3467L11.3118 41.2583C11.5089 41.0615 11.6196 40.7945 11.6196 40.5159V37.9477H14.1846C14.7639 37.9477 15.2336 37.4781 15.2336 36.8987V35.8706H16.2617C16.8411 35.8706 17.3108 35.4009 17.3108 34.8216V32.5645H19.568C19.8461 32.5645 20.1129 32.4539 20.3096 32.2573L23.6468 28.92C25.2754 29.5396 26.9903 29.8534 28.7556 29.8534C36.6924 29.8534 43.1497 23.3962 43.1497 15.4593C43.1497 7.52265 36.6926 1.06543 28.7557 1.06543ZM28.7557 27.7556C27.0387 27.7556 25.378 27.4088 23.8199 26.7247C23.417 26.5479 22.9632 26.6452 22.6661 26.9348C22.6628 26.9379 22.6597 26.9402 22.6565 26.9435L19.1336 30.4666H16.262C15.6826 30.4666 15.213 30.9361 15.213 31.5155V33.7727H14.1848C13.6055 33.7727 13.1358 34.2423 13.1358 34.8216V35.8497H10.5707C9.99146 35.8497 9.52175 36.3194 9.52175 36.8987V40.081L8.04507 41.5553H3.32172V40.0729L16.143 27.2516C16.5118 26.8829 16.5118 26.2852 16.143 25.9165C15.7743 25.5479 15.1768 25.5478 14.8078 25.9165L3.32172 37.4027V35.5075L17.2706 21.5577C17.2737 21.5546 17.2762 21.5516 17.279 21.5485C17.5687 21.2517 17.6663 20.7979 17.4895 20.3947C16.8061 18.8366 16.4597 17.1761 16.4597 15.4596C16.4597 8.67951 21.9758 3.16347 28.7558 3.16347C35.5361 3.16347 41.052 8.67943 41.052 15.4596C41.0518 22.2396 35.5357 27.7556 28.7557 27.7556Z" fill="#23844A"/>
<path d="M33.1363 7.14929C30.9697 7.14929 29.2071 8.91187 29.2071 11.0784C29.2071 13.245 30.9697 15.0076 33.1363 15.0076C35.3029 15.0076 37.0655 13.245 37.0655 11.0784C37.0655 8.91187 35.3029 7.14929 33.1363 7.14929ZM33.1363 12.9096C32.1266 12.9096 31.3051 12.0882 31.3051 11.0784C31.3051 10.0687 32.1266 9.24725 33.1363 9.24725C34.146 9.24725 34.9675 10.0687 34.9675 11.0784C34.9675 12.0882 34.146 12.9096 33.1363 12.9096Z" fill="#23844A"/>
</g>
<defs>
<clipPath id="clip0">
<rect width="43.5938" height="45" fill="white"/>
</clipPath>
</defs>
</svg>
