<svg width="43" height="45" viewBox="0 0 43 45" fill="none" xmlns="http://www.w3.org/2000/svg">
<g clip-path="url(#clip0)">
<path d="M33.2196 0.696533C28.6375 0.696533 24.8464 4.25446 24.4714 8.74404H1.02972V44.5918H33.2197C38.0482 44.5918 41.9988 40.6413 41.9988 35.8128V9.47561C41.9986 4.64712 38.0481 0.696533 33.2196 0.696533ZM2.49284 15.7362L11.4795 10.2073H16.6144L2.49284 18.4449V15.7362ZM24.4405 24.6327L21.7717 23.9656L24.4405 22.4407V24.6327ZM24.4405 20.7555L19.7202 23.4528L15.874 22.4913L24.4406 17.3497V20.7555H24.4405ZM24.4405 15.6433L13.8667 21.9896L10.0099 21.0255L24.4405 12.238V15.6433ZM23.2621 25.8462L19.0069 28.3753L2.49284 23.5587V20.6546L23.2621 25.8462ZM7.73182 35.0767L2.49284 33.1121V29.4898L12.0869 32.4882L7.73182 35.0767ZM2.49284 27.9568V25.0828L17.2867 29.3978L13.6695 31.5477L13.6973 31.4585L2.49284 27.9568ZM2.49284 34.6747L6.11979 36.0348L2.49284 38.1904V34.6747ZM2.49284 39.8925L24.4405 26.8479V30.2771L2.49284 43.0093V39.8925ZM24.4405 31.9687V35.39L11.0758 43.1287H5.20304L24.4405 31.9687ZM24.4405 10.5249L8.01543 20.5268L3.68402 19.4441L19.5183 10.2072H24.4406V10.5249H24.4405ZM8.68723 10.2072L2.49284 14.0182V10.2072H8.68723ZM13.9958 43.1287L24.5261 37.0313C24.8824 39.5685 26.3335 41.7664 28.3827 43.1287H13.9958ZM33.2196 43.1287C29.1959 43.1287 25.9038 39.8366 25.9038 35.8128C25.9038 31.7891 29.1959 28.497 33.2196 28.497C37.2432 28.497 40.5355 31.7891 40.5355 35.8128C40.5355 39.8366 37.2434 43.1287 33.2196 43.1287ZM33.2196 27.0338C30.175 27.0338 27.4799 28.6048 25.9038 30.9759V9.47561C25.9038 5.4519 29.1959 2.15974 33.2196 2.15974C37.2432 2.15974 40.5355 5.4519 40.5355 9.47561V30.9759C38.9594 28.6048 36.2643 27.0338 33.2196 27.0338Z" fill="#23844A" stroke="#23844A" stroke-width="0.2"/>
<path d="M33.2198 30.6919C30.3666 30.6919 28.0987 32.9598 28.0987 35.8129C28.0987 38.6662 30.3666 40.934 33.2198 40.934C36.073 40.934 38.341 38.6662 38.341 35.8129C38.341 32.9598 36.073 30.6919 33.2198 30.6919ZM33.2198 39.4708C31.1714 39.4708 29.5619 37.8615 29.5619 35.8129C29.5619 33.7644 31.1712 32.1549 33.2198 32.1549C35.2683 32.1549 36.8778 33.7644 36.8778 35.8129C36.8778 37.8613 35.2683 39.4708 33.2198 39.4708Z" fill="#23844A" stroke="#23844A" stroke-width="0.2"/>
</g>
<defs>
<clipPath id="clip0">
<rect width="42.2727" height="45" fill="white"/>
</clipPath>
</defs>
</svg>
