<svg width="45" height="45" viewBox="0 0 45 45" fill="none" xmlns="http://www.w3.org/2000/svg">
<path d="M44.1211 43.2423H43.5441V40.8859H43.5442C44.0295 40.8859 44.4231 40.4924 44.4231 40.007C44.4231 39.5217 44.0295 39.1281 43.5442 39.1281H42.005C41.9078 32.4862 40.7113 22.823 37.5954 14.5959C33.9792 5.0472 28.7593 0 22.5 0C16.2535 0 11.04 5.02312 7.42332 14.5264C4.29354 22.7501 3.09225 32.4503 2.99496 39.128H1.45591C0.970487 39.128 0.577001 39.5216 0.577001 40.0069C0.577001 40.4923 0.970487 40.8859 1.45591 40.8859V43.2422H0.878905C0.393486 43.2422 0 43.6358 0 44.1211C0 44.6065 0.393486 45 0.878905 45H44.1211C44.6064 45 45 44.6065 45 44.1211C45 43.6358 44.6065 43.2423 44.1211 43.2423ZM22.5 1.75781C29.4045 1.75781 33.6259 9.07777 35.9516 15.2184C38.9838 23.2248 40.1501 32.6428 40.2472 39.128H34.9752C34.9094 33.0681 34.1651 24.2916 32.2385 16.8128C31.2091 12.8172 29.9598 9.65485 28.5254 7.41382C26.7837 4.69256 24.7564 3.31277 22.5 3.31277C20.2504 3.31277 18.2279 4.68412 16.4885 7.38886C15.0536 9.62023 13.8036 12.7696 12.7733 16.7496C10.8379 24.2253 10.0907 33.0356 10.025 39.128H4.75241C4.96106 23.7303 10.6166 1.75781 22.5 1.75781ZM3.2138 43.2422V40.8859H12.5143C13.8413 40.8859 14.9575 41.8911 15.262 43.2422H3.2138ZM27.9512 43.2423H17.0489C16.9199 42.3554 16.5631 41.547 16.0443 40.8859H18.5635C19.0489 40.8859 19.4424 40.4924 19.4424 40.007C19.4424 39.5217 19.0489 39.1281 18.5635 39.1281H11.7828C11.8482 33.1449 12.5807 24.5072 14.4749 17.1902C16.4982 9.37484 19.3482 5.07066 22.5 5.07066C25.6586 5.07066 28.5126 9.39663 30.5362 17.2516C32.4222 24.5722 33.1518 33.177 33.2173 39.1281H25.504C25.0186 39.1281 24.6251 39.5217 24.6251 40.007C24.6251 40.4924 25.0186 40.8859 25.504 40.8859H28.9558C28.437 41.547 28.0802 42.3554 27.9512 43.2423ZM29.7381 43.2423C30.0426 41.8911 31.1588 40.8859 32.4857 40.8859H41.7862V43.2423H29.7381Z" fill="#23844A"/>
<path d="M22.9477 39.1281H22.9059C22.4205 39.1281 22.027 39.5216 22.027 40.007C22.027 40.4923 22.4205 40.8859 22.9059 40.8859H22.9477C23.433 40.8859 23.8265 40.4923 23.8265 40.007C23.8265 39.5216 23.4331 39.1281 22.9477 39.1281Z" fill="#23844A"/>
</svg>
