<svg width="138" height="54" viewBox="0 0 138 54" fill="none" xmlns="http://www.w3.org/2000/svg">
<path d="M56.948 34.2306H57.9008C57.9008 34.2306 58.2288 34.2553 58.4207 34.5262C58.6126 34.7963 58.6632 35.2198 58.6632 35.2198V42.8781C58.6632 42.8781 58.6884 43.1348 58.2801 43.3667C57.871 43.5979 56.9473 43.5979 56.9473 43.5979V44.1374H65.6628L66.8372 41.5163L66.6461 41.2208C66.6461 41.2208 65.4709 42.4412 64.7294 42.9425C63.9893 43.4431 63.0953 43.5845 63.0953 43.5845H60.6944C60.6944 43.5845 60.2846 43.6099 60.0295 43.3787C59.7736 43.1475 59.6977 42.6851 59.6977 42.6851V39.0621H61.9454C61.9454 39.0621 62.8268 39.0621 63.108 39.6405C63.3891 40.2181 63.4278 40.7965 63.4278 40.7965H63.848V36.6976H63.3772C63.3772 36.6976 63.5304 37.4683 63.0961 37.918C62.6617 38.3677 62.0488 38.4186 62.0488 38.4186H59.6472V35.1547C59.6472 35.1547 59.6472 34.705 59.8138 34.5127C59.9804 34.3204 60.2608 34.2306 60.2608 34.2306H63.16C63.16 34.2306 64.3092 34.5898 64.9741 35.2587C65.6383 35.9269 66.1872 36.6078 66.1872 36.6078L66.4557 36.4028L65.2664 33.9231H56.948V34.2823" fill="#7F9CC7"/>
<path d="M74.7566 43.5719C74.7566 43.5719 74.1058 42.6082 73.6454 42.4667C73.1865 42.3253 72.6108 42.4405 72.4703 42.8521C72.3297 43.2629 72.6242 44.0081 73.008 44.1368C73.3903 44.2655 74.6919 44.3815 75.2044 44.1885C76.9188 43.5427 77.2074 41.6362 77.1627 40.0589C77.1203 38.5564 77.1917 37.0539 77.1627 35.5514C77.1553 35.1361 77.1583 34.7216 77.1583 34.3071H81.641V42.8132C81.641 42.8132 81.5012 43.2374 81.22 43.3908C80.9396 43.545 79.905 43.5839 79.905 43.5839V44.0201H84.2851V43.6752C84.2851 43.6752 83.3784 43.649 83.0214 43.3152C82.6644 42.9808 82.651 42.8655 82.651 42.8655V34.6543C82.651 34.6543 82.715 34.3849 82.8295 34.3078C82.9441 34.2308 83.098 34.218 83.098 34.218H84.2851V33.8708H75.1404V34.2562C75.1404 34.2562 76.0597 34.141 76.3661 34.3849C76.6726 34.6288 76.7611 34.9117 76.7611 34.9117V41.5292C76.7611 41.5292 76.6213 42.4929 76.1742 43.0459C75.7265 43.5981 75.3829 43.7006 75.3829 43.7006C75.3829 43.7006 74.9969 43.8951 74.7566 43.5719Z" fill="#7F9CC7"/>
<path d="M99.0389 38.7795C98.5391 38.5737 98.0557 38.2655 96.6373 38.2527C95.4473 38.2423 94.0802 38.2527 94.0802 38.2527V34.9372C94.0802 34.9372 94.1836 34.5646 94.4521 34.3978C94.7206 34.2309 95.6406 34.2556 95.6406 34.2556V33.8702H91.1445V34.2047C91.1445 34.2047 92.2431 34.1404 92.5622 34.4105C92.882 34.6798 93.0605 34.8213 93.085 35.2193C93.1111 35.6181 93.085 42.8777 93.085 42.8777C93.085 42.8777 93.0077 43.263 92.7407 43.4426C92.4722 43.6229 91.297 43.6484 91.297 43.6484V43.9955H97.4406C97.4406 43.9955 99.9054 43.8152 100.468 41.9266C101.03 40.0381 99.5373 38.9845 99.0389 38.7795ZM99.332 41.9528C98.8337 43.367 96.9304 43.6364 96.9304 43.6364H94.1062V38.6381C94.1062 38.6381 96.6961 38.6156 97.1453 38.6239C97.8496 38.6381 98.6797 39.3961 98.9727 39.6654C99.268 39.9355 99.8303 40.5394 99.332 41.9528Z" fill="#7F9CC7"/>
<path d="M108.999 33.871L107.952 36.3252L108.221 36.4532C108.221 36.4532 109.446 34.9754 109.945 34.7442C110.443 34.513 110.686 34.2945 111.03 34.2556C111.376 34.2174 112.487 34.2556 112.487 34.2556C112.487 34.2556 112.639 34.2174 112.831 34.4486C113.023 34.6806 112.999 34.9245 112.999 34.9245V43.058C112.999 43.058 112.959 43.2638 112.767 43.4179C112.575 43.572 112.117 43.5982 112.117 43.5982H111.043V43.9963H115.974V43.6618V43.572H114.785C114.785 43.572 114.465 43.5458 114.313 43.4179C114.159 43.2892 114.122 42.9166 114.122 42.9166V34.9111C114.122 34.9111 114.159 34.513 114.363 34.4105C114.568 34.3072 114.465 34.2556 114.772 34.2436C115.08 34.2309 116.395 34.2436 116.395 34.2436C116.395 34.2436 117.544 34.629 118.106 35.4767C118.668 36.3245 118.732 36.4914 118.732 36.4914L119.052 36.2729L118.069 33.8702H108.999V33.871Z" fill="#7F9CC7"/>
<path d="M135.669 43.3916C135.312 43.0833 134.929 42.3254 134.929 42.3254L131.134 33.7295L130.369 33.948C130.369 33.948 126.638 42.8013 126.435 43.1993C126.23 43.5981 125.872 43.6236 125.872 43.6236H125.081V43.9962H128.938V43.5847H127.917C127.917 43.5847 127.394 43.572 127.28 43.2891C127.164 43.007 127.214 42.6598 127.214 42.6598L128.237 40.4241H133.013L134.138 42.8529C134.138 42.8529 134.24 43.0579 134.048 43.3535C133.856 43.649 133.55 43.5719 133.55 43.5719L132.528 43.5981V43.9962H136.769V43.6236C136.767 43.6236 136.026 43.7007 135.669 43.3916ZM128.389 39.8711L130.586 34.7314L132.77 39.8711H128.389Z" fill="#7F9CC7"/>
<path d="M136.768 50.8704C136.768 50.8704 136.167 50.6774 135.515 50.6901C134.863 50.7036 134.238 50.6901 134.238 50.6901V48.8397C134.238 48.8397 134.225 48.5568 134.43 48.5187C134.635 48.4798 135.014 48.5187 135.014 48.5187V48.1722H132.028V48.5576H132.591C132.591 48.5576 132.846 48.5576 132.909 48.8023C132.973 49.0462 132.909 53.2611 132.909 53.2611C132.909 53.2611 132.935 53.5312 132.603 53.5432C132.272 53.5566 132.08 53.5432 132.08 53.5432V53.8769H136.333C136.333 53.8769 138.121 53.6457 137.993 52.3355C137.866 51.0246 136.768 50.8704 136.768 50.8704ZM136.397 53.0291C136.027 53.3883 135.656 53.4788 135.656 53.4788C135.656 53.4788 134.649 53.4915 134.468 53.4788C134.289 53.4661 134.238 53.2985 134.238 53.2985V51.0246L135.707 51.0889C135.707 51.0889 136.077 51.1024 136.333 51.3972C136.589 51.692 136.614 52.0654 136.614 52.0654C136.614 52.0654 136.768 52.6692 136.397 53.0291Z" fill="#7F9CC7"/>
<path d="M99.2293 53.2476C99.2293 53.2476 99.4212 53.1062 99.3193 52.8623C99.2174 52.6183 98.8076 52.438 98.374 52.6303C97.9396 52.8226 97.9396 53.3756 98.2594 53.6584C98.5792 53.9412 98.9593 54.0437 99.3505 53.9285C99.741 53.8125 100.175 53.4324 100.381 52.5495C100.584 51.6666 100.579 51.0627 100.594 50.6003C100.61 50.1379 100.594 49.1996 100.594 49.1996C100.594 49.1996 100.672 48.8913 100.814 48.6855C100.954 48.4798 101.031 48.5052 101.031 48.5052H102.551V53.2977C102.551 53.2977 102.653 53.4654 102.282 53.4781C101.914 53.4908 101.618 53.4654 101.618 53.4654V53.8761H104.671V53.4654H104.123C104.123 53.4654 103.854 53.5813 103.842 53.0291C103.829 52.4769 103.842 48.7888 103.842 48.7888C103.842 48.7888 103.803 48.5172 104.019 48.506C104.237 48.494 104.671 48.506 104.671 48.506V48.1086H99.1921V48.494C99.1921 48.494 99.7923 48.5067 99.9969 48.7896C100.2 49.0724 100.2 49.5348 100.2 49.5348V51.2311C100.2 51.2311 100.38 52.1559 99.8556 52.9139C99.3319 53.6711 99.2293 53.2476 99.2293 53.2476Z" fill="#7F9CC7"/>
<path d="M71.2453 53.4913C71.014 53.4532 70.8229 53.0932 70.8229 53.0932L68.5878 48.1077H68.2048L68.0263 48.3127C68.0263 48.3127 66.4562 51.8205 66.0583 52.6555C65.6633 53.4906 65.4967 53.4906 65.4967 53.4906H65.0244V53.8759H67.3227V53.4778C67.3227 53.4778 67.1955 53.4778 67.1442 53.4778C67.0936 53.4778 66.6972 53.5422 66.5313 53.2975C66.3654 53.0536 66.3907 52.8478 66.3907 52.8478L66.8385 52.0255H69.1122C69.1122 52.0255 69.5718 52.7318 69.5979 53.1307C69.6232 53.5295 69.3933 53.4778 69.3933 53.4778H68.7671V53.8759H71.6544V53.4906C71.6537 53.4913 71.4752 53.5302 71.2453 53.4913ZM66.9404 51.6409L67.9623 49.5466L68.9196 51.6409H66.9404Z" fill="#7F9CC7"/>
<path d="M32.9785 50.2538L33.0812 48.1467H38.3954L38.5866 50.2538H38.2035C38.2035 50.2538 38.0756 49.4577 37.7178 49.0588C37.3608 48.6608 37.0923 48.5194 37.0923 48.5194L36.4155 48.5321V53.2992C36.4155 53.2992 36.4289 53.4406 36.7606 53.4795C37.0923 53.5184 37.3988 53.4795 37.3988 53.4795V53.8529H34.0778V53.493H34.8565C34.8565 53.493 35.0105 53.5319 35.1124 53.3777C35.215 53.2236 35.1764 52.8382 35.1764 52.8382V48.7521C35.1764 48.7521 35.1511 48.559 34.806 48.5209C34.4609 48.4819 34.2943 48.4819 34.0012 48.8029C33.7074 49.1239 33.5282 49.3424 33.3891 49.7921C33.2485 50.2418 33.2745 50.3062 33.2745 50.3062L32.9785 50.2538Z" fill="#7F9CC7"/>
<path d="M5.32648 51.8852H5.69614C5.69614 51.8852 5.54366 53.3757 4.30453 53.8127C3.06615 54.2497 1.98024 53.8389 1.5072 53.4273C1.0349 53.0158 0.230139 52.4763 0.383357 50.5615C0.536574 48.6468 2.13346 48.1851 2.50311 48.108C2.87351 48.031 3.9981 47.9921 4.31643 48.2495C4.63626 48.5061 4.81476 48.6603 4.94269 48.5832C5.07062 48.5061 5.16062 48.0497 5.16062 48.0497H5.51763V50.2922H5.22384C5.22384 50.2922 5.27442 49.6367 4.76419 49.11C4.25247 48.5832 3.90885 48.3393 3.44919 48.3774C2.98805 48.4163 2.38783 48.6348 2.06949 49.4699C1.74967 50.3049 1.78835 51.2432 1.8776 51.8987C1.9676 52.5534 2.33651 53.0293 2.785 53.3765C3.23201 53.7236 3.88356 53.5695 4.31718 53.3765C4.75154 53.1834 5.17326 52.9006 5.32648 51.8852Z" fill="#7F9CC7"/>
<path d="M137.994 45.4353H0V46.4634H137.994V45.4353Z" fill="#7F9CC7"/>
<path d="M51.3966 2.10707L5.6954 41.9917H51.3966V44.9211H0.363281L51.3966 0V2.10707Z" fill="#7F9CC7"/>
<path d="M51.3969 39.8845H45.6914V41.375H51.3969V39.8845Z" fill="#7F9CC7"/>
<path d="M51.3969 37.7715H45.6914V39.262H51.3969V37.7715Z" fill="#7F9CC7"/>
<path d="M51.3969 35.6587H45.6914V37.1499H51.3969V35.6587Z" fill="#7F9CC7"/>
<path d="M51.3969 33.5461H45.6914V35.0367H51.3969V33.5461Z" fill="#7F9CC7"/>
<path d="M51.3969 31.4331H45.6914V32.9236H51.3969V31.4331Z" fill="#7F9CC7"/>
<path d="M51.3969 29.3215H45.6914V30.812H51.3969V29.3215Z" fill="#7F9CC7"/>
<path d="M51.3969 27.2085H45.6914V28.6983H51.3969V27.2085Z" fill="#7F9CC7"/>
<path d="M51.3969 25.0955H45.6914V26.586H51.3969V25.0955Z" fill="#7F9CC7"/>
<path d="M51.3969 22.9832H45.6914V24.4729H51.3969V22.9832Z" fill="#7F9CC7"/>
<path d="M51.3969 20.87H45.6914V22.3605H51.3969V20.87Z" fill="#7F9CC7"/>
<path d="M51.3969 18.757H45.6914V20.2475H51.3969V18.757Z" fill="#7F9CC7"/>
<path d="M51.3969 16.6455H45.6914V18.136H51.3969V16.6455Z" fill="#7F9CC7"/>
<path d="M51.3969 14.5326H45.6914V16.0224H51.3969V14.5326Z" fill="#7F9CC7"/>
<path d="M51.3969 12.4194H45.6914V13.9107H51.3969V12.4194Z" fill="#7F9CC7"/>
<path d="M51.3969 10.3071H45.6914V11.7969H51.3969V10.3071Z" fill="#7F9CC7"/>
<path d="M51.3969 8.19397H45.6914V9.68448H51.3969V8.19397Z" fill="#7F9CC7"/>
<path d="M45.8438 7.50346L47.4458 6.08179H51.3968V7.50346H45.8438Z" fill="#7F9CC7"/>
<path d="M49.8301 3.94019L48.2637 5.39628H51.3972V4.00828L49.8301 3.94019Z" fill="#7F9CC7"/>
<path d="M51.3963 2.53503L50.5781 3.35736H51.3963V2.53503Z" fill="#7F9CC7"/>
</svg>
