<svg width="360" height="190" viewBox="0 0 360 190" fill="none" xmlns="http://www.w3.org/2000/svg">
<rect width="360" height="190" fill="#F9FAFE"/>
<path d="M211.154 57.0525H154.239L193.229 34.5414C194.469 33.825 196.061 34.2518 196.778 35.4924L205.575 50.7305C206.293 51.973 207.882 52.3988 209.124 51.6813C210.366 50.9641 210.792 49.3753 210.075 48.1329L201.277 32.8948C199.128 29.1736 194.353 27.8943 190.631 30.0425L143.904 57.0208C143.887 57.0309 143.871 57.0426 143.854 57.053H121.793C117.496 57.053 114 60.5489 114 64.8459V154.207C114 158.504 117.496 162 121.793 162H211.154C215.451 162 218.947 158.504 218.947 154.207V64.8459C218.947 60.5486 215.451 57.0525 211.154 57.0525ZM213.752 154.207C213.752 155.639 212.587 156.804 211.154 156.804H121.793C120.361 156.804 119.196 155.639 119.196 154.207V64.8457C119.196 63.4133 120.361 62.248 121.793 62.248H211.154C212.587 62.248 213.752 63.4133 213.752 64.8457V154.207V154.207Z" fill="#EFF0F5"/>
<path d="M230.195 83.1622C229.712 82.6791 229.042 82.4011 228.358 82.4011C227.675 82.4011 227.005 82.6791 226.522 83.1622C226.039 83.6454 225.761 84.3156 225.761 84.9988C225.761 85.682 226.039 86.3522 226.522 86.8353C227.005 87.3182 227.676 87.5964 228.358 87.5964C229.042 87.5964 229.712 87.3185 230.195 86.8353C230.678 86.3522 230.956 85.682 230.956 84.9988C230.956 84.3156 230.678 83.6454 230.195 83.1622Z" fill="#EFF0F5"/>
<path d="M245.958 110.284L235.209 91.6675C234.492 90.425 232.904 89.9995 231.661 90.7167C230.419 91.4339 229.993 93.0227 230.71 94.2651L241.458 112.881C242.175 114.122 241.748 115.713 240.508 116.43L223.802 126.075C222.559 126.792 222.133 128.381 222.851 129.623C223.332 130.456 224.205 130.922 225.103 130.922C225.544 130.922 225.99 130.81 226.399 130.574L243.105 120.929C246.826 118.78 248.106 114.005 245.958 110.284Z" fill="#EFF0F5"/>
<path d="M182.338 70.2825C181.855 69.7993 181.184 69.5214 180.501 69.5214C179.818 69.5214 179.148 69.7993 178.665 70.2825C178.182 70.7656 177.904 71.4358 177.904 72.119C177.904 72.8022 178.181 73.4724 178.665 73.9556C179.148 74.4387 179.818 74.7167 180.501 74.7167C181.184 74.7167 181.855 74.4387 182.338 73.9556C182.821 73.4724 183.099 72.8022 183.099 72.119C183.099 71.4358 182.821 70.7656 182.338 70.2825Z" fill="#EFF0F5"/>
<path d="M203.88 69.5214H193.749C192.315 69.5214 191.152 70.6843 191.152 72.119C191.152 73.5537 192.315 74.7167 193.749 74.7167H201.283V111.752L180.66 91.1294C180.172 90.6424 179.512 90.3686 178.823 90.3686C178.134 90.3686 177.473 90.6424 176.986 91.1294L163.224 104.891C162.21 105.906 162.21 107.551 163.224 108.565C164.239 109.579 165.883 109.579 166.898 108.565L178.823 96.6399L201.264 119.082C201.27 119.087 201.277 119.092 201.283 119.098V131.866H135.338L154.197 113.008L168.206 127.017C169.22 128.031 170.865 128.031 171.88 127.017C172.894 126.003 172.894 124.358 171.88 123.343L156.034 107.497C155.546 107.01 154.886 106.736 154.197 106.736C153.508 106.736 152.847 107.01 152.36 107.497L131.665 128.193V74.7167H166.474C167.908 74.7167 169.071 73.5537 169.071 72.119C169.071 70.6843 167.908 69.5214 166.474 69.5214H129.067C127.632 69.5214 126.469 70.6843 126.469 72.119V134.464C126.469 135.898 127.632 137.061 129.067 137.061H203.88C205.315 137.061 206.478 135.898 206.478 134.464V72.119C206.478 70.6846 205.315 69.5214 203.88 69.5214Z" fill="#EFF0F5"/>
<path d="M151.84 80.6913C147.256 80.6913 143.527 84.4202 143.527 89.004C143.527 93.5879 147.256 97.3168 151.84 97.3168C156.424 97.3168 160.153 93.5879 160.153 89.004C160.153 84.4202 156.424 80.6913 151.84 80.6913ZM151.84 92.1212C150.121 92.1212 148.723 90.7229 148.723 89.004C148.723 87.2852 150.121 85.8869 151.84 85.8869C153.559 85.8869 154.957 87.2854 154.957 89.004C154.957 90.7229 153.559 92.1212 151.84 92.1212Z" fill="#EFF0F5"/>
</svg>
