<svg width="130" height="102" viewBox="0 0 130 102" fill="none" xmlns="http://www.w3.org/2000/svg">
<mask id="mask0" mask-type="alpha" maskUnits="userSpaceOnUse" x="0" y="0" width="130" height="82">
<rect width="130" height="82" fill="#C4C4C4"/>
</mask>
<g mask="url(#mask0)">
<circle cx="64.9012" cy="64.8743" r="63.6981" stroke="url(#paint0_linear)" stroke-width="2"/>
</g>
<g clip-path="url(#clip0)">
<path d="M70.4181 60.2971C70.7304 60.5053 71.1467 60.4012 71.563 60.193C71.8752 59.9849 72.0834 59.5685 71.9793 59.1523L70.9386 53.0116L75.4139 48.7443C75.7261 48.4321 75.8302 48.0157 75.7261 47.7036C75.6221 47.2872 75.3098 47.0791 74.8936 46.975L68.7529 46.0383L66.0469 40.5222C65.7346 39.7936 64.4857 39.7936 64.1735 40.5222L61.4675 46.0383L55.3268 46.975C54.9105 47.0791 54.5982 47.2872 54.4941 47.7036C54.39 48.1199 54.4941 48.5363 54.8064 48.7443L59.2817 53.0116L58.241 59.1523C58.1369 59.5686 58.345 59.985 58.6573 60.193C58.9696 60.4012 59.3859 60.5053 59.8021 60.2971L65.3183 57.383L70.4181 60.2971ZM64.5898 55.3014L60.3226 57.487L61.1551 52.9076C61.2592 52.5954 61.051 52.179 60.8428 51.971L57.5124 48.7446L62.0918 48.1201C62.404 48.1201 62.7163 47.8078 62.9243 47.5996L65.0059 43.4365L67.0875 47.5996C67.1916 47.9119 67.5038 48.1201 67.9201 48.1201L72.4995 48.7446L69.169 51.971C68.9608 52.1792 68.8567 52.5955 68.8567 52.9076L69.6893 57.487L65.6301 55.3014C65.5261 55.1973 65.3179 55.1973 65.1097 55.1973C64.9015 55.1973 64.798 55.1973 64.5898 55.3014Z" fill="#23844A"/>
<path d="M93.9398 99.5348H81.4503V89.9595C81.4503 89.335 81.034 88.9188 80.4096 88.9188H75.622V83.6108C75.622 82.9863 75.2057 82.57 74.5813 82.57H68.7529V70.8092C68.7529 70.7051 68.961 70.497 69.0651 70.497C74.0609 69.0399 78.5363 64.9808 81.4505 59.1523C88.1115 55.6137 92.1706 48.7445 92.1706 41.1467V39.7937C92.1706 39.1692 91.7542 38.753 91.1298 38.753H85.5096C85.5096 37.0878 85.4055 34.9021 85.3014 33.8613C85.1972 33.3409 84.7808 32.9246 84.2605 32.9246H45.4393C44.9188 32.9246 44.5026 33.3409 44.3985 33.8612C44.2944 34.9019 44.1904 37.0876 44.1904 38.7529H38.466C37.8415 38.7529 37.4253 39.1692 37.4253 39.7936V41.2507C37.4253 48.9525 41.4844 55.8217 48.1454 59.2563C51.1636 65.0847 55.535 69.0396 60.5307 70.6009C60.7389 70.6009 60.843 70.8091 60.843 70.9132V82.674H55.0145C54.39 82.674 53.9738 83.0903 53.9738 83.7147V89.0227H49.1862C48.5617 89.0227 48.1455 89.4391 48.1455 90.0635V99.5347H35.864C35.2395 99.5347 34.8232 99.951 34.8232 100.575C34.8232 101.2 35.2396 101.616 35.864 101.616C43.0454 101.616 86.8624 101.616 93.9398 101.616C94.5643 101.616 94.9805 101.2 94.9805 100.575C94.9805 99.951 94.4602 99.5348 93.9398 99.5348ZM85.7176 40.8346H90.297V41.2509C90.297 47.0794 87.591 52.4915 83.1156 55.822C84.7808 51.4505 85.7176 46.3506 85.7176 40.8346ZM39.5067 41.2508V40.8345H44.0861C44.0861 46.2466 45.0228 51.3464 46.6882 55.7178C42.2127 52.3873 39.5067 47.0792 39.5067 41.2508ZM49.9146 58.0075C47.5207 53.2199 46.1677 47.2874 46.1677 40.8346C46.1677 39.3775 46.2718 36.5673 46.3759 35.0062H83.4278C83.5319 36.6714 83.636 39.4815 83.636 40.8346C83.636 47.2874 82.3871 53.2199 79.9933 58.0075C77.2873 63.4196 73.2282 67.1665 68.6486 68.5195C67.5038 68.8317 66.7752 69.7684 66.7752 70.8092V82.57H63.1325V70.8092C63.0284 69.7685 62.2998 68.8317 61.259 68.5195C56.6796 67.1665 52.6207 63.4196 49.9146 58.0075ZM56.1594 84.7557H73.5404V89.023H56.1594V84.7557ZM79.4728 99.5348H50.435V91.0004C59.4898 91.0004 55.8471 91.0004 79.473 91.0004V99.5348H79.4728Z" fill="#323C4B"/>
</g>
<mask id="mask1" mask-type="alpha" maskUnits="userSpaceOnUse" x="0" y="14" width="130" height="88">
<rect y="14" width="130" height="88" fill="#C4C4C4"/>
</mask>
<g mask="url(#mask1)">
<g opacity="0.86">
<mask id="path-7-inside-1" fill="white">
<ellipse cx="65.3014" cy="63.2767" rx="48.3239" ry="48.7233"/>
</mask>
<path d="M41.6253 63.2767C41.6253 50.9812 51.6679 40 65.3014 40V184C132.312 184 185.625 129.391 185.625 63.2767H41.6253ZM65.3014 40C78.9349 40 88.9775 50.9812 88.9775 63.2767H-55.0225C-55.0225 129.391 -1.70917 184 65.3014 184V40ZM88.9775 63.2767C88.9775 75.5723 78.9349 86.5535 65.3014 86.5535V-57.4465C-1.70917 -57.4465 -55.0225 -2.83704 -55.0225 63.2767H88.9775ZM65.3014 86.5535C51.6679 86.5535 41.6253 75.5723 41.6253 63.2767H185.625C185.625 -2.83704 132.312 -57.4465 65.3014 -57.4465V86.5535Z" fill="url(#paint1_linear)" mask="url(#path-7-inside-1)"/>
</g>
</g>
<defs>
<linearGradient id="paint0_linear" x1="64.9012" y1="0.176147" x2="64.9012" y2="129.572" gradientUnits="userSpaceOnUse">
<stop stop-color="#23844A"/>
<stop offset="1" stop-color="#B4E3AD"/>
</linearGradient>
<linearGradient id="paint1_linear" x1="65.3014" y1="14.5535" x2="65.3014" y2="85.8201" gradientUnits="userSpaceOnUse">
<stop stop-color="#F7F7F7"/>
<stop stop-color="#E3E3E3"/>
<stop offset="1" stop-color="#F7F7F7" stop-opacity="0"/>
</linearGradient>
<clipPath id="clip0">
<rect x="30.5557" y="32.9246" width="68.6918" height="68.6918" fill="white"/>
</clipPath>
</defs>
</svg>
