<svg width="130" height="102" viewBox="0 0 130 102" fill="none" xmlns="http://www.w3.org/2000/svg">
<mask id="mask0" mask-type="alpha" maskUnits="userSpaceOnUse" x="0" y="0" width="130" height="82">
<rect width="130" height="82" fill="#C4C4C4"/>
</mask>
<g mask="url(#mask0)">
<circle cx="64.9012" cy="64.8743" r="63.6981" stroke="url(#paint0_linear)" stroke-width="2"/>
</g>
<path d="M52.877 68.4027C52.877 70.1293 54.282 71.5343 56.0085 71.5343C57.735 71.5343 59.14 70.1293 59.14 68.4027C59.14 66.6762 57.735 65.2712 56.0085 65.2712C54.282 65.2712 52.877 66.6762 52.877 68.4027ZM56.0085 67.3589C56.5847 67.3589 57.0523 67.8276 57.0523 68.4027C57.0523 68.9779 56.5847 69.4466 56.0085 69.4466C55.4323 69.4466 54.9646 68.9779 54.9646 68.4027C54.9646 67.8276 55.4323 67.3589 56.0085 67.3589Z" fill="#23844A"/>
<path d="M95.6741 61.096V42.3069C95.6741 41.1556 94.7378 40.2192 93.5865 40.2192H49.7453C48.594 40.2192 47.6577 41.1556 47.6577 42.3069V50.6576H41.3946C40.2433 50.6576 39.307 51.5939 39.307 52.7453V61.096H36.1755C34.4489 61.096 33.0439 62.501 33.0439 64.2275V86.148C33.0439 91.9038 37.7266 96.5864 43.4823 96.5864H87.3234C93.0792 96.5864 97.7618 91.9038 97.7618 86.148V61.096H95.6741ZM65.4029 61.096H63.3152V60.0521C63.3152 59.477 63.7828 59.0083 64.359 59.0083C64.9352 59.0083 65.4029 59.477 65.4029 60.0521V61.096ZM64.359 56.9206H56.2599C56.7735 55.2046 57.906 53.7066 59.4478 52.7453H67.1743C69.3026 54.0866 70.6221 56.4488 70.6221 58.9864C70.6221 59.7077 70.5187 60.4143 70.3173 61.096H67.4905V60.0521C67.4905 58.3256 66.0855 56.9206 64.359 56.9206V56.9206ZM61.406 59.0083C61.2912 59.335 61.2275 59.6857 61.2275 60.0521V72.5782C61.2275 73.3944 60.9123 74.1502 60.3413 74.7076C59.6973 75.337 58.7589 75.6721 57.7088 75.6429L53.4969 75.6439C52.9102 75.6439 52.2839 75.3955 51.7777 74.9049C51.1493 74.2984 50.7892 73.4508 50.7892 72.5782V62.1398C50.7892 60.4133 52.1942 59.0083 53.9207 59.0083H61.406ZM64.359 48.548C64.359 46.0104 65.6784 43.6482 67.8058 42.3069H75.526C77.6533 43.6482 78.9728 46.0104 78.9728 48.548C78.9728 49.2693 78.8694 49.977 78.668 50.6576H64.6638C64.4624 49.9781 64.359 49.2703 64.359 48.548V48.548ZM85.2358 55.5939C84.9205 55.7755 84.5625 55.8768 84.1919 55.8768C83.0406 55.8768 82.1043 54.9405 82.1043 53.7891C82.1043 53.4186 82.2055 53.0605 82.3882 52.7453H85.2358V55.5939ZM70.3413 52.7453H80.1659C80.0782 53.0845 80.0166 53.4321 80.0166 53.7891C80.0166 56.0918 81.8892 57.9645 84.1919 57.9645C84.5489 57.9645 84.8965 57.9029 85.2358 57.8152V75.7097H83.1481V64.2275C83.1481 62.501 81.7431 61.096 80.0166 61.096H72.4655C72.621 60.407 72.7097 59.7035 72.7097 58.9864C72.7097 56.6576 71.8329 54.4509 70.3413 52.7453ZM83.1481 77.7974H91.4988V86.148C91.4988 88.4507 89.6261 90.3234 87.3234 90.3234C85.0207 90.3234 83.1481 88.4507 83.1481 86.148V77.7974ZM91.4988 75.7097H87.3234V67.359H91.4988V75.7097ZM91.4988 64.2275V65.2713H87.3234V52.7453C87.3234 51.5939 86.3871 50.6576 85.2358 50.6576H80.8151C80.9717 49.9687 81.0604 49.2651 81.0604 48.548C81.0604 46.2203 80.1836 44.0125 78.692 42.3069H88.5155C88.4289 42.6462 88.3673 42.9938 88.3673 43.3507C88.3673 45.6535 90.2399 47.5261 92.5426 47.5261C92.8996 47.5261 93.2472 47.4645 93.5865 47.3768V61.288C92.3746 61.7202 91.4988 62.8684 91.4988 64.2275V64.2275ZM93.5865 45.1555C93.2712 45.3372 92.9132 45.4384 92.5426 45.4384C91.3913 45.4384 90.455 44.5021 90.455 43.3507C90.455 42.9802 90.5562 42.6221 90.7389 42.3069H93.5865V45.1555ZM52.594 42.3069C52.7756 42.6221 52.8768 42.9802 52.8768 43.3507C52.8768 44.5021 51.9405 45.4384 50.7892 45.4384C50.4186 45.4384 50.0606 45.3372 49.7453 45.1555V42.3069H52.594ZM49.7453 47.3768C50.0846 47.4645 50.4322 47.5261 50.7892 47.5261C53.0919 47.5261 54.9645 45.6535 54.9645 43.3507C54.9645 42.9938 54.9029 42.6462 54.8152 42.3069H64.6388C63.1482 44.0125 62.2714 46.2192 62.2714 48.548C62.2714 49.2662 62.359 49.9697 62.5156 50.6576H49.7453V47.3768ZM44.2433 52.7453C44.4249 53.0605 44.5261 53.4186 44.5261 53.7891C44.5261 54.9405 43.5898 55.8768 42.4385 55.8768C42.0679 55.8768 41.7099 55.7755 41.3946 55.5939V52.7453H44.2433ZM41.3946 57.8152C41.7339 57.9029 42.0815 57.9645 42.4385 57.9645C44.7412 57.9645 46.6138 56.0918 46.6138 53.7891C46.6138 53.4321 46.5522 53.0845 46.4646 52.7453H56.2516C55.2015 53.9321 54.4541 55.3674 54.0992 56.9206H53.9207C51.4009 56.9206 49.2923 58.7171 48.8069 61.096H41.3946V57.8152ZM35.1316 64.2275C35.1316 63.6523 35.5993 63.1836 36.1755 63.1836H48.7015V72.5782C48.7015 74.0134 49.2933 75.4091 50.3278 76.407C51.2057 77.2546 52.332 77.7326 53.4061 77.7326C53.4489 77.7326 53.4906 77.7316 53.5334 77.7305H57.6827C59.3017 77.7546 60.7495 77.2285 61.7996 76.2024C62.7766 75.2493 63.3152 73.9613 63.3152 72.5782V63.1836H76.8851V86.148C76.8851 86.8631 76.9581 87.5614 77.0959 88.2357H35.4061C35.2329 87.5666 35.1316 86.8704 35.1316 86.148V64.2275ZM43.4823 94.4987C40.3999 94.4987 37.7078 92.815 36.261 90.3234H77.7619C78.4926 91.9883 79.6471 93.4215 81.0865 94.4987H43.4823ZM95.6741 86.148C95.6741 90.7524 91.9278 94.4987 87.3234 94.4987C82.7191 94.4987 78.9728 90.7524 78.9728 86.148V63.1836H80.0166C80.5928 63.1836 81.0604 63.6523 81.0604 64.2275V86.148C81.0604 89.6021 83.8694 92.4111 87.3234 92.4111C90.7775 92.4111 93.5865 89.6021 93.5865 86.148V64.2275C93.5865 63.6523 94.0541 63.1836 94.6303 63.1836H95.6741V86.148Z" fill="#323C4B"/>
<mask id="mask1" mask-type="alpha" maskUnits="userSpaceOnUse" x="0" y="14" width="130" height="88">
<rect y="14" width="130" height="88" fill="#C4C4C4"/>
</mask>
<g mask="url(#mask1)">
<g opacity="0.86">
<mask id="path-7-inside-1" fill="white">
<ellipse cx="65.3014" cy="63.2767" rx="48.3239" ry="48.7233"/>
</mask>
<path d="M41.6253 63.2767C41.6253 50.9812 51.6679 40 65.3014 40V184C132.312 184 185.625 129.391 185.625 63.2767H41.6253ZM65.3014 40C78.9349 40 88.9775 50.9812 88.9775 63.2767H-55.0225C-55.0225 129.391 -1.70917 184 65.3014 184V40ZM88.9775 63.2767C88.9775 75.5723 78.9349 86.5535 65.3014 86.5535V-57.4465C-1.70917 -57.4465 -55.0225 -2.83704 -55.0225 63.2767H88.9775ZM65.3014 86.5535C51.6679 86.5535 41.6253 75.5723 41.6253 63.2767H185.625C185.625 -2.83704 132.312 -57.4465 65.3014 -57.4465V86.5535Z" fill="url(#paint1_linear)" mask="url(#path-7-inside-1)"/>
</g>
</g>
<defs>
<linearGradient id="paint0_linear" x1="64.9012" y1="0.176147" x2="64.9012" y2="129.572" gradientUnits="userSpaceOnUse">
<stop stop-color="#23844A"/>
<stop offset="1" stop-color="#B4E3AD"/>
</linearGradient>
<linearGradient id="paint1_linear" x1="65.3014" y1="14.5535" x2="65.3014" y2="85.8201" gradientUnits="userSpaceOnUse">
<stop stop-color="#F7F7F7"/>
<stop stop-color="#E3E3E3"/>
<stop offset="1" stop-color="#F7F7F7" stop-opacity="0"/>
</linearGradient>
</defs>
</svg>
