<svg width="130" height="102" viewBox="0 0 130 102" fill="none" xmlns="http://www.w3.org/2000/svg">
<mask id="mask0" mask-type="alpha" maskUnits="userSpaceOnUse" x="0" y="0" width="130" height="82">
<rect width="130" height="82" fill="#C4C4C4"/>
</mask>
<g mask="url(#mask0)">
<circle cx="64.9012" cy="64.8743" r="63.6981" stroke="url(#paint0_linear)" stroke-width="2"/>
</g>
<g clip-path="url(#clip0)">
<path d="M78.1874 55.5435C80.8353 53.0783 82.2048 49.9739 82.2048 46.687V42.8522C83.757 42.8522 85.0352 41.5739 85.0352 40.0218V37.8304C85.0353 36.2783 83.757 35 82.2049 35H48.0569C46.5048 35 45.2266 36.2783 45.2266 37.8304V40.0217C45.2266 41.5739 46.5049 42.8521 48.0571 42.8521V46.6869C48.0571 49.9738 49.5179 53.0782 52.0744 55.5433L61.9353 64.8564C62.0267 64.9477 62.2092 65.039 62.3005 65.1303C62.2092 65.2216 62.0267 65.3129 61.9353 65.4041L52.0744 74.7172C49.4266 77.1823 48.0571 80.2867 48.0571 83.5738V87.4086C46.5049 87.4086 45.2266 88.6869 45.2266 90.2391V92.4304C45.2266 93.9825 46.5049 95.2607 48.0571 95.2607H82.2049C83.7571 95.2607 85.0353 93.9824 85.0353 92.4304V90.2391C85.0353 88.6869 83.757 87.4086 82.2049 87.4086V83.5738C82.2049 80.2868 80.744 77.1824 78.1875 74.7172L68.3266 65.4041C68.2353 65.3128 68.0528 65.2215 67.9614 65.1303C68.0528 65.0389 68.2353 64.9476 68.3266 64.8564L78.1874 55.5435ZM47.0526 40.0218V37.8304C47.0526 37.2825 47.5092 36.8261 48.0569 36.8261H82.2048C82.7525 36.8261 83.2091 37.2826 83.2091 37.8304V40.0217C83.2091 40.5696 82.7525 41.026 82.2048 41.026C70.4265 41.026 60.2004 41.026 48.0569 41.026C47.5092 41.0261 47.0526 40.5695 47.0526 40.0218ZM83.2092 90.2392V92.4305C83.2092 92.9784 82.7527 93.4348 82.2049 93.4348H48.0569C47.5091 93.4348 47.0526 92.9782 47.0526 92.4305V90.2392C47.0526 89.6913 47.5092 89.2349 48.0569 89.2349C59.8353 89.2349 70.0614 89.2349 82.2048 89.2349C82.7527 89.2349 83.2092 89.6914 83.2092 90.2392ZM76.9092 75.9957C79.1919 78.0957 80.3788 80.7435 80.3788 83.4827V87.3175H49.883V83.4827C49.883 80.7435 51.1613 78.0957 53.3526 75.9957L63.2135 66.6827C64.1266 65.7696 66.1352 65.7696 67.1397 66.6827L76.9092 75.9957ZM67.0483 63.487C66.1352 64.4001 64.1266 64.4001 63.1222 63.487L53.3526 54.2652C51.07 52.1652 49.883 49.5174 49.883 46.7782V42.8522H80.3787V46.687C80.3787 49.4261 79.1004 52.074 76.9091 54.1739L67.0483 63.487Z" fill="#323C4B"/>
<path d="M76.9998 45.6827H53.2608C52.7129 45.6827 52.3477 46.048 52.3477 46.5958C52.3477 48.7871 53.352 50.7045 54.9042 52.1654L62.7563 59.561C64.1259 60.8393 66.1346 60.8393 67.5041 59.561L75.3563 52.1654C76.9998 50.6132 77.9128 48.7871 77.9128 46.5958C77.9129 46.048 77.5477 45.6827 76.9998 45.6827ZM74.1694 50.7957L66.3173 58.1914C65.6782 58.7392 64.6737 58.7392 64.0346 58.1914L56.1825 50.7957C55.0868 49.7914 54.4477 48.6045 54.2651 47.4175H76.0868C75.9042 48.6045 75.1737 49.7914 74.1694 50.7957Z" fill="#23844A"/>
<path d="M75.3563 78.187L67.5041 70.7914C66.2258 69.5131 64.0345 69.5131 62.7563 70.7001L54.9042 78.0957C53.2606 79.7392 52.3477 81.6566 52.3477 83.5739V83.7566C52.3477 84.3044 52.7129 84.6697 53.2608 84.6697H76.9999C77.5478 84.6697 77.913 84.3044 77.913 83.7566V83.5739C77.9128 81.6566 76.9997 79.7392 75.3563 78.187ZM54.1736 82.8436C54.3563 81.6566 55.0867 80.4696 56.091 79.4653L63.9432 72.0697C64.5823 71.5218 65.5867 71.5218 66.2258 72.0697L74.078 79.4653C75.1736 80.4696 75.8127 81.6566 75.9954 82.8436H54.1736Z" fill="#23844A"/>
</g>
<mask id="mask1" mask-type="alpha" maskUnits="userSpaceOnUse" x="0" y="14" width="130" height="88">
<rect y="14" width="130" height="88" fill="#C4C4C4"/>
</mask>
<g mask="url(#mask1)">
<g opacity="0.86">
<mask id="path-8-inside-1" fill="white">
<ellipse cx="65.3014" cy="63.2767" rx="48.3239" ry="48.7233"/>
</mask>
<path d="M41.6253 63.2767C41.6253 50.9812 51.6679 40 65.3014 40V184C132.312 184 185.625 129.391 185.625 63.2767H41.6253ZM65.3014 40C78.9349 40 88.9775 50.9812 88.9775 63.2767H-55.0225C-55.0225 129.391 -1.70917 184 65.3014 184V40ZM88.9775 63.2767C88.9775 75.5723 78.9349 86.5535 65.3014 86.5535V-57.4465C-1.70917 -57.4465 -55.0225 -2.83704 -55.0225 63.2767H88.9775ZM65.3014 86.5535C51.6679 86.5535 41.6253 75.5723 41.6253 63.2767H185.625C185.625 -2.83704 132.312 -57.4465 65.3014 -57.4465V86.5535Z" fill="url(#paint1_linear)" mask="url(#path-8-inside-1)"/>
</g>
</g>
<defs>
<linearGradient id="paint0_linear" x1="64.9012" y1="0.176147" x2="64.9012" y2="129.572" gradientUnits="userSpaceOnUse">
<stop stop-color="#23844A"/>
<stop offset="1" stop-color="#B4E3AD"/>
</linearGradient>
<linearGradient id="paint1_linear" x1="65.3014" y1="14.5535" x2="65.3014" y2="85.8201" gradientUnits="userSpaceOnUse">
<stop stop-color="#F7F7F7"/>
<stop stop-color="#E3E3E3"/>
<stop offset="1" stop-color="#F7F7F7" stop-opacity="0"/>
</linearGradient>
<clipPath id="clip0">
<rect x="35" y="35" width="60.261" height="60.261" fill="white"/>
</clipPath>
</defs>
</svg>
