<svg width="130" height="102" viewBox="0 0 130 102" fill="none" xmlns="http://www.w3.org/2000/svg">
<mask id="mask0" mask-type="alpha" maskUnits="userSpaceOnUse" x="0" y="0" width="130" height="82">
<rect width="130" height="82" fill="#C4C4C4"/>
</mask>
<g mask="url(#mask0)">
<circle cx="64.9012" cy="64.8743" r="63.6981" stroke="url(#paint0_linear)" stroke-width="2"/>
</g>
<g clip-path="url(#clip0)">
<path d="M89.6535 50.9439L91.085 49.5124L89.8128 46.9697L92.5106 46.0714V40.0934L89.8128 39.1951L91.085 36.6524L86.8582 32.4256L84.3155 33.6977L83.4171 31H77.4403L76.5419 33.6977L73.9992 32.4256L70.7185 35.7068C70.1484 35.4993 69.5729 35.3067 68.9883 35.1453L68.1447 31H57.5618L56.7203 35.1453C54.8915 35.6484 53.135 36.3778 51.482 37.3169L47.9541 34.9796L40.4707 42.4629L42.808 45.9909C41.8689 47.6439 41.1395 49.4003 40.6364 51.2292L36.4922 52.0707V62.6535L40.6375 63.495C41.1416 65.325 41.8699 67.0804 42.8091 68.7323L40.4717 72.2603L47.9551 79.7436L51.4831 77.4052C53.1361 78.3444 54.8925 79.0738 56.7214 79.5779L57.5629 83.7232H68.1457L68.9872 79.5779C70.8161 79.0738 72.5726 78.3454 74.2255 77.4052L74.9362 77.8777V93.6088C74.9362 96.6369 77.4001 99.1008 80.4282 99.1008C83.4563 99.1008 85.9202 96.6369 85.9202 93.6088V73.5474C85.9202 72.4029 86.523 71.3463 87.5324 70.7226C91.3376 68.3687 93.609 64.3671 93.609 60.0175C93.609 56.5335 92.1491 53.2962 89.6535 50.9439ZM74.432 35.0981L76.8069 36.2855L77.2826 36.0726C77.4183 36.0109 77.5572 35.9573 77.6956 35.9031L78.1831 35.7186L79.0235 33.1968H81.8339L82.6754 35.7186L83.1634 35.9031C83.3029 35.9562 83.4413 36.0109 83.5764 36.0726L84.0516 36.2855L86.4265 35.0981L88.4136 37.0852L87.2261 39.46L87.4391 39.9352C87.5007 40.0715 87.5544 40.2098 87.6085 40.3487L87.793 40.8363L90.3138 41.6778V44.4881L87.792 45.3296L87.6075 45.8177C87.5544 45.9571 87.4997 46.0955 87.438 46.2306L87.2251 46.7058L88.4125 49.0807L87.926 49.5671C87.4439 49.2464 86.9371 48.9525 86.4056 48.6897L84.8218 47.9077V50.2649L84.0505 49.8793L83.5753 50.0922C83.4391 50.1539 83.3007 50.2075 83.1618 50.2617L82.6743 50.4462L81.8328 52.968H79.0225L78.181 50.4462L77.6929 50.2617C77.5535 50.2086 77.4151 50.1539 77.2799 50.0922L76.8047 49.8793L76.0346 50.2649V47.9077L74.4508 48.6876C73.9193 48.9498 73.4125 49.2443 72.9303 49.565L72.4439 49.0785L73.6313 46.7037L73.4184 46.228C73.3567 46.0923 73.3031 45.9534 73.2489 45.815L73.0644 45.3275L70.5426 44.487V41.6767L73.0644 40.8352L73.2489 40.3471C73.302 40.2077 73.3567 40.0693 73.4184 39.9342L73.6313 39.459L72.4439 37.0841L74.432 35.0981ZM76.0346 52.7207L76.5409 52.4681L77.4392 55.1648H83.4161L84.3144 52.4671L84.8218 52.7207V58.9368L80.4282 61.5728L76.0346 58.9368V52.7207ZM67.7054 63.3223C66.3367 64.4384 64.6387 65.0504 62.8538 65.0504C58.6141 65.0504 55.165 61.6013 55.165 57.3616C55.165 53.1219 58.6141 49.6728 62.8538 49.6728C65.4834 49.6728 67.8899 51.0163 69.3015 53.2008C67.9843 55.1975 67.2474 57.545 67.2474 60.0175C67.2474 61.1513 67.4088 62.2593 67.7054 63.3223ZM70.7314 51.4062C68.8794 48.9557 65.9875 47.476 62.8538 47.476C57.4036 47.476 52.9682 51.9114 52.9682 57.3616C52.9682 62.8118 57.4036 67.2472 62.8538 67.2472C64.9122 67.2472 66.8762 66.609 68.5303 65.4435C69.1749 66.7586 70.0481 67.96 71.1304 68.9994C68.725 70.7103 65.8304 71.6408 62.8538 71.6408C54.9805 71.6408 48.5746 65.2349 48.5746 57.3616C48.5746 49.4883 54.9805 43.0824 62.8538 43.0824C64.7663 43.0824 66.6059 43.4712 68.3458 44.1996V46.0714L71.0435 46.9697L69.7713 49.5124L71.2028 50.9439C71.0424 51.0951 70.8831 51.248 70.7314 51.4062ZM74.2835 74.8094L73.6871 75.173C71.8528 76.2913 69.8684 77.114 67.788 77.6192L67.109 77.7828L66.3501 81.5264H59.3585L58.5996 77.7828L57.9206 77.6192C55.8408 77.114 53.8558 76.2913 52.0216 75.173L51.4252 74.8094L48.2394 76.9209L43.2966 71.9771L45.4081 68.7913L45.0445 68.1949C43.9262 66.3617 43.1035 64.3773 42.5983 62.2958L42.4336 61.6168L38.689 60.8579V53.8663L42.4315 53.1074L42.5961 52.4284C43.1014 50.3486 43.9241 48.3636 45.0423 46.5294L45.406 45.933L43.2955 42.7472L48.2383 37.8044L51.4241 39.9148L52.0205 39.5512C53.8537 38.433 55.8381 37.6102 57.9196 37.105L58.5986 36.9404L59.3575 33.1968H66.349L67.1079 36.9393L67.7869 37.1039C68.6788 37.3201 69.5584 37.6092 70.416 37.9428L71.0424 39.1951L68.3458 40.0934V41.829C66.5904 41.2063 64.7508 40.8856 62.8538 40.8856C53.7689 40.8856 46.3778 48.2767 46.3778 57.3616C46.3778 66.4465 53.7689 73.8376 62.8538 73.8376C66.4928 73.8376 70.0164 72.6185 72.8853 70.4126C73.0349 70.514 73.17 70.6282 73.324 70.7237C74.3333 71.3463 74.9362 72.4029 74.9362 73.5474V75.2412L74.2835 74.8094ZM86.3771 68.854C84.715 69.8811 83.7234 71.6365 83.7234 73.5474V79.3296H79.3298V81.5264H83.7234V88.1168H79.3298V90.3136H83.7234V93.6088C83.7234 95.4253 82.2447 96.904 80.4282 96.904C78.6116 96.904 77.133 95.4253 77.133 93.6088V85.92H81.5266V83.7232H77.133V77.1328H81.5266V74.936H77.133V73.5474C77.133 71.6365 76.1413 69.8811 74.4792 68.854C71.3267 66.9045 69.4442 63.6018 69.4442 60.0175C69.4442 56.6617 71.0907 53.574 73.8378 51.6057V60.1811L80.4282 64.1354L87.0186 60.1811V51.6057C89.7656 53.574 91.4122 56.6628 91.4122 60.0175C91.4122 63.6018 89.5297 66.9045 86.3771 68.854Z" fill="#323C4B"/>
<path d="M80.4275 48.5745C83.4556 48.5745 85.9195 46.1106 85.9195 43.0825C85.9195 40.0543 83.4556 37.5905 80.4275 37.5905C77.3994 37.5905 74.9355 40.0543 74.9355 43.0825C74.9355 46.1106 77.3994 48.5745 80.4275 48.5745ZM80.4275 39.7873C82.2441 39.7873 83.7227 41.2659 83.7227 43.0825C83.7227 44.899 82.2441 46.3777 80.4275 46.3777C78.611 46.3777 77.1323 44.899 77.1323 43.0825C77.1323 41.2659 78.611 39.7873 80.4275 39.7873Z" fill="#23844A"/>
<path d="M81.5259 93.6088C81.5259 94.2154 81.0341 94.7072 80.4275 94.7072C79.8209 94.7072 79.3291 94.2154 79.3291 93.6088C79.3291 93.0022 79.8209 92.5104 80.4275 92.5104C81.0341 92.5104 81.5259 93.0022 81.5259 93.6088Z" fill="#23844A"/>
<path d="M61.7549 35.3936H63.9517V37.5904H61.7549V35.3936Z" fill="#23844A"/>
<path d="M46.543 42.6045L48.0967 41.0513L49.6499 42.6045L48.0967 44.1577L46.543 42.6045Z" fill="#23844A"/>
<path d="M40.8857 56.2632H43.0825V58.46H40.8857V56.2632Z" fill="#23844A"/>
<path d="M46.5459 72.1192L48.1002 70.5665L49.6528 72.1203L48.0991 73.6735L46.5459 72.1192Z" fill="#23844A"/>
<path d="M61.7549 77.1328H63.9517V79.3296H61.7549V77.1328Z" fill="#23844A"/>
</g>
<mask id="mask1" mask-type="alpha" maskUnits="userSpaceOnUse" x="0" y="14" width="130" height="88">
<rect y="14" width="130" height="88" fill="#C4C4C4"/>
</mask>
<g mask="url(#mask1)">
<g opacity="0.86">
<mask id="path-13-inside-1" fill="white">
<ellipse cx="65.3014" cy="63.2767" rx="48.3239" ry="48.7233"/>
</mask>
<path d="M41.6253 63.2767C41.6253 50.9812 51.6679 40 65.3014 40V184C132.312 184 185.625 129.391 185.625 63.2767H41.6253ZM65.3014 40C78.9349 40 88.9775 50.9812 88.9775 63.2767H-55.0225C-55.0225 129.391 -1.70917 184 65.3014 184V40ZM88.9775 63.2767C88.9775 75.5723 78.9349 86.5535 65.3014 86.5535V-57.4465C-1.70917 -57.4465 -55.0225 -2.83704 -55.0225 63.2767H88.9775ZM65.3014 86.5535C51.6679 86.5535 41.6253 75.5723 41.6253 63.2767H185.625C185.625 -2.83704 132.312 -57.4465 65.3014 -57.4465V86.5535Z" fill="url(#paint1_linear)" mask="url(#path-13-inside-1)"/>
</g>
</g>
<defs>
<linearGradient id="paint0_linear" x1="64.9012" y1="0.176147" x2="64.9012" y2="129.572" gradientUnits="userSpaceOnUse">
<stop stop-color="#23844A"/>
<stop offset="1" stop-color="#B4E3AD"/>
</linearGradient>
<linearGradient id="paint1_linear" x1="65.3014" y1="14.5535" x2="65.3014" y2="85.8201" gradientUnits="userSpaceOnUse">
<stop stop-color="#F7F7F7"/>
<stop stop-color="#E3E3E3"/>
<stop offset="1" stop-color="#F7F7F7" stop-opacity="0"/>
</linearGradient>
<clipPath id="clip0">
<rect x="31" y="31" width="68.1008" height="68.1008" fill="white"/>
</clipPath>
</defs>
</svg>
