<svg width="130" height="102" viewBox="0 0 130 102" fill="none" xmlns="http://www.w3.org/2000/svg">
<mask id="mask0" mask-type="alpha" maskUnits="userSpaceOnUse" x="0" y="0" width="130" height="82">
<rect width="130" height="82" fill="#C4C4C4"/>
</mask>
<g mask="url(#mask0)">
<circle cx="64.9012" cy="64.8743" r="63.6981" stroke="url(#paint0_linear)" stroke-width="2"/>
</g>
<g clip-path="url(#clip0)">
<path d="M95.3861 59.1958C93.5405 59.1958 92.0026 60.7337 92.0026 62.5793V72.8324L90.5671 74.4728C90.362 73.8577 89.9518 73.345 89.5417 72.9349C88.1062 71.602 85.8507 71.8071 84.6203 73.2425L78.7761 80.6247C78.2634 81.3424 78.0584 82.1626 78.0584 82.9828V89.4423H77.0331C76.4178 89.4423 75.8027 89.955 75.8027 90.6726V97.5422C75.8027 98.1574 76.3154 98.7725 77.0331 98.7725H92.6177C93.2328 98.7725 93.848 98.2599 93.848 97.5422V90.6726C93.848 90.0574 93.3353 89.4423 92.6177 89.4423H91.1822V87.8018C91.1822 87.2891 91.2848 86.7765 91.5923 86.3663L98.2568 77.2412C98.5643 76.8311 98.6669 76.2159 98.6669 75.7033V62.682C98.7696 60.7338 97.2317 59.1958 95.3861 59.1958ZM91.7976 91.4929V96.6194H77.956V91.4929H91.7976ZM96.6165 76.1133L89.9521 85.2384C89.4394 86.0587 89.2344 86.8789 89.2344 87.8017V89.4422H80.2117V83.0853C80.2117 82.6752 80.3143 82.265 80.5193 81.9575L86.2609 74.6778C86.7736 74.0626 87.5938 74.0626 88.1065 74.5753C88.9268 75.3955 88.9268 76.4208 88.3116 77.1385L87.2863 78.3689C86.9787 78.779 86.9787 79.3942 87.3888 79.8043C87.799 80.2145 88.4142 80.1119 88.8243 79.7018L93.6433 74.1651C93.8484 73.96 93.9509 73.6525 93.9509 73.4475V62.6817C93.9509 61.9641 94.566 61.3488 95.2838 61.3488C96.0014 61.3488 96.6167 61.9641 96.6167 62.6817V75.703H96.7192C96.719 75.8057 96.719 76.0109 96.6165 76.1133Z" fill="#323C4B"/>
<path d="M52.7335 89.4422H51.7082V83.0854C51.7082 82.2651 51.4006 81.4449 50.8879 80.6247L45.1463 73.345C43.9159 71.8071 41.6602 71.602 40.2249 73.0374C39.7122 73.4476 39.4046 73.8577 39.1995 74.5753L37.8666 73.0374V62.7844C37.8666 60.9388 36.3287 59.4009 34.4831 59.4009C32.6375 59.4009 31.0996 60.9388 31.0996 62.7844V75.8057C31.0996 76.3184 31.3047 76.8311 31.6123 77.3436L38.1742 86.3663C38.4817 86.7764 38.5843 87.2891 38.5843 87.9042V89.4421H37.1489C36.5337 89.4421 35.9186 89.9548 35.9186 90.6725V97.542C35.9186 98.1573 36.4313 98.7724 37.1489 98.7724H52.7335C53.3488 98.7724 53.9639 98.2597 53.9639 97.542V90.6725C53.9639 89.9549 53.4513 89.4422 52.7335 89.4422ZM33.2528 76.1132C33.1502 76.0107 33.1502 75.9081 33.1502 75.7031V62.6818C33.1502 61.9641 33.7654 61.3489 34.4831 61.3489C35.2008 61.3489 35.816 61.9641 35.816 62.6818V73.2424C35.816 73.4476 35.9186 73.8577 36.1236 73.9601L40.9426 79.4967C41.3527 79.9069 41.9679 80.0094 42.378 79.5993C42.7881 79.1892 42.8907 78.5739 42.4806 78.1638L41.4552 76.9335C40.84 76.2158 40.84 75.1904 41.6604 74.3702C42.173 73.8575 43.0958 73.9601 43.5059 74.4728L49.2475 81.7525C49.4526 82.06 49.6576 82.5727 49.6576 82.9828V89.4422H40.635V87.8018C40.635 86.879 40.3274 85.9562 39.8148 85.136L33.2528 76.1132ZM51.9133 96.6194H38.0717V91.4928H51.9133V96.6194Z" fill="#323C4B"/>
<path d="M86.5686 41.9707L81.032 32.4355C80.4168 31.5127 79.494 31 78.3663 31H51.5033C50.4779 31 49.4527 31.5127 48.94 32.4355L43.4033 41.9707C43.3008 42.0733 43.3008 42.3808 43.3008 42.4834V66.6806C43.3008 69.0387 45.2488 70.9869 47.6071 70.9869H82.3649C84.723 70.9869 86.6712 69.0389 86.6712 66.6806V42.4834C86.6712 42.2783 86.5686 42.0733 86.5686 41.9707ZM78.4687 33.0506C78.6738 33.0506 78.9814 33.2557 79.1864 33.4607L83.8002 41.4581H72.8295L70.3688 33.0506H78.4687V33.0506ZM68.2158 33.1531L70.5739 41.3556H59.2956L61.6538 33.1531H68.2158V33.1531ZM70.8815 43.5086V49.3528H58.8854V43.5086H70.8815ZM50.683 33.4607C50.8881 33.2556 51.0931 33.0506 51.5033 33.0506H59.6032L57.1425 41.4581H46.0692L50.683 33.4607ZM84.6206 66.6806H84.518C84.518 67.9109 83.4927 68.9363 82.2623 68.9363H47.6071C46.3767 68.9363 45.3514 67.9109 45.3514 66.6806V43.5086H56.9373V50.3782C56.9373 50.9934 57.3475 51.4036 57.9627 51.4036H72.0094C72.6246 51.4036 73.0347 50.9934 73.0347 50.3782V43.5086H84.6207V66.6806H84.6206Z" fill="#323C4B"/>
<path d="M72.5221 62.6272H57.3476C56.7324 62.6272 56.3223 63.0373 56.3223 63.6526C56.3223 64.2678 56.7324 64.6779 57.3476 64.6779H72.5221C73.1373 64.6779 73.5474 64.2678 73.5474 63.6526C73.5474 63.0373 73.1373 62.6272 72.5221 62.6272Z" fill="#23844A"/>
</g>
<mask id="mask1" mask-type="alpha" maskUnits="userSpaceOnUse" x="0" y="14" width="130" height="88">
<rect y="14" width="130" height="88" fill="#C4C4C4"/>
</mask>
<g mask="url(#mask1)">
<g opacity="0.86">
<mask id="path-9-inside-1" fill="white">
<ellipse cx="65.3014" cy="63.2767" rx="48.3239" ry="48.7233"/>
</mask>
<path d="M41.6253 63.2767C41.6253 50.9812 51.6679 40 65.3014 40V184C132.312 184 185.625 129.391 185.625 63.2767H41.6253ZM65.3014 40C78.9349 40 88.9775 50.9812 88.9775 63.2767H-55.0225C-55.0225 129.391 -1.70917 184 65.3014 184V40ZM88.9775 63.2767C88.9775 75.5723 78.9349 86.5535 65.3014 86.5535V-57.4465C-1.70917 -57.4465 -55.0225 -2.83704 -55.0225 63.2767H88.9775ZM65.3014 86.5535C51.6679 86.5535 41.6253 75.5723 41.6253 63.2767H185.625C185.625 -2.83704 132.312 -57.4465 65.3014 -57.4465V86.5535Z" fill="url(#paint1_linear)" mask="url(#path-9-inside-1)"/>
</g>
</g>
<defs>
<linearGradient id="paint0_linear" x1="64.9012" y1="0.176147" x2="64.9012" y2="129.572" gradientUnits="userSpaceOnUse">
<stop stop-color="#23844A"/>
<stop offset="1" stop-color="#B4E3AD"/>
</linearGradient>
<linearGradient id="paint1_linear" x1="65.3014" y1="14.5535" x2="65.3014" y2="85.8201" gradientUnits="userSpaceOnUse">
<stop stop-color="#F7F7F7"/>
<stop stop-color="#E3E3E3"/>
<stop offset="1" stop-color="#F7F7F7" stop-opacity="0"/>
</linearGradient>
<clipPath id="clip0">
<rect x="31" y="31" width="67.7725" height="67.7725" fill="white"/>
</clipPath>
</defs>
</svg>
